<svg xmlns="http://www.w3.org/2000/svg" width="73.031" height="90" viewBox="0 0 73.031 90"><g transform="translate(-505 -57)"><g transform="translate(1525 499)"><path d="M52.953,0H3.969a4,4,0,0,0-4,4V86a4,4,0,0,0,4,4h65a4,4,0,0,0,4-4L73,20.028C71.5,18.483,54.843,2,52.953,0Z" transform="translate(-1019.969 -442)" fill="#ffb1b4"/><path d="M0,0V14a6,6,0,0,0,6,6H20Z" transform="translate(-966.969 -442)" fill="#a13638"/></g><path d="M6.486,0a2.821,2.821,0,0,1-.255-.853A3.073,3.073,0,0,1,3.832.176,3.376,3.376,0,0,1,1.516-.633,2.6,2.6,0,0,1,.6-2.672a2.687,2.687,0,0,1,1.121-2.32A5.529,5.529,0,0,1,4.957-5.81H6.126v-.545a1.567,1.567,0,0,0-.338-1.055A1.331,1.331,0,0,0,4.72-7.8,1.513,1.513,0,0,0,3.713-7.5a1.045,1.045,0,0,0-.365.844H.809a2.551,2.551,0,0,1,.51-1.529,3.37,3.37,0,0,1,1.441-1.1,5.253,5.253,0,0,1,2.092-.4A4.15,4.15,0,0,1,7.642-8.8,3.09,3.09,0,0,1,8.675-6.319V-2.2A4.546,4.546,0,0,0,9.053-.149V0Zm-2.1-1.767a2.188,2.188,0,0,0,1.037-.25,1.645,1.645,0,0,0,.7-.672V-4.324H5.177q-1.907,0-2.03,1.318l-.009.149a1.017,1.017,0,0,0,.334.782A1.3,1.3,0,0,0,4.386-1.767Zm10.2-.105a1.666,1.666,0,0,0,1.143-.387,1.355,1.355,0,0,0,.457-1.028h2.382a3.258,3.258,0,0,1-.527,1.771A3.48,3.48,0,0,1,16.616-.268a4.442,4.442,0,0,1-1.991.444,4.129,4.129,0,0,1-3.217-1.3A5.13,5.13,0,0,1,10.23-4.7v-.167A5.071,5.071,0,0,1,11.4-8.376a4.08,4.08,0,0,1,3.208-1.31A4,4,0,0,1,17.468-8.67a3.594,3.594,0,0,1,1.094,2.7H16.181a1.745,1.745,0,0,0-.457-1.206,1.524,1.524,0,0,0-1.16-.464,1.53,1.53,0,0,0-1.34.647,3.749,3.749,0,0,0-.453,2.1v.264a3.8,3.8,0,0,0,.448,2.113A1.549,1.549,0,0,0,14.581-1.872Zm9.387,0a1.666,1.666,0,0,0,1.143-.387,1.355,1.355,0,0,0,.457-1.028h2.382a3.258,3.258,0,0,1-.527,1.771A3.48,3.48,0,0,1,26-.268a4.442,4.442,0,0,1-1.991.444,4.129,4.129,0,0,1-3.217-1.3A5.13,5.13,0,0,1,19.617-4.7v-.167a5.071,5.071,0,0,1,1.169-3.507,4.08,4.08,0,0,1,3.208-1.31A4,4,0,0,1,26.855-8.67a3.594,3.594,0,0,1,1.094,2.7H25.567a1.745,1.745,0,0,0-.457-1.206,1.524,1.524,0,0,0-1.16-.464,1.53,1.53,0,0,0-1.34.647,3.749,3.749,0,0,0-.453,2.1v.264a3.8,3.8,0,0,0,.448,2.113A1.549,1.549,0,0,0,23.968-1.872ZM29-4.825a5.731,5.731,0,0,1,1-3.542A3.237,3.237,0,0,1,32.73-9.686a2.913,2.913,0,0,1,2.294,1.037V-13.5h2.549V0H35.279l-.123-1.011A2.989,2.989,0,0,1,32.713.176a3.228,3.228,0,0,1-2.694-1.323A5.916,5.916,0,0,1,29-4.825Zm2.54.189a3.754,3.754,0,0,0,.466,2.051,1.517,1.517,0,0,0,1.354.713,1.7,1.7,0,0,0,1.661-.995V-6.625a1.675,1.675,0,0,0-1.644-.995Q31.544-7.62,31.544-4.636Zm16.567-.031A5.758,5.758,0,0,1,47.136-1.1,3.231,3.231,0,0,1,44.411.176a2.969,2.969,0,0,1-2.47-1.187L41.827,0H39.542V-13.5h2.54v4.843a2.893,2.893,0,0,1,2.312-1.028,3.258,3.258,0,0,1,2.729,1.279,5.767,5.767,0,0,1,.989,3.6Zm-2.54-.185a3.783,3.783,0,0,0-.457-2.1,1.545,1.545,0,0,0-1.362-.664,1.676,1.676,0,0,0-1.67.993v3.753a1.7,1.7,0,0,0,1.688,1,1.568,1.568,0,0,0,1.617-1.213A6.257,6.257,0,0,0,45.571-4.852Z" transform="translate(517.402 131.824)" fill="#a13638"/><path d="M17.3-7.447H7.745L5.929-2H.137L9.978-28.437h5.048L24.922-2H19.13ZM9.216-11.86h6.609l-3.323-9.9Z" transform="translate(528.863 114.438)" fill="#a13638"/></g></svg>