<svg xmlns="http://www.w3.org/2000/svg" xmlns:xlink="http://www.w3.org/1999/xlink" width="13" height="10" viewBox="0 0 13 10">
  <defs>
    <clipPath id="clip-Artboard_2">
      <rect width="13" height="10"/>
    </clipPath>
  </defs>
  <g id="Artboard_2" data-name="Artboard – 2" clip-path="url(#clip-Artboard_2)">
    <g id="Group_5040" data-name="Group 5040" transform="translate(5388.509 4977.421)">
      <path id="Op_component_1" data-name="Op component 1" d="M1764.043,1782.59h3.3a1.656,1.656,0,0,1-.412,1.307c-.517.457-2.474,2.832-2.474,2.832a1.393,1.393,0,0,1-2.062,0,1.807,1.807,0,0,1-.206-1.96Z" transform="translate(-7150 -6755.017)" fill="#08f"/>
      <path id="Op_component_2" data-name="Op component 2" d="M1764.04,1782.573h3.295a1.648,1.648,0,0,0-.411-1.3c-.517-.454-2.471-2.819-2.471-2.819a1.394,1.394,0,0,0-2.059,0,1.8,1.8,0,0,0-.207,1.952Z" transform="translate(-7150 -6755)" fill="#08f"/>
      <path id="Op_component_5" data-name="Op component 5" d="M1770.671,1783.01h3.3a1.655,1.655,0,0,1-.412,1.307c-.517.457-2.474,2.832-2.474,2.832a1.393,1.393,0,0,1-2.062,0,1.807,1.807,0,0,1-.205-1.96Z" transform="translate(-7150.025 -6755.448)" fill="#08f"/>
      <path id="Op_component_6" data-name="Op component 6" d="M1770.668,1782.994h3.295a1.647,1.647,0,0,0-.412-1.3c-.517-.455-2.471-2.819-2.471-2.819a1.394,1.394,0,0,0-2.059,0,1.794,1.794,0,0,0-.206,1.952Z" transform="translate(-7150.025 -6755.431)" fill="#08f"/>
    </g>
  </g>
</svg>
