<svg xmlns="http://www.w3.org/2000/svg" width="11.052" height="8.859" viewBox="0 0 11.052 8.859">
  <g id="Group_6535" data-name="Group 6535" transform="translate(-321.943 -759.815)">
    <g id="Group_6493" data-name="Group 6493" transform="translate(321.943 759.815)">
      <path id="Op_component_3" data-name="Op component 3" d="M1763.886,1804.966h3.046a1.531,1.531,0,0,1-.38,1.208c-.478.422-2.285,2.615-2.285,2.615a1.287,1.287,0,0,1-1.9,0,1.669,1.669,0,0,1-.19-1.81Z" transform="translate(-1761.986 -1800.739)" fill="#f71dae"/>
      <path id="Op_component_4" data-name="Op component 4" d="M1763.884,1804.6h3.042a1.522,1.522,0,0,0-.38-1.2c-.477-.42-2.282-2.6-2.282-2.6a1.287,1.287,0,0,0-1.9,0,1.656,1.656,0,0,0-.191,1.8Z" transform="translate(-1761.986 -1800.374)" fill="#f71dae"/>
      <path id="Op_component_7" data-name="Op component 7" d="M1770.514,1805.387h3.046a1.528,1.528,0,0,1-.38,1.207c-.478.422-2.285,2.615-2.285,2.615a1.286,1.286,0,0,1-1.9,0,1.668,1.668,0,0,1-.19-1.81Z" transform="translate(-1762.516 -1800.773)" fill="#f71dae"/>
      <path id="Op_component_8" data-name="Op component 8" d="M1770.511,1805.019h3.043a1.521,1.521,0,0,0-.38-1.2c-.477-.42-2.282-2.6-2.282-2.6a1.287,1.287,0,0,0-1.9,0,1.657,1.657,0,0,0-.191,1.8Z" transform="translate(-1762.515 -1800.406)" fill="#f71dae"/>
    </g>
  </g>
</svg>
