<svg xmlns="http://www.w3.org/2000/svg" xmlns:xlink="http://www.w3.org/1999/xlink" width="13" height="10" viewBox="0 0 13 10">
  <defs>
    <clipPath id="clip-Artboard_3">
      <rect width="13" height="10"/>
    </clipPath>
  </defs>
  <g id="Artboard_3" data-name="Artboard – 3" clip-path="url(#clip-Artboard_3)">
    <g id="Group_5040" data-name="Group 5040" transform="translate(0.494 0.408)">
      <path id="Op_component_1" data-name="Op component 1" d="M1765.293,1782.59h-3.3a1.656,1.656,0,0,0,.412,1.307c.517.457,2.474,2.832,2.474,2.832a1.393,1.393,0,0,0,2.062,0,1.807,1.807,0,0,0,.206-1.96Z" transform="translate(-1755.383 -1778.003)" fill="#08f"/>
      <path id="Op_component_2" data-name="Op component 2" d="M1765.289,1782.573h-3.295a1.648,1.648,0,0,1,.411-1.3c.517-.454,2.471-2.819,2.471-2.819a1.394,1.394,0,0,1,2.059,0,1.8,1.8,0,0,1,.207,1.952Z" transform="translate(-1755.376 -1777.986)" fill="#08f"/>
      <path id="Op_component_5" data-name="Op component 5" d="M1771.921,1783.01h-3.3a1.655,1.655,0,0,0,.412,1.307c.517.457,2.474,2.832,2.474,2.832a1.393,1.393,0,0,0,2.062,0,1.807,1.807,0,0,0,.205-1.96Z" transform="translate(-1768.614 -1778.434)" fill="#08f"/>
      <path id="Op_component_6" data-name="Op component 6" d="M1771.917,1782.994h-3.295a1.647,1.647,0,0,1,.412-1.3c.517-.455,2.471-2.819,2.471-2.819a1.394,1.394,0,0,1,2.059,0,1.794,1.794,0,0,1,.206,1.952Z" transform="translate(-1768.607 -1778.417)" fill="#08f"/>
    </g>
  </g>
</svg>
