<svg xmlns="http://www.w3.org/2000/svg" width="73.031" height="90" viewBox="0 0 73.031 90"><g transform="translate(-1119 -57)"><g transform="translate(2137 395)"><path d="M52.953,0H3.969a4,4,0,0,0-4,4V86a4,4,0,0,0,4,4h65a4,4,0,0,0,4-4L73,20.028C71.5,18.483,54.843,2,52.953,0Z" transform="translate(-1017.969 -338)" fill="#ff82aa"/><path d="M0,0V14a6,6,0,0,0,6,6H20Z" transform="translate(-965 -338)" fill="#cc6485"/></g><path d="M6.486,0a2.821,2.821,0,0,1-.255-.853A3.073,3.073,0,0,1,3.832.176,3.376,3.376,0,0,1,1.516-.633,2.6,2.6,0,0,1,.6-2.672a2.687,2.687,0,0,1,1.121-2.32A5.529,5.529,0,0,1,4.957-5.81H6.126v-.545a1.567,1.567,0,0,0-.338-1.055A1.331,1.331,0,0,0,4.72-7.8,1.513,1.513,0,0,0,3.713-7.5a1.045,1.045,0,0,0-.365.844H.809a2.551,2.551,0,0,1,.51-1.529,3.37,3.37,0,0,1,1.441-1.1,5.253,5.253,0,0,1,2.092-.4A4.15,4.15,0,0,1,7.642-8.8,3.09,3.09,0,0,1,8.675-6.319V-2.2A4.546,4.546,0,0,0,9.053-.149V0Zm-2.1-1.767a2.188,2.188,0,0,0,1.037-.25,1.645,1.645,0,0,0,.7-.672V-4.324H5.177q-1.907,0-2.03,1.318l-.009.149a1.017,1.017,0,0,0,.334.782A1.3,1.3,0,0,0,4.386-1.767ZM14.054-3.1,15.82-9.51h2.654L15.267,0H12.841L9.633-9.51h2.654ZM22.271,0H19.723V-9.51h2.549Zm-2.7-11.971a1.251,1.251,0,0,1,.382-.94A1.436,1.436,0,0,1,21-13.28a1.44,1.44,0,0,1,1.037.369,1.244,1.244,0,0,1,.387.94,1.247,1.247,0,0,1-.391.949A1.443,1.443,0,0,1,21-10.652a1.443,1.443,0,0,1-1.033-.369A1.247,1.247,0,0,1,19.573-11.971Z" transform="translate(1144.402 131.824)" fill="#c35074"/><path d="M35.444,26.271H1.164C.207,26.271,0,26.132,0,25.489V-.218C0-.861.207-1,1.164-1h34.28a1.539,1.539,0,0,1,1.164.355v26.56A1.538,1.538,0,0,1,35.444,26.271ZM28.3,20.139h0v3.13h4.55V20.14H28.3Zm-6.136,0h0v3.13h4.55V20.14h-4.55Zm-6.242,0v3.13h4.55V20.14Zm-6.137,0v3.13h4.549V20.14Zm-6.031,0v3.13H8.2V20.14ZM18.879,7.68V17.751h13.86V7.68Zm-15.235,0V17.751H17.186V7.68ZM28.249,2.357v3.13H32.8V2.357Zm-6.136,0v3.13h4.55V2.357Zm-6.242,0v3.13H20.42V2.357Zm-6.137,0v3.13h4.55V2.357Zm-6.03,0v3.13H8.147V2.357Z" transform="translate(1173.607 112) rotate(180)" fill="#c35074"/></g></svg>