<svg xmlns="http://www.w3.org/2000/svg" width="73.031" height="90" viewBox="0 0 73.031 90"><g transform="translate(-1738 -57)"><g transform="translate(3111 181)"><path d="M52.953,0H3.969a4,4,0,0,0-4,4V86a4,4,0,0,0,4,4h65a4,4,0,0,0,4-4L73,20.028C71.5,18.483,54.843,2,52.953,0Z" transform="translate(-1372.969 -124)" fill="#9983cc"/><path d="M0,0V14a6,6,0,0,0,6,6H20Z" transform="translate(-1320 -124)" fill="#5e498f"/></g><path d="M2.9,8.9H0v7.244H.014L0,30.147a2.906,2.906,0,0,0,2.9,2.9H28.976v-2.9H2.9Zm28.976,0H20.283L17.386,6H8.693A2.894,2.894,0,0,0,5.81,8.9L5.8,24.351a2.906,2.906,0,0,0,2.9,2.9H31.873a2.906,2.906,0,0,0,2.9-2.9V11.8A2.906,2.906,0,0,0,31.873,8.9ZM10.142,22.9l6.52-7.727,5.071,5.568,3.622-3.4L30.425,22.9Z" transform="translate(1757 80)" fill="#5e498f"/><path d="M9.545-4.667A5.758,5.758,0,0,1,8.569-1.1,3.231,3.231,0,0,1,5.845.176a2.969,2.969,0,0,1-2.47-1.187L3.261,0H.976V-13.5h2.54v4.843A2.893,2.893,0,0,1,5.827-9.686,3.258,3.258,0,0,1,8.556-8.407a5.767,5.767,0,0,1,.989,3.6ZM7-4.852a3.783,3.783,0,0,0-.457-2.1A1.545,1.545,0,0,0,5.186-7.62a1.676,1.676,0,0,0-1.67.993v3.753a1.7,1.7,0,0,0,1.688,1A1.568,1.568,0,0,0,6.82-3.085,6.257,6.257,0,0,0,7-4.852ZM13.491-9.51l.079,1.063A3.342,3.342,0,0,1,16.3-9.686a2.536,2.536,0,0,1,2.522,1.45,3.265,3.265,0,0,1,2.856-1.45,2.836,2.836,0,0,1,2.3.9,4.141,4.141,0,0,1,.756,2.711V0H22.192V-6.064a1.811,1.811,0,0,0-.316-1.182A1.4,1.4,0,0,0,20.76-7.62a1.585,1.585,0,0,0-1.582,1.09L19.187,0h-2.54V-6.056a1.789,1.789,0,0,0-.325-1.2,1.416,1.416,0,0,0-1.107-.369,1.646,1.646,0,0,0-1.564.9V0h-2.54V-9.51ZM35.253-4.667a5.7,5.7,0,0,1-1,3.52A3.2,3.2,0,0,1,31.562.176a2.963,2.963,0,0,1-2.329-1V3.656h-2.54V-9.51h2.355l.088.932a2.985,2.985,0,0,1,2.408-1.107,3.22,3.22,0,0,1,2.733,1.3A5.858,5.858,0,0,1,35.253-4.8Zm-2.54-.185a3.743,3.743,0,0,0-.47-2.048,1.532,1.532,0,0,0-1.367-.721,1.663,1.663,0,0,0-1.644.914v3.894a1.692,1.692,0,0,0,1.661.94Q32.713-1.872,32.713-4.852Z" transform="translate(1756.024 131.5)" fill="#5e498f"/></g></svg>