<svg xmlns="http://www.w3.org/2000/svg" width="262.8" height="183.796" viewBox="0 0 262.8 183.796">
  <g id="Group_6498" data-name="Group 6498" transform="translate(-69 -1652.328)">
    <ellipse id="Ellipse_280" data-name="Ellipse 280" cx="101.318" cy="17.124" rx="101.318" ry="17.124" transform="translate(99 1801.875)" fill="#ebeff0"/>
    <g id="Group_6497" data-name="Group 6497" transform="translate(-0.945 -6)">
      <g id="Group_6496" data-name="Group 6496" transform="translate(5 5)">
        <path id="Path_2707" data-name="Path 2707" d="M99.5,31.559S97.693,5.518,136.524,1.016c30.89-.3,77.38-2.532,78.25,32.078V51.665s-8.3,55.781-40.581,48.706c0,0-7.637-2.453-14.115,11.175,0,0-16.857,24.169-13.527,5.881,0,0,6.578-15.445-2.353-16.468a100.122,100.122,0,0,0-15.88-.588S122.571,95.794,99.5,31.559Z" transform="translate(48.486 1658.9)" fill="#d5dfe1" fill-rule="evenodd"/>
        <path id="Path_2711" data-name="Path 2711" d="M58.744,157.412,46.393,138s-3.286-6.755-12.351-5.881-21.147.078-25.878-8.234S3.89,94.416,3.459,83.307c-.406-10.466.869-28.384,18.232-31.171S65.8,50.372,65.8,50.372s28.047-3.38,33.524,24.7l2.353,17.056s4.607,34.4-10,38.229c0,0-13.639,4.206-24.7,4.117,0,0-8.981-.519-7.058,12.351C59.92,146.826,62,158.342,58.744,157.412Z" transform="translate(88.066 1639.5)" fill="#d5dfe1" fill-rule="evenodd"/>
        <path id="Path_2713" data-name="Path 2713" d="M296.946,152.125l-22.349.588s-14.55,2.614-19.408-17.056c0,0-12.982-49.136,29.407-50.579l22.349-.588s35.142-1.716,34.7,31.171c0,0,6.357,27.506-13.527,34.112l-15.291,1.176s-21.62,33.654-21.761,18.82C291.064,169.769,300.243,161.6,296.946,152.125Z" transform="translate(-14.865 1625.379)" fill="#d5dfe1" fill-rule="evenodd"/>
      </g>
      <g id="Group_6495" data-name="Group 6495">
        <path id="Path_2707-2" data-name="Path 2707" d="M99.5,31.559S97.693,5.518,136.524,1.016c30.89-.3,77.38-2.532,78.25,32.078V51.665s-8.3,55.781-40.581,48.706c0,0-7.637-2.453-14.115,11.175,0,0-16.857,24.169-13.527,5.881,0,0,6.578-15.445-2.353-16.468a100.122,100.122,0,0,0-15.88-.588S122.571,95.794,99.5,31.559Z" transform="translate(48.486 1658.9)" fill="#fff" stroke="#6e8c97" stroke-width="3" fill-rule="evenodd"/>
        <path id="Path_2711-2" data-name="Path 2711" d="M58.744,157.412,46.393,138s-3.286-6.755-12.351-5.881-21.147.078-25.878-8.234S3.89,94.416,3.459,83.307c-.406-10.466.869-28.384,18.232-31.171S65.8,50.372,65.8,50.372s28.047-3.38,33.524,24.7l2.353,17.056s4.607,34.4-10,38.229c0,0-13.639,4.206-24.7,4.117,0,0-8.981-.519-7.058,12.351C59.92,146.826,62,158.342,58.744,157.412Z" transform="translate(88.066 1639.5)" fill="#fff" stroke="#6e8c97" stroke-width="3" fill-rule="evenodd"/>
        <path id="Path_2713-2" data-name="Path 2713" d="M296.946,152.125l-22.349.588s-14.55,2.614-19.408-17.056c0,0-12.982-49.136,29.407-50.579l22.349-.588s35.142-1.716,34.7,31.171c0,0,6.357,27.506-13.527,34.112l-15.291,1.176s-21.62,33.654-21.761,18.82C291.064,169.769,300.243,161.6,296.946,152.125Z" transform="translate(-14.865 1625.379)" fill="#fff" stroke="#6e8c97" stroke-width="3" fill-rule="evenodd"/>
      </g>
      <path id="Union_263" data-name="Union 263" d="M-5099.544,1091.947v-3.421h-3.423a2.034,2.034,0,0,1-2.033-2.035,2.034,2.034,0,0,1,2.033-2.035h3.423v-3.421a2.035,2.035,0,0,1,2.035-2.035,2.034,2.034,0,0,1,2.033,2.035v3.421h3.235a2.034,2.034,0,0,1,2.035,2.035,2.034,2.034,0,0,1-2.035,2.035h-3.235v3.421a2.034,2.034,0,0,1-2.033,2.033A2.035,2.035,0,0,1-5099.544,1091.947Z" transform="translate(5384.924 608.891)" fill="#d7e1e3"/>
      <path id="Union_265" data-name="Union 265" d="M-5101.11,1088.189v-2.42h-2.45a1.47,1.47,0,0,1-1.44-1.469,1.44,1.44,0,0,1,1.44-1.44h2.45v-2.42a1.44,1.44,0,0,1,1.44-1.44,1.44,1.44,0,0,1,1.439,1.44v2.42h2.452a1.439,1.439,0,0,1,1.439,1.44,1.47,1.47,0,0,1-1.44,1.469h-2.451v2.42a1.439,1.439,0,0,1-1.439,1.439A1.439,1.439,0,0,1-5101.11,1088.189Zm5.33-2.42h0Z" transform="translate(5174.945 673.912)" fill="#6f8a95"/>
      <path id="Path_2708" data-name="Path 2708" d="M209.318,67.868a7,7,0,0,0-4.939,4.257V86.588c0,2.007.281,2.266-3.167,2.463s-3.3-3.4-3.3-3.4.582-6.938.588-12.351-.551-6.038,3.529-10,8.192-6.674,2.941-10.586-12.939,2.353-12.939,2.353L188.5,49.776c.6-1.246-1.07-2,10-5.881,11.641-4.086,17.644,7.646,17.644,7.646C220.161,60.581,213.054,67.088,209.318,67.868ZM203.2,94.474l1.764,1.176-.588,5.293L203.2,102.12h-4.117l-1.176-1.176V95.651l1.764-1.176Z" transform="translate(11.83 1642.448)" fill="none" stroke="#6e8c97" stroke-linecap="round" stroke-linejoin="round" stroke-width="3" fill-rule="evenodd"/>
      <path id="Union_266" data-name="Union 266" d="M-5104.823,1091.276s-.467-1.448,1.248-2.933,7.394-5.117,11.9-5.943c0,0,2.865.136,1.165,2.533l-.885.642s-3.393.837-9.357,4.8a4.5,4.5,0,0,1-2.791,1.177A3.1,3.1,0,0,1-5104.823,1091.276Zm17.507-9.98a6.34,6.34,0,0,1,4.677-1.607s2.72.177,1.165,2.533l-1.648.521-2.286.593a2.9,2.9,0,0,1-.673.089C-5087.794,1083.426-5087.316,1081.3-5087.316,1081.3Z" transform="translate(5266.703 589.661)" fill="#6e8c97"/>
      <path id="Path_2712" data-name="Path 2712" d="M49.614,102l-8.961-8.489s-2.96-3.52,2.83-4.245,9.9-.943,9.9-.943l5.188-9.433s2.134-6.568,4.716-.943,5.188,10.376,5.188,10.376L79.8,90.212s6.464-.777,1.887,3.3-8.961,8.018-8.961,8.018l2.358,12.734s.665,4.836-2.83,2.83-10.376-6.131-10.376-6.131l-11.791,5.188s-3.852,1.269-2.83-2.83S49.614,102,49.614,102Z" transform="translate(78.399 1634.179)" fill="none" stroke="#6e8c97" stroke-width="3" fill-rule="evenodd"/>
      <path id="Path_2714" data-name="Path 2714" d="M331.282,132.674a3.28,3.28,0,1,1-6.469,0c0-1.5-1.737-9-.588-13.233.469-1.73,3.6-2.941,4.117-2.941s3.712.553,4.117,2.353C333.418,123.112,331.282,131.189,331.282,132.674Zm-3.235,8.528a3.876,3.876,0,1,1-3.235,3.823A3.566,3.566,0,0,1,328.048,141.2Z" transform="translate(-43.909 1612.188)" fill="#fff" stroke="#6e8c97" stroke-width="3" fill-rule="evenodd"/>
    </g>
  </g>
</svg>
