<svg xmlns="http://www.w3.org/2000/svg" xmlns:xlink="http://www.w3.org/1999/xlink" width="22" height="78" viewBox="0 0 22 78">
  <defs>
    <clipPath id="clip-Hover_white">
      <rect width="22" height="78"/>
    </clipPath>
  </defs>
  <g id="Hover_white" data-name="Hover white" clip-path="url(#clip-Hover_white)">
    <g id="Group_4991" data-name="Group 4991" transform="translate(0.62)">
      <g id="_2-03" data-name="2-03" transform="translate(-6.5 -2.4)">
        <path id="Path_524" data-name="Path 524" d="M27.866,3.11a64.493,64.493,0,0,1-8.335,17.007c-2.482,3.5-5.742,6.226-8.131,9.816A21.65,21.65,0,0,0,7.52,41.869a23.808,23.808,0,0,0,4.149,13.447c2.963,4.356,6.964,7.728,9.881,12.174,2.436,3.71,5.121,7.788,6.3,12.2" transform="translate(0.014 0.004)" fill="#fff"/>
        <path id="Path_525" data-name="Path 525" d="M27.2,79.8c-1.132-4.317-3.778-8.405-6.1-12.016a55.856,55.856,0,0,0-5.037-6.346,57.843,57.843,0,0,1-4.754-5.9A24.452,24.452,0,0,1,7.12,41.9,22.374,22.374,0,0,1,11,29.717a45.777,45.777,0,0,1,4.225-5.242,49.031,49.031,0,0,0,3.8-4.566A64.48,64.48,0,0,0,27.232,3l.648.249a65.507,65.507,0,0,1-8.295,17.109,50.794,50.794,0,0,1-3.842,4.655,45,45,0,0,0-4.17,5.143A21.247,21.247,0,0,0,7.8,41.9a23.638,23.638,0,0,0,4.061,13.2,56.012,56.012,0,0,0,4.69,5.819,55.676,55.676,0,0,1,5.055,6.366c2.409,3.72,5.092,7.868,6.251,12.314Z" transform="translate(0 0)" fill="#bac8d8"/>
      </g>
      <g id="Group_4990" data-name="Group 4990" transform="translate(-1)">
        <path id="Path_531" data-name="Path 531" d="M19.787,37.744l-3.921,3.93-1.013,1.013a.619.619,0,0,1-.422.169.591.591,0,0,1-.385-.141l-.056-.1a.6.6,0,0,1,0-.807l.169-.169,4.756-4.756a.6.6,0,0,1,.844.844Z" transform="translate(-8.171 -2.554)" fill="#0072bc"/>
        <path id="Path_532" data-name="Path 532" d="M25.368,42.57a.591.591,0,0,1-.591.591H15.866l3.921,3.912a.61.61,0,0,1,0,.844.619.619,0,0,1-.422.169.6.6,0,0,1-.422-.169l-4.887-4.9-.066-.084a.6.6,0,0,1,0-.807l.169-.169H24.777a.591.591,0,0,1,.591.61Z" transform="translate(-8.171 -2.861)" fill="#0072bc"/>
      </g>
    </g>
  </g>
</svg>
