<svg xmlns="http://www.w3.org/2000/svg" xmlns:xlink="http://www.w3.org/1999/xlink" width="22" height="78" viewBox="0 0 22 78">
  <defs>
    <clipPath id="clip-Color_">
      <rect width="22" height="78"/>
    </clipPath>
  </defs>
  <g id="Color_" data-name="Color " clip-path="url(#clip-Color_)">
    <path id="Path_528" data-name="Path 528" d="M23.416,43.17a.938.938,0,0,1-.628-.244l-.075-.075a.938.938,0,0,1,0-1.295l4.944-4.925a.945.945,0,1,1,1.332,1.341L24.054,42.9a.938.938,0,0,1-.638.272Z" transform="translate(-8.967 -2.514)" fill="#506e91"/>
    <g id="Group_4993" data-name="Group 4993" transform="translate(0.619)">
      <path id="Path_530" data-name="Path 530" d="M28.883,77.718l-.675-2.42c-1.132-4.071-3.778-7.927-6.106-11.332a53.305,53.305,0,0,0-5.038-5.985,55.274,55.274,0,0,1-4.755-5.563A22.145,22.145,0,0,1,8.12,39.558,20.282,20.282,0,0,1,12,28.067a43.742,43.742,0,0,1,4.226-4.944,46.979,46.979,0,0,0,3.8-4.306A59.422,59.422,0,0,0,28.235,2.871L28.883.92ZM28.2,4.944a59.4,59.4,0,0,1-7.63,14.286,48.636,48.636,0,0,1-3.842,4.39,43.036,43.036,0,0,0-4.153,4.859A19.267,19.267,0,0,0,8.8,39.558a21.409,21.409,0,0,0,4.061,12.448,53.524,53.524,0,0,0,4.691,5.488,53.135,53.135,0,0,1,5.056,6A49.589,49.589,0,0,1,28.2,73.112Z" transform="translate(-7.501 -0.319)" fill="#506e91"/>
      <g id="Group_4992" data-name="Group 4992">
        <path id="Path_529" data-name="Path 529" d="M28.549,75.342c-1.158-4.165-3.8-8.011-6.2-11.51-2.872-4.193-6.811-7.354-9.747-11.482A21.8,21.8,0,0,1,8.49,39.7a19.843,19.843,0,0,1,3.82-11.257c2.352-3.386,5.562-5.957,8.005-9.259A59.812,59.812,0,0,0,28.522,3.14Z" transform="translate(-7.524 -0.457)" fill="#506e91"/>
        <g id="Group_4989" data-name="Group 4989">
          <path id="Path_531" data-name="Path 531" d="M19.787,37.744l-3.921,3.93-1.013,1.013a.619.619,0,0,1-.422.169.591.591,0,0,1-.385-.141l-.056-.1a.6.6,0,0,1,0-.807l.169-.169,4.756-4.756a.6.6,0,0,1,.844.844Z" transform="translate(-8.171 -2.554)" fill="#fff"/>
          <path id="Path_532" data-name="Path 532" d="M25.368,42.57a.591.591,0,0,1-.591.591H15.866l3.921,3.912a.61.61,0,0,1,0,.844.619.619,0,0,1-.422.169.6.6,0,0,1-.422-.169l-4.887-4.9-.066-.084a.6.6,0,0,1,0-.807l.169-.169H24.777a.591.591,0,0,1,.591.61Z" transform="translate(-8.171 -2.861)" fill="#fff"/>
        </g>
      </g>
    </g>
  </g>
</svg>
