<svg xmlns="http://www.w3.org/2000/svg" width="73.031" height="90" viewBox="0 0 73.031 90"><g transform="translate(-1917 -57)"><g transform="translate(3111 181)"><path d="M52.953,0H3.969a4,4,0,0,0-4,4V86a4,4,0,0,0,4,4h65a4,4,0,0,0,4-4L73,20.028C71.5,18.483,54.843,2,52.953,0Z" transform="translate(-1193.969 -124)" fill="#afb0da"/><path d="M0,0V14a6,6,0,0,0,6,6H20Z" transform="translate(-1141 -124)" fill="#7475a5"/></g><path d="M.58-4.825a5.731,5.731,0,0,1,1-3.542A3.237,3.237,0,0,1,4.307-9.686,2.913,2.913,0,0,1,6.6-8.648V-13.5H9.149V0H6.855L6.732-1.011A2.989,2.989,0,0,1,4.289.176,3.228,3.228,0,0,1,1.6-1.147,5.916,5.916,0,0,1,.58-4.825Zm2.54.189a3.754,3.754,0,0,0,.466,2.051,1.517,1.517,0,0,0,1.354.713A1.7,1.7,0,0,0,6.6-2.867V-6.625A1.675,1.675,0,0,0,4.957-7.62Q3.12-7.62,3.12-4.636ZM13.8,0H11.25V-9.51H13.8ZM11.1-11.971a1.251,1.251,0,0,1,.382-.94,1.436,1.436,0,0,1,1.042-.369,1.44,1.44,0,0,1,1.037.369,1.244,1.244,0,0,1,.387.94,1.247,1.247,0,0,1-.391.949,1.443,1.443,0,0,1-1.033.369,1.443,1.443,0,0,1-1.033-.369A1.247,1.247,0,0,1,11.1-11.971ZM18.571,0H16.022V-13.5h2.549Zm4.772,0H20.795V-13.5h2.549Z" transform="translate(1941.42 131.824)" fill="#7475a5"/><path d="M9.587,35a.6.6,0,0,1-.607-.517L8.508,31.22a9.1,9.1,0,0,1-2.1-1.206L3.324,31.244a.626.626,0,0,1-.757-.27l-2.48-4.26a.618.618,0,0,1,.149-.788l2.617-2.031a8.471,8.471,0,0,1,0-2.413L.235,19.451a.6.6,0,0,1-.149-.788l2.48-4.26a.608.608,0,0,1,.757-.27l3.088,1.231a9.552,9.552,0,0,1,2.1-1.206l.472-3.263a.6.6,0,0,1,.607-.517h4.962a.6.6,0,0,1,.608.517l.471,3.263a9.106,9.106,0,0,1,2.1,1.206l3.088-1.231a.625.625,0,0,1,.756.27l2.481,4.26a.619.619,0,0,1-.149.788l-2.617,2.031a8.4,8.4,0,0,1,0,2.413L23.9,25.926a.619.619,0,0,1,.149.788l-2.481,4.26a.607.607,0,0,1-.756.27l-3.088-1.231a9.558,9.558,0,0,1-2.1,1.206l-.471,3.263a.6.6,0,0,1-.608.517ZM7.726,22.688a4.341,4.341,0,1,0,4.342-4.309A4.33,4.33,0,0,0,7.726,22.688Zm11.385-9.555-2.288-1.347a.314.314,0,0,1-.133-.4L17.353,9.7a5.7,5.7,0,0,1-.663-1.144l-1.758-.27a.361.361,0,0,1-.265-.337V5.254a.327.327,0,0,1,.265-.337l1.758-.27A4.892,4.892,0,0,1,17.353,3.5L16.69,1.82a.327.327,0,0,1,.133-.4L19.111.069a.307.307,0,0,1,.431.067L20.637,1.55c.232,0,.431-.034.663-.034s.431.034.663.034L23.058.1a.4.4,0,0,1,.431-.067l2.288,1.347a.314.314,0,0,1,.133.4L25.247,3.47a5.67,5.67,0,0,1,.664,1.145l1.757.269a.362.362,0,0,1,.266.337V7.914a.361.361,0,0,1-.266.336l-1.757.236a4.883,4.883,0,0,1-.664,1.144l.664,1.683a.327.327,0,0,1-.133.4l-2.288,1.347A.306.306,0,0,1,23.058,13l-1.095-1.414c-.232,0-.431.034-.663.034a4.124,4.124,0,0,1-.663-.034l-1.095,1.482a.4.4,0,0,1-.273.1A.351.351,0,0,1,19.111,13.133Zm-.133-6.566A2.322,2.322,0,1,0,21.3,4.21,2.325,2.325,0,0,0,18.978,6.567Z" transform="matrix(0.799, 0.602, -0.602, 0.799, 1953.063, 75)" fill="#7475a5"/></g></svg>