<svg xmlns="http://www.w3.org/2000/svg" width="73.031" height="90" viewBox="0 0 73.031 90"><g transform="translate(-331 -57)"><path d="M52.953,0H3.969a4,4,0,0,0-4,4V86a4,4,0,0,0,4,4h65a4,4,0,0,0,4-4L73,20.028C71.5,18.483,54.843,2,52.953,0Z" transform="translate(331.031 57)" fill="#41a5ee"/><path d="M0,0V14a6,6,0,0,0,6,6H20Z" transform="translate(384 57)" fill="#103f91"/><path d="M35.636,14.977l-5.328.315L26.891,35.678h-.078c-.168-.964-.795-4.341-1.917-10.116l-1.992-9.8-5,.24-2,9.563c-1.169,5.57-1.821,8.812-1.992,9.722h-.047L10.824,16.507l-4.583.234,4.91,23.684,5.094.315,1.917-9.218c1.122-5.408,1.777-8.551,1.917-9.41h.14c.19.916.8,4.128,1.917,9.644l1.917,9.488,5.518.315,6.173-26.589h-.109Z" transform="translate(346.759 71.029)" fill="#103f91"/><path d="M.58-4.825a5.731,5.731,0,0,1,1-3.542A3.237,3.237,0,0,1,4.307-9.686,2.913,2.913,0,0,1,6.6-8.648V-13.5H9.149V0H6.855L6.732-1.011A2.989,2.989,0,0,1,4.289.176,3.228,3.228,0,0,1,1.6-1.147,5.916,5.916,0,0,1,.58-4.825Zm2.54.189a3.754,3.754,0,0,0,.466,2.051,1.517,1.517,0,0,0,1.354.713A1.7,1.7,0,0,0,6.6-2.867V-6.625A1.675,1.675,0,0,0,4.957-7.62Q3.12-7.62,3.12-4.636Zm7.6-.207a5.64,5.64,0,0,1,.545-2.522,3.989,3.989,0,0,1,1.569-1.714,4.577,4.577,0,0,1,2.377-.606,4.33,4.33,0,0,1,3.142,1.178,4.727,4.727,0,0,1,1.358,3.2l.018.65A4.97,4.97,0,0,1,18.51-1.147,4.247,4.247,0,0,1,15.231.176a4.268,4.268,0,0,1-3.283-1.318,5.058,5.058,0,0,1-1.226-3.586Zm2.54.18a3.555,3.555,0,0,0,.51,2.073,1.682,1.682,0,0,0,1.459.717,1.686,1.686,0,0,0,1.441-.709,3.89,3.89,0,0,0,.519-2.267,3.519,3.519,0,0,0-.519-2.06,1.686,1.686,0,0,0-1.459-.731,1.658,1.658,0,0,0-1.441.726A3.955,3.955,0,0,0,13.263-4.662Zm11.988,2.79a1.666,1.666,0,0,0,1.143-.387,1.355,1.355,0,0,0,.457-1.028h2.382a3.258,3.258,0,0,1-.527,1.771A3.48,3.48,0,0,1,27.286-.268a4.442,4.442,0,0,1-1.991.444,4.129,4.129,0,0,1-3.217-1.3A5.13,5.13,0,0,1,20.9-4.7v-.167a5.071,5.071,0,0,1,1.169-3.507,4.08,4.08,0,0,1,3.208-1.31A4,4,0,0,1,28.138-8.67a3.594,3.594,0,0,1,1.094,2.7H26.851a1.745,1.745,0,0,0-.457-1.206,1.524,1.524,0,0,0-1.16-.464,1.53,1.53,0,0,0-1.34.647,3.749,3.749,0,0,0-.453,2.1v.264a3.8,3.8,0,0,0,.448,2.113A1.549,1.549,0,0,0,25.251-1.872Zm9.053-4.8L35.9-9.51h2.716L35.912-4.852,38.733,0H36.009l-1.7-2.988L32.625,0H29.892l2.821-4.852-2.7-4.658h2.725Z" transform="translate(347.42 131.824)" fill="#103f91"/></g></svg>