<svg xmlns="http://www.w3.org/2000/svg" width="121.096" height="85.201" viewBox="0 0 121.096 85.201">
  <g id="Group_5431" data-name="Group 5431" transform="translate(-181 -106)">
    <ellipse id="Ellipse_198" data-name="Ellipse 198" cx="60.548" cy="9.376" rx="60.548" ry="9.376" transform="translate(181 172.449)" fill="#f0f3f3"/>
    <path id="Path_1337" data-name="Path 1337" d="M7,0,39.194,2.509c3.866,0,19.267,14.1,19.267,17.971L57,68c0,3.866-1.413,7-5.279,7H7a7,7,0,0,1-7-7V7A7,7,0,0,1,7,0Z" transform="translate(212 106)" fill="#fff"/>
    <g id="Group_5425" data-name="Group 5425" transform="translate(3552 5675)">
      <g id="noun_Upload_4404830_1_" data-name="noun_Upload_4404830 (1)" transform="translate(-3328.3 -5532.053)">
        <g id="Group_5421" data-name="Group 5421" transform="translate(2 0.697)">
          <path id="Path_1329" data-name="Path 1329" d="M15.92,6.9a.854.854,0,0,0-.853.853V21.524a.854.854,0,0,0,1.707,0V7.756A.854.854,0,0,0,15.92,6.9Z" transform="translate(-0.119 -7.698)" fill="#6e8c97" stroke="#6e8c97" stroke-width="0.75" fill-rule="evenodd"/>
          <path id="Path_1330" data-name="Path 1330" d="M9.68,9.707l5.05-5.052a.856.856,0,0,1,1.209,0l5.05,5.052a.854.854,0,1,0,1.2-1.208L17.146,3.448a2.56,2.56,0,0,0-3.622,0L8.477,8.5A.854.854,0,1,0,9.683,9.707Z" transform="translate(0.467 -9.697)" fill="#6e8c97" stroke="#6e8c97" stroke-width="0.75" fill-rule="evenodd"/>
          <path id="Path_1331" data-name="Path 1331" d="M31.979,19.969a.957.957,0,0,0-1.033.853v3.413a2.87,2.87,0,0,1-3.1,2.56H7.169a2.87,2.87,0,0,1-3.1-2.56V20.82a.957.957,0,0,0-1.034-.854A.957.957,0,0,0,2,20.82v3.413C2,26.589,4.313,28.5,7.168,28.5H27.843c2.852,0,5.166-1.908,5.169-4.264V20.82A.958.958,0,0,0,31.979,19.969Z" transform="translate(-2 -6.817)" fill="#6e8c97" stroke="#6e8c97" stroke-width="0.75" fill-rule="evenodd"/>
        </g>
      </g>
      <g id="noun_Document_3637831" transform="translate(-3350.12 -5568.813)">
        <g id="Layer_23" data-name="Layer 23" transform="translate(9.12 3)">
          <path id="Path_1335" data-name="Path 1335" d="M69.15,19.172,52.212,3.382a1.509,1.509,0,0,0-1-.382H16.738A7.386,7.386,0,0,0,9.12,10.1V67.283a7.386,7.386,0,0,0,7.618,7.1H61.915a7.386,7.386,0,0,0,7.618-7.1V20.046A1.189,1.189,0,0,0,69.15,19.172ZM52.528,7.209l12.45,11.606H52.528Zm9.387,64.714H16.738a4.817,4.817,0,0,1-4.977-4.64V10.1a4.817,4.817,0,0,1,4.977-4.64h33.15V20.046a1.278,1.278,0,0,0,1.32,1.231H66.892V67.283a4.817,4.817,0,0,1-4.977,4.64Z" transform="translate(-9.12 -3)" fill="#6e8c97"/>
        </g>
      </g>
    </g>
    <g id="Group_5427" data-name="Group 5427" transform="translate(278.619 153.918)">
      <path id="Path_1134" data-name="Path 1134" d="M23.545,56.426a1.009,1.009,0,0,1-1-1V50.112a.993.993,0,0,1,.461-.978,1.036,1.036,0,0,1,1.1,0,.993.993,0,0,1,.461.978v5.314a1.01,1.01,0,0,1-1.019,1Z" transform="translate(-19.832 -48.977)" fill="#6e8b96"/>
      <path id="Path_1135" data-name="Path 1135" d="M27.456,52.514H22.041a1.02,1.02,0,0,1,0-2.02h5.415a1.019,1.019,0,1,1,0,2.02Z" transform="translate(-21.163 -47.556)" fill="#6e8b96"/>
    </g>
    <g id="Group_5428" data-name="Group 5428" transform="translate(191.026 161.367)">
      <path id="Path_1134-2" data-name="Path 1134" d="M23.528,56.255a.989.989,0,0,1-.984-.977V50.086A.968.968,0,0,1,23,49.131a1.025,1.025,0,0,1,1.08,0,.968.968,0,0,1,.453.956v5.192a.99.99,0,0,1-1,.977Z" transform="translate(-19.898 -48.977)" fill="#6e8b96"/>
      <path id="Path_1135-2" data-name="Path 1135" d="M27.315,52.514H22.021a1.023,1.023,0,0,1,0-2.02h5.294a.983.983,0,0,1,.971.461,1.042,1.042,0,0,1,0,1.1A.983.983,0,0,1,27.315,52.514Z" transform="translate(-21.163 -47.865)" fill="#6e8b96"/>
    </g>
    <g id="Group_5430" data-name="Group 5430" transform="translate(196.666 143.407)">
      <path id="Path_1134-3" data-name="Path 1134" d="M23.528,56.255a.989.989,0,0,1-.984-.977V50.086A.968.968,0,0,1,23,49.131a1.025,1.025,0,0,1,1.08,0,.968.968,0,0,1,.453.956v5.192a.99.99,0,0,1-1,.977Z" transform="translate(-19.898 -48.977)" fill="#d6e0e2"/>
      <path id="Path_1135-3" data-name="Path 1135" d="M27.315,52.514H22.021a1.023,1.023,0,0,1,0-2.02h5.294a.983.983,0,0,1,.971.461,1.042,1.042,0,0,1,0,1.1A.983.983,0,0,1,27.315,52.514Z" transform="translate(-21.163 -47.865)" fill="#d6e0e2"/>
    </g>
  </g>
</svg>
