<svg xmlns="http://www.w3.org/2000/svg" width="64" height="58" viewBox="0 0 64 58">
  <g id="excel_1_" data-name="excel (1)" transform="translate(0 -2.365)">
    <path id="Path_242" data-name="Path 242" d="M73.363,50.9H40.232c-1.306,0-2.367-.8-2.367-1.776V13.61c0-.98,1.06-1.776,2.367-1.776H73.363c1.306,0,2.367.8,2.367,1.776V49.123C75.73,50.1,74.67,50.9,73.363,50.9Z" transform="translate(-11.73 0)" fill="#eceff1"/>
    <g id="Group_109" data-name="Group 109" transform="translate(26.135 14.8)">
      <path id="Path_243" data-name="Path 243" d="M49.7,26.034H40.232a2.367,2.367,0,1,1,0-4.733H49.7a2.367,2.367,0,1,1,0,4.733Z" transform="translate(-37.865 -21.301)" fill="#388e3c"/>
      <path id="Path_244" data-name="Path 244" d="M49.7,35.5H40.232a2.367,2.367,0,1,1,0-4.733H49.7a2.367,2.367,0,1,1,0,4.733Z" transform="translate(-37.865 -21.301)" fill="#388e3c"/>
      <path id="Path_245" data-name="Path 245" d="M49.7,44.966H40.232a2.367,2.367,0,1,1,0-4.733H49.7a2.367,2.367,0,1,1,0,4.733Z" transform="translate(-37.865 -21.301)" fill="#388e3c"/>
      <path id="Path_246" data-name="Path 246" d="M49.7,54.433H40.232a2.367,2.367,0,1,1,0-4.733H49.7a2.367,2.367,0,1,1,0,4.733Z" transform="translate(-37.865 -21.301)" fill="#388e3c"/>
      <path id="Path_247" data-name="Path 247" d="M63.9,26.034H59.164a2.367,2.367,0,1,1,0-4.733H63.9a2.367,2.367,0,1,1,0,4.733Z" transform="translate(-37.865 -21.301)" fill="#388e3c"/>
      <path id="Path_248" data-name="Path 248" d="M63.9,35.5H59.164a2.367,2.367,0,1,1,0-4.733H63.9a2.367,2.367,0,1,1,0,4.733Z" transform="translate(-37.865 -21.301)" fill="#388e3c"/>
      <path id="Path_249" data-name="Path 249" d="M63.9,44.966H59.164a2.367,2.367,0,1,1,0-4.733H63.9a2.367,2.367,0,1,1,0,4.733Z" transform="translate(-37.865 -21.301)" fill="#388e3c"/>
      <path id="Path_250" data-name="Path 250" d="M63.9,54.433H59.164a2.367,2.367,0,1,1,0-4.733H63.9a2.367,2.367,0,1,1,0,4.733Z" transform="translate(-37.865 -21.301)" fill="#388e3c"/>
    </g>
    <path id="Path_251" data-name="Path 251" d="M41.741,2.812A2.717,2.717,0,0,0,39.8,2.4L1.931,8.2A2.08,2.08,0,0,0,0,10.1V52.632a2.083,2.083,0,0,0,1.931,1.9L39.8,60.33a2.776,2.776,0,0,0,1.945-.41,1.818,1.818,0,0,0,.857-1.489V4.3A1.813,1.813,0,0,0,41.741,2.812Z" fill="#2e7d32"/>
    <path id="Path_252" data-name="Path 252" d="M32.545,45.776l-7.483-8.553,7.568-9.731A2.367,2.367,0,1,0,28.9,24.581l-7.01,9.012-5.907-6.749a2.365,2.365,0,0,0-3.559,3.114l6.508,7.44-6.6,8.482a2.368,2.368,0,0,0,3.739,2.906L22.1,41.024l6.882,7.862a2.363,2.363,0,1,0,3.559-3.11Z" transform="translate(-2.55 -6.159)" fill="#fafafa"/>
  </g>
</svg>
