<svg xmlns="http://www.w3.org/2000/svg" xmlns:xlink="http://www.w3.org/1999/xlink" width="20" height="20" viewBox="0 0 20 20">
  <defs>
    <clipPath id="clip-External_2">
      <rect width="20" height="20"/>
    </clipPath>
  </defs>
  <g id="External_2" data-name="External 2" clip-path="url(#clip-External_2)">
    <path id="sample-11" d="M39.643,38h0a.568.568,0,0,0-.492.848,7.669,7.669,0,1,1-13.228-.167A.447.447,0,0,0,25.544,38h0a.568.568,0,0,0-.485.271,8.587,8.587,0,0,0-1.178,4.746,8.89,8.89,0,0,0,8.266,8.23A8.616,8.616,0,0,0,39.8,38.089.189.189,0,0,0,39.643,38Z" transform="translate(-22.373 -33.002)" fill="#506e91" stroke="#506e91" stroke-width="0.5"/>
    <g id="Group_4997" data-name="Group 4997" transform="translate(0 -1)">
      <path id="Path_524" data-name="Path 524" d="M66.875,16.5a.5.5,0,0,0-.525.47v8.841a.528.528,0,0,0,1.049,0V16.97A.5.5,0,0,0,66.875,16.5Z" transform="translate(-56.85 -12.043)" fill="#506e91" stroke="#506e91" stroke-width="0.5"/>
      <path id="Polygon_5" data-name="Polygon 5" d="M4.646.354a.5.5,0,0,1,.707,0L9.146,4.146A.5.5,0,0,1,8.793,5H1.207a.5.5,0,0,1-.354-.854Z" transform="translate(5 1)" fill="#506e91"/>
    </g>
  </g>
</svg>
