<svg xmlns="http://www.w3.org/2000/svg" width="143" height="112.043" viewBox="0 0 143 112.043">
  <g id="Group_12" data-name="Group 12" transform="translate(-118 -150.957)">
    <g id="Group_9" data-name="Group 9">
      <path id="Path_59" data-name="Path 59" d="M-17585.781-5228.708v-16.762a7.283,7.283,0,0,1,7.48-6.5c6.949-.16,34.539,0,34.539,0a6.918,6.918,0,0,1,5.176,4.292,15.564,15.564,0,0,0,4.088,5.722,8.813,8.813,0,0,0,5.178,1.09c3.064-.272,77.471,0,77.471,0s8.09-.545,8.566,5.79.273,13.693.273,13.693h-142.771Z" transform="translate(17703.93 5403)" fill="#f1b800"/>
      <rect id="Rectangle_31" data-name="Rectangle 31" width="143" height="93" rx="8" transform="translate(118 170)" fill="#f3d55b"/>
    </g>
  </g>
</svg>
