<svg xmlns="http://www.w3.org/2000/svg" width="73.031" height="90" viewBox="0 0 73.031 90"><g transform="translate(-3 -57)"><g transform="translate(1464 499)"><path d="M52.953,0H3.969a4,4,0,0,0-4,4V86a4,4,0,0,0,4,4h65a4,4,0,0,0,4-4L73,20.028C71.5,18.483,54.843,2,52.953,0Z" transform="translate(-1460.969 -442)" fill="#6187ff"/><path d="M0,0V14a6,6,0,0,0,6,6H20Z" transform="translate(-1407.969 -442)" fill="#2949af"/></g><path d="M23.26,26.355H19.248V22.348H23.26ZM26.613,19v3.353H23.26V19ZM1.235,9.757A13.064,13.064,0,0,1,9.759,1.232a13.547,13.547,0,0,1,17.8,12.825H22.345A8.315,8.315,0,0,0,11.017,6.344a7.809,7.809,0,0,0-4.671,4.665,8.3,8.3,0,0,0,7.7,11.323v.016h.016v5.215A13.537,13.537,0,0,1,1.235,9.757ZM14.044,22.332V17.144h5.2v5.2H14.06v-.016Z" transform="translate(25.438 85.437)" fill="#2949af"/><path d="M.606-4.825A5.573,5.573,0,0,1,1.648-8.35,3.375,3.375,0,0,1,4.456-9.686,2.96,2.96,0,0,1,6.891-8.613L7-9.51H9.3V-.316a4.064,4.064,0,0,1-.567,2.171,3.641,3.641,0,0,1-1.6,1.406,5.608,5.608,0,0,1-2.408.483,5.215,5.215,0,0,1-2.039-.417,3.619,3.619,0,0,1-1.5-1.077L2.312.7a2.975,2.975,0,0,0,2.3,1.063,2.178,2.178,0,0,0,1.573-.541A2.027,2.027,0,0,0,6.75-.308v-.51A2.938,2.938,0,0,1,4.438.176a3.366,3.366,0,0,1-2.773-1.34A5.572,5.572,0,0,1,.606-4.72Zm2.54.189a3.47,3.47,0,0,0,.519,2.029,1.65,1.65,0,0,0,1.424.735A1.764,1.764,0,0,0,6.75-2.744V-6.749A1.76,1.76,0,0,0,5.106-7.62a1.66,1.66,0,0,0-1.437.748A3.911,3.911,0,0,0,3.146-4.636ZM13.931,0H11.382V-9.51h2.549Zm-2.7-11.971a1.251,1.251,0,0,1,.382-.94,1.436,1.436,0,0,1,1.042-.369,1.44,1.44,0,0,1,1.037.369,1.244,1.244,0,0,1,.387.94,1.247,1.247,0,0,1-.391.949,1.443,1.443,0,0,1-1.033.369,1.443,1.443,0,0,1-1.033-.369A1.247,1.247,0,0,1,11.232-11.971ZM16.717,0V-7.646H15.3V-9.51h1.415v-.809a3.283,3.283,0,0,1,.918-2.483,3.557,3.557,0,0,1,2.571-.883,5.938,5.938,0,0,1,1.292.176l-.026,1.969a3.238,3.238,0,0,0-.773-.079q-1.433,0-1.433,1.345v.765h1.89v1.863h-1.89V0Zm6.451,0V-7.646H21.753V-9.51h1.415v-.809a3.283,3.283,0,0,1,.918-2.483,3.557,3.557,0,0,1,2.571-.883,5.938,5.938,0,0,1,1.292.176l-.026,1.969a3.238,3.238,0,0,0-.773-.079q-1.433,0-1.433,1.345v.765h1.89v1.863h-1.89V0Z" transform="translate(25.394 131.685)" fill="#2949af"/></g></svg>