<svg xmlns="http://www.w3.org/2000/svg" width="48.968" height="39.147" viewBox="0 0 48.968 39.147">
  <g id="Impact_Analysis" data-name="Impact Analysis" transform="translate(-2151.431 -2206.11)">
    <path id="Union_358" data-name="Union 358" d="M-2103.275,2707.318v-2h32.726a5.7,5.7,0,0,0,4.467-1.65,4.068,4.068,0,0,0,.9-1.641V2681.75h2.161v20.458l-.014.077a5.711,5.711,0,0,1-1.294,2.559c-.964,1.129-2.826,2.474-6.218,2.474Zm-8.713-8.625a5.006,5.006,0,0,1,4.823-5.171,5,5,0,0,1,5.17,4.822,5.006,5.006,0,0,1-4.822,5.171l-.177,0A5.005,5.005,0,0,1-2111.988,2698.692Zm1.5-.053a3.505,3.505,0,0,0,3.5,3.379,3.5,3.5,0,0,1-3.5-3.379,3.5,3.5,0,0,1,3.33-3.617A3.5,3.5,0,0,0-2110.489,2698.639Zm3.411-2.62a2.5,2.5,0,0,0-2.411,2.586,2.5,2.5,0,0,0,2.586,2.411,2.5,2.5,0,0,0,2.411-2.586,2.5,2.5,0,0,0-2.5-2.413Zm3.585,2.376c0-.075-.008-.15-.015-.224C-2103.5,2698.245-2103.5,2698.32-2103.494,2698.4Zm21.883-3.765a4.5,4.5,0,0,1,4.34-4.654,4.5,4.5,0,0,1,4.655,4.34,4.5,4.5,0,0,1-4.341,4.654l-.161,0A4.5,4.5,0,0,1-2081.611,2694.63Zm-21.84-2.408,5.087-6.066,1.533,1.284-5.089,6.068Zm15.919-5.022,1.263-1.552,4.449,3.624-1.264,1.551Zm-22.889,2.938v-16.021l.013-.083a6.065,6.065,0,0,1,1.276-2.645,7.426,7.426,0,0,1,6.092-2.543h26.41v2.1h-26.41a5.466,5.466,0,0,0-4.385,1.693,4.228,4.228,0,0,0-.876,1.674v15.829Zm34.267-2.64,3.38-8.63,1.863.729-3.381,8.631Zm-21.4-5.318a5,5,0,0,1,4.822-5.171,5.005,5.005,0,0,1,5.172,4.822,5.007,5.007,0,0,1-4.823,5.171l-.175,0A5.007,5.007,0,0,1-2097.555,2682.179Zm23.706-8.833a5.006,5.006,0,0,1,4.823-5.172,5.005,5.005,0,0,1,5.171,4.823,5,5,0,0,1-4.822,5.171l-.177,0A5,5,0,0,1-2073.849,2673.347Zm4.909-2.674a2.5,2.5,0,0,0-2.411,2.587,2.5,2.5,0,0,0,2.586,2.411,2.5,2.5,0,0,0,2.412-2.586,2.5,2.5,0,0,0-2.5-2.414Zm-3.39,2.89c-.01-.089-.017-.178-.02-.268C-2072.347,2673.384-2072.34,2673.473-2072.33,2673.563Zm6.978-.378c0-.045,0-.09,0-.135C-2065.353,2673.095-2065.352,2673.14-2065.352,2673.185Z" transform="translate(4263.422 -462.061)" fill="#2b496d"/>
  </g>
</svg>
