<svg xmlns="http://www.w3.org/2000/svg" xmlns:xlink="http://www.w3.org/1999/xlink" width="20" height="20" viewBox="0 0 20 20">
  <defs>
    <clipPath id="clip-Internal_2">
      <rect width="20" height="20"/>
    </clipPath>
  </defs>
  <g id="Internal_2" data-name="Internal 2" clip-path="url(#clip-Internal_2)">
    <g id="Group_4997" data-name="Group 4997" transform="translate(5 1)">
      <path id="Path_524" data-name="Path 524" d="M66.875,26.281a.5.5,0,0,1-.525-.47V16.97a.528.528,0,0,1,1.049,0v8.841A.5.5,0,0,1,66.875,26.281Z" transform="translate(-61.849 -16.5)" fill="#506e91" stroke="#506e91" stroke-width="0.5"/>
      <path id="Polygon_5" data-name="Polygon 5" d="M4.646.354a.5.5,0,0,1,.707,0L9.146,4.146A.5.5,0,0,1,8.793,5H1.207a.5.5,0,0,1-.354-.854Z" transform="translate(10 13.238) rotate(180)" fill="#506e91"/>
    </g>
    <path id="Path_529" data-name="Path 529" d="M36.465,24.318h0a.746.746,0,0,0,.263.477,7.671,7.671,0,1,1-8.477,0,.568.568,0,0,0,.261-.477h0a.447.447,0,0,0-.687-.379,8.6,8.6,0,0,0-3.942,7.623,8.892,8.892,0,0,0,8.267,8.231,8.617,8.617,0,0,0,5-15.852.449.449,0,0,0-.687.377Z" transform="translate(-22.374 -21.549)" fill="#506e91" stroke="#4f6d90" stroke-width="0.5"/>
  </g>
</svg>
