<svg xmlns="http://www.w3.org/2000/svg" width="73.031" height="90" viewBox="0 0 73.031 90"><g transform="translate(-83 -57)"><g transform="translate(1544 499)"><path d="M52.953,0H3.969a4,4,0,0,0-4,4V86a4,4,0,0,0,4,4h65a4,4,0,0,0,4-4L73,20.028C71.5,18.483,54.843,2,52.953,0Z" transform="translate(-1460.969 -442)" fill="#63c5bc"/><path d="M0,0V14a6,6,0,0,0,6,6H20Z" transform="translate(-1407.969 -442)" fill="#009688"/></g><path d="M3.665-9.7V-.186A3.129,3.129,0,0,1,2.83,2.137a3.272,3.272,0,0,1-2.408.83A5.429,5.429,0,0,1-.835,2.825V.915a5.017,5.017,0,0,0,.8.075A1.021,1.021,0,0,0,1.116-.169V-9.7ZM.914-12.038A1.157,1.157,0,0,1,1.3-12.93a1.483,1.483,0,0,1,1.042-.35,1.483,1.483,0,0,1,1.042.35,1.157,1.157,0,0,1,.382.892,1.154,1.154,0,0,1-.391.9,1.49,1.49,0,0,1-1.033.35,1.49,1.49,0,0,1-1.033-.35A1.154,1.154,0,0,1,.914-12.038Zm13.3,6.931a5.216,5.216,0,0,1-1,3.34A3.26,3.26,0,0,1,10.521-.511a3.038,3.038,0,0,1-2.329-.951V2.792H5.651V-9.7H8.007l.088.884A3.053,3.053,0,0,1,10.5-9.869a3.286,3.286,0,0,1,2.733,1.234,5.353,5.353,0,0,1,.976,3.4Zm-2.54-.175a3.408,3.408,0,0,0-.47-1.943,1.555,1.555,0,0,0-1.367-.684,1.681,1.681,0,0,0-1.644.867v3.695a1.708,1.708,0,0,0,1.661.892Q11.672-2.454,11.672-5.282Zm3.744.025A5.1,5.1,0,0,1,16.458-8.6a3.445,3.445,0,0,1,2.808-1.268A3.03,3.03,0,0,1,21.7-8.852l.105-.851h2.3V-.978a3.707,3.707,0,0,1-.567,2.06,3.587,3.587,0,0,1-1.6,1.334,5.868,5.868,0,0,1-2.408.459,5.457,5.457,0,0,1-2.039-.4A3.617,3.617,0,0,1,16,1.457L17.121-.011A3.044,3.044,0,0,0,19.424,1,2.25,2.25,0,0,0,21,.486,1.87,1.87,0,0,0,21.56-.97v-.484a3.013,3.013,0,0,1-2.312.942,3.435,3.435,0,0,1-2.773-1.272,5.1,5.1,0,0,1-1.059-3.374Zm2.54.179a3.166,3.166,0,0,0,.519,1.925,1.677,1.677,0,0,0,1.424.7,1.789,1.789,0,0,0,1.661-.827v-3.8a1.784,1.784,0,0,0-1.644-.827,1.687,1.687,0,0,0-1.437.71A3.564,3.564,0,0,0,17.956-5.077Z" transform="translate(107.835 132.154)" fill="#009386"/><path d="M2.365,26.8h-.2A2.4,2.4,0,0,1,.2,25.617c-.067-.262-.135-.526-.2-.722V1.774a.227.227,0,0,1,.067-.131A2.175,2.175,0,0,1,2.3,0H33.1a2.169,2.169,0,0,1,2.3,2.233V24.5a3.22,3.22,0,0,1-.135.789,2.272,2.272,0,0,1-2.23,1.51ZM13.241,8.408l8.309,9.656c.136.131.271.328.473.525.135-.131.2-.262.271-.328,1.351-1.314,2.7-2.628,4.121-3.941a3.878,3.878,0,0,1,.879-.526,1.645,1.645,0,0,1,1.622.394c1.351,1.182,2.7,2.365,4.053,3.613.067.066.2.131.271.263V2.233H2.365C2.3,7.291,2.3,12.349,2.3,17.538l.27-.263c2.635-2.956,5.2-5.912,7.837-8.868A1.877,1.877,0,0,1,11.8,7.693,2.03,2.03,0,0,1,13.241,8.408Zm10.4-.328a2.636,2.636,0,0,1,5.27,0,2.561,2.561,0,0,1-2.635,2.562A2.6,2.6,0,0,1,23.645,8.08Z" transform="translate(102 86)" fill="#009386"/></g></svg>