<svg xmlns="http://www.w3.org/2000/svg" width="39.807" height="43.263" viewBox="0 0 39.807 43.263">
  <g id="KPI" transform="translate(-2632.378 -2066.427)">
    <g id="Group_10068" data-name="Group 10068" transform="translate(2631.385 2067.397)">
      <g id="Group_10069" data-name="Group 10069">
        <path id="Path_3327" data-name="Path 3327" d="M33.51,0H5.3A5.342,5.342,0,0,0,0,5.368v29.5a5.342,5.342,0,0,0,5.3,5.369H10.26a1.1,1.1,0,1,0,0-2.182H5.3a3.047,3.047,0,0,1-2.878-3.187V5.368A3.047,3.047,0,0,1,5.3,2.182H33.51a3.047,3.047,0,0,1,2.877,3.186V16.013a1.22,1.22,0,0,0,2.426,0V5.368A5.342,5.342,0,0,0,33.51,0Z" transform="translate(0.993 -0.97)" fill="#2b496d"/>
      </g>
    </g>
    <path id="Icon_ionic-ios-speedometer" data-name="Icon ionic-ios-speedometer" d="M14.655,4.5A12.4,12.4,0,0,0,5.368,25.123c.061.066.116.133.177.194A1.395,1.395,0,0,0,7.6,25.311a9.588,9.588,0,0,1,14.11,0,1.395,1.395,0,0,0,2.055.006l.177-.194A12.4,12.4,0,0,0,14.655,4.5ZM13.879,8A.775.775,0,0,1,15.43,8V9.994a.775.775,0,1,1-1.551,0ZM6.791,17.675H4.8a.775.775,0,0,1,0-1.551H6.791a.775.775,0,0,1,0,1.551Zm3.81-4.829h0a.782.782,0,0,1-1.1,0L8.093,11.439a.782.782,0,0,1,0-1.1h0a.782.782,0,0,1,1.1,0L10.6,11.755A.775.775,0,0,1,10.6,12.846Zm7.162,3.278L15.906,19.9a1.717,1.717,0,0,1-.388.388A1.667,1.667,0,1,1,13.58,17.57l3.407-2.221a.567.567,0,0,1,.648,0A.557.557,0,0,1,17.763,16.124Zm3-3.278a.782.782,0,0,1-1.1,0h0a.782.782,0,0,1,0-1.1l1.412-1.412a.782.782,0,0,1,1.1,0h0a.782.782,0,0,1,0,1.1Zm3.749,4.829H22.519a.775.775,0,0,1,0-1.551h1.994a.775.775,0,0,1,0,1.551Z" transform="translate(2645.125 2083.925)" fill="#2b496d"/>
    <path id="Subtraction_70" data-name="Subtraction 70" d="M2.338,19.725h0A15.6,15.6,0,0,1,3.73,16.73V8.363a1.086,1.086,0,0,0-1.065-1.1H1a1.087,1.087,0,0,0-1.066,1.1V18.621A1.086,1.086,0,0,0,1,19.725H2.338m3.1-5.315,0,0a14.971,14.971,0,0,1,3.794-3.066V4.914a1.086,1.086,0,0,0-1.065-1.1H6.5a1.087,1.087,0,0,0-1.066,1.1v9.5m5.5-3.894h0a14.362,14.362,0,0,1,3.795-.961V1.725a1.087,1.087,0,0,0-1.066-1.1H12.009a1.087,1.087,0,0,0-1.066,1.1v8.79m9.1-.572h0a1.123,1.123,0,0,0,.2-.647V-.962a1.086,1.086,0,0,0-1.066-1.1H17.514a1.086,1.086,0,0,0-1.066,1.1V9.3a1.157,1.157,0,0,0,.012.169,14.418,14.418,0,0,1,3.581.478h0M2.338,20.659H1a2.022,2.022,0,0,1-2-2.038V8.363A2.022,2.022,0,0,1,1,6.324H2.665A2,2,0,0,1,4.5,7.564V4.914a2.022,2.022,0,0,1,2-2.039H8.169a2,2,0,0,1,1.839,1.24V1.725a2.022,2.022,0,0,1,2-2.039h1.665A2,2,0,0,1,15.513.924V-.962a2.022,2.022,0,0,1,2-2.038h1.665a2.022,2.022,0,0,1,2,2.038V9.3a2.054,2.054,0,0,1-.37,1.182.935.935,0,0,1-1.006.369h0a13.482,13.482,0,0,0-3.349-.447.935.935,0,0,1-.835-.528.935.935,0,0,1-.775.611,13.43,13.43,0,0,0-3.548.9l0,0a.935.935,0,0,1-1.122-.346v.3a.935.935,0,0,1-.474.813A14.04,14.04,0,0,0,6.138,15.03l0,0a.935.935,0,0,1-1.47-.1v1.8a.935.935,0,0,1-.134.482,14.67,14.67,0,0,0-1.308,2.814A.935.935,0,0,1,2.338,20.659Z" transform="translate(2641.631 2074.054)" fill="#2b496d"/>
  </g>
</svg>
