<svg id="Layer_1" data-name="Layer 1" xmlns="http://www.w3.org/2000/svg" viewBox="0 0 27 30"><defs><style>.cls-1{fill:#b1c1d3;}</style></defs><title>Lock svg</title><path class="cls-1" d="M24,20.87c0,2.73-2.62,5.06-5,5.65a.5.5,0,0,1-.17,0,.67.67,0,0,1-.16-1.32l.26-.09H19c1.8-.57,3.64-2.35,3.67-4.27s0-3.6,0-5.4c0-.77,0-1.55,0-2.33H6.29a.67.67,0,0,1,0-1.34h17a.67.67,0,0,1,.67.67c0,1,0,2,0,3C24,17.25,24,19.07,24,20.87Z"/><path class="cls-1" d="M22.17,12.45a.67.67,0,0,1-.67.67H5.17v6c0,.21,0,.43,0,.65a5.8,5.8,0,0,0,.17,2,5.62,5.62,0,0,0,3.8,3.42l.08,0a0,0,0,0,0,0,0,.65.65,0,0,1,.4.77.66.66,0,0,1-.65.51.44.44,0,0,1-.16,0,6.74,6.74,0,0,1-1-.36,7,7,0,0,1-3.7-3.91,6.8,6.8,0,0,1-.26-2.52c0-.2,0-.41,0-.61V12.45a.67.67,0,0,1,.67-.67h17A.67.67,0,0,1,22.17,12.45Z"/><path class="cls-1" d="M13.8,27.18A18.09,18.09,0,0,1,8,26.29.67.67,0,0,1,8.44,25a18.62,18.62,0,0,0,10.47.1.68.68,0,0,1,.83.46.67.67,0,0,1-.47.83A20.15,20.15,0,0,1,13.8,27.18Z"/><path class="cls-1" d="M14.86,3.5a.85.85,0,0,1-.84.84H13.9C11.64,4.36,10,5,9,6.26c-1.41,1.81-1.16,4.46-1,5.52.05.29.09.46.09.46a.86.86,0,0,1-.31.88h-1a.83.83,0,0,1-.32-.47c0-.05-.09-.37-.16-.87C6.14,10.34,6,7.4,7.7,5.22,9,3.58,11,2.72,13.72,2.67h.47A.85.85,0,0,1,14.86,3.5Z"/><path class="cls-1" d="M21.46,11.78c-.07.5-.15.82-.16.87a.85.85,0,0,1-.31.47H20a.84.84,0,0,1-.31-.87s0-.18.09-.47c.17-1.06.41-3.72-1-5.53-1-1.25-2.61-1.89-4.86-1.91h-.13a.85.85,0,0,1-.84-.84.83.83,0,0,1,.79-.83h.35c2.71.05,4.74.91,6,2.55C21.79,7.4,21.65,10.34,21.46,11.78Z"/><circle class="cls-1" cx="13.87" cy="19" r="1.5"/><path class="cls-1" d="M13.88,23.25a.75.75,0,0,1-.75-.75v-2a.75.75,0,0,1,1.5,0v2A.76.76,0,0,1,13.88,23.25Z"/></svg>