<svg id="Layer_1" data-name="Layer 1" xmlns="http://www.w3.org/2000/svg" viewBox="0 0 50 50"><defs><style>.cls-1{fill:#0288d1;}.cls-2{fill:#fff;}.cls-3{fill:#ffc107;}.cls-4{fill:#ff3d00;}.cls-5{fill:#4caf50;}.cls-6{fill:#1976d2;}</style></defs><title>gl svg</title><path class="cls-1" d="M36,.74A11.13,11.13,0,1,0,47.09,11.87,11.13,11.13,0,0,0,36,.74Z"/><path class="cls-2" d="M30.39,9.09h2.23v8.35H30.39ZM31.5,8h0a1.07,1.07,0,0,1-1.1-1.12,1.12,1.12,0,0,1,2.23,0A1.08,1.08,0,0,1,31.5,8Zm10.58,4.17a3.06,3.06,0,0,0-5.57-1.76V9.09H34.29v8.35h2.22V13a1.67,1.67,0,0,1,3.34,0v4.45h2.23Z"/><path class="cls-1" d="M36.51,26.85A11.13,11.13,0,1,0,47.64,38,11.13,11.13,0,0,0,36.51,26.85Z"/><path class="cls-2" d="M31,35.2h2.22v8.34H31Zm1.1-1.12h0A1.11,1.11,0,1,1,33.17,33,1.06,1.06,0,0,1,32,34.08Zm10.58,4.18a3.06,3.06,0,0,0-3.06-3.06,3,3,0,0,0-2.5,1.3V35.2H34.84v8.34h2.23V39.09a1.67,1.67,0,1,1,3.34,0v4.45h2.22Z"/><path class="cls-3" d="M22.15,35.27h-.86v0H11.68V39.5h6a6.43,6.43,0,1,1-1.79-6.92l3-3a10.67,10.67,0,1,0,3.41,7.81A10.36,10.36,0,0,0,22.15,35.27Z"/><path class="cls-4" d="M2.23,32.39,5.74,35a6.39,6.39,0,0,1,10.19-2.38l3-3A10.66,10.66,0,0,0,2.23,32.39Z"/><path class="cls-5" d="M11.68,48a10.6,10.6,0,0,0,7.16-2.77l-3.3-2.8a6.39,6.39,0,0,1-9.88-2.94L2.17,42.21A10.67,10.67,0,0,0,11.68,48Z"/><path class="cls-6" d="M22.15,35.27h-.86v0H11.68V39.5h6a6.44,6.44,0,0,1-2.19,3h0l3.3,2.8a10.62,10.62,0,0,0,3.31-10Z"/><path class="cls-3" d="M21.81,11H21v0H11.34v4.27h6A6.41,6.41,0,1,1,15.59,8.3l3-3A10.67,10.67,0,1,0,22,13.08,10.36,10.36,0,0,0,21.81,11Z"/><path class="cls-4" d="M1.89,8.11,5.4,10.69A6.4,6.4,0,0,1,15.59,8.3l3-3A10.65,10.65,0,0,0,1.89,8.11Z"/><path class="cls-5" d="M11.34,23.77A10.61,10.61,0,0,0,18.5,21L15.2,18.2a6.4,6.4,0,0,1-9.88-2.95L1.83,17.93A10.68,10.68,0,0,0,11.34,23.77Z"/><path class="cls-6" d="M21.81,11H21v0H11.34v4.27h6a6.42,6.42,0,0,1-2.19,3h0L18.5,21A10.33,10.33,0,0,0,22,13.08,10.36,10.36,0,0,0,21.81,11Z"/></svg>