<svg xmlns="http://www.w3.org/2000/svg" xmlns:xlink="http://www.w3.org/1999/xlink" width="146" height="34" viewBox="0 0 146 34">
  <defs>
    <clipPath id="clip-Logo_Fianl">
      <rect width="146" height="34"/>
    </clipPath>
  </defs>
  <g id="Logo_Fianl" data-name="Logo Fianl" clip-path="url(#clip-Logo_Fianl)">
    <g id="isorobot_logo" data-name="isorobot logo" transform="translate(1 0.417)">
      <g id="isorobot" transform="translate(0.294 0.291)">
        <g id="Group_4995" data-name="Group 4995">
          <path id="Path_542" data-name="Path 542" d="M197.538,322.971a.79.79,0,0,1-.6.278H193a.792.792,0,0,1-.6-.278.89.89,0,0,1-.256-.619V300a.876.876,0,0,1,.854-.855h3.933a.878.878,0,0,1,.855.855v22.357A.891.891,0,0,1,197.538,322.971Z" transform="translate(-192.15 -290.718)" fill="#fff"/>
          <path id="Path_543" data-name="Path 543" d="M296.253,313.777a6.664,6.664,0,0,1-.509,2.624,5.639,5.639,0,0,1-1.561,2.112,7.594,7.594,0,0,1-2.629,1.408,11.926,11.926,0,0,1-3.676.512q-.641,0-1.561-.042t-1.988-.151q-1.069-.109-2.138-.26a14.352,14.352,0,0,1-1.971-.409.957.957,0,0,1-.812-.992v-2.589a.694.694,0,0,1,.727-.686h.173q.769.087,1.821.173t2.073.15q1.026.064,1.924.107t1.368.042a6.8,6.8,0,0,0,1.582-.148,2.225,2.225,0,0,0,.919-.427,1.341,1.341,0,0,0,.428-.662,3.046,3.046,0,0,0,.107-.81,1.543,1.543,0,0,0-.428-1.067,7.013,7.013,0,0,0-1.458-1.112l-5.856-3.583a8.311,8.311,0,0,1-2.587-2.5,6,6,0,0,1-1-3.391q0-6.4,8.122-6.4,1.283,0,2.33.065t1.944.194q.9.129,1.71.28t1.624.323a.911.911,0,0,1,.769.992v2.5c0,.544-.228.814-.684.814h-.173q-.428-.087-1.261-.173t-1.817-.149q-.984-.065-2.03-.128t-1.945-.064a4.7,4.7,0,0,0-2.244.405,1.471,1.471,0,0,0-.706,1.388,1.148,1.148,0,0,0,.449.9,8.55,8.55,0,0,0,1.265.853l5.6,3.413a10.541,10.541,0,0,1,2.159,1.621,7.711,7.711,0,0,1,1.238,1.624,4.945,4.945,0,0,1,.577,1.622A10.418,10.418,0,0,1,296.253,313.777Z" transform="translate(-271.646 -287.558)" fill="#fff"/>
          <path id="Path_544" data-name="Path 544" d="M513.908,314.077a9.447,9.447,0,0,1-1.945,3.356,9.008,9.008,0,0,1-3.185,2.224,12.456,12.456,0,0,1-8.846,0,9.019,9.019,0,0,1-3.185-2.224,9.447,9.447,0,0,1-1.945-3.356,13.085,13.085,0,0,1-.662-4.25v-3.467a13.1,13.1,0,0,1,.662-4.25,9.453,9.453,0,0,1,1.945-3.356,9.014,9.014,0,0,1,3.185-2.223,12.444,12.444,0,0,1,8.846,0,9,9,0,0,1,3.185,2.223,9.455,9.455,0,0,1,1.945,3.356,13.127,13.127,0,0,1,.663,4.25v3.463A13.123,13.123,0,0,1,513.908,314.077Zm-4.98-7.719a6.929,6.929,0,0,0-1.154-4.211,4.526,4.526,0,0,0-6.839,0,6.939,6.939,0,0,0-1.154,4.211v3.463a6.926,6.926,0,0,0,1.154,4.211,4.526,4.526,0,0,0,6.839,0,6.931,6.931,0,0,0,1.154-4.211Z" transform="translate(-467.949 -287.594)" fill="#fff"/>
          <path id="Path_545" data-name="Path 545" d="M776.034,300.211a.82.82,0,0,1-.6.26,11.2,11.2,0,0,0-3.142.406,14.685,14.685,0,0,0-2.756,1.129v17.185a.887.887,0,0,1-.26.619.79.79,0,0,1-.6.278h-3.93a.789.789,0,0,1-.6-.278.887.887,0,0,1-.26-.619V296.835a.878.878,0,0,1,.855-.855h3.719a.878.878,0,0,1,.855.855v.9a8.623,8.623,0,0,1,3.209-1.648,11.965,11.965,0,0,1,2.906-.4.878.878,0,0,1,.855.855v3.075A.821.821,0,0,1,776.034,300.211Z" transform="translate(-714.303 -287.558)" fill="#fff"/>
          <path id="Path_546" data-name="Path 546" d="M932.579,314.077a9.447,9.447,0,0,1-1.945,3.356,9.02,9.02,0,0,1-3.185,2.224,12.456,12.456,0,0,1-8.846,0,9.019,9.019,0,0,1-3.185-2.224,9.433,9.433,0,0,1-1.945-3.356,13.07,13.07,0,0,1-.663-4.25v-3.467a13.086,13.086,0,0,1,.663-4.25,9.441,9.441,0,0,1,1.945-3.356,9.013,9.013,0,0,1,3.185-2.223,12.444,12.444,0,0,1,8.846,0,9.014,9.014,0,0,1,3.185,2.223,9.455,9.455,0,0,1,1.945,3.356,13.126,13.126,0,0,1,.663,4.25v3.463A13.123,13.123,0,0,1,932.579,314.077Zm-4.98-7.719a6.929,6.929,0,0,0-1.154-4.211,4.527,4.527,0,0,0-6.84,0,6.927,6.927,0,0,0-1.154,4.211v3.463a6.931,6.931,0,0,0,1.154,4.211,4.527,4.527,0,0,0,6.84,0,6.931,6.931,0,0,0,1.154-4.211Z" transform="translate(-850.308 -287.594)" fill="#fff"/>
          <path id="Path_547" data-name="Path 547" d="M1193.921,232.061q-2.522,2.844-7.695,2.843a33.023,33.023,0,0,1-4.317-.3,36.586,36.586,0,0,1-4.275-.812,2.193,2.193,0,0,1-.941-.449,1.013,1.013,0,0,1-.214-.705V202.885a.878.878,0,0,1,.855-.855h3.932a.878.878,0,0,1,.855.855v7.566q1.2-.173,2.266-.235t1.838-.064q5.172,0,7.695,2.843t2.522,7.887v3.3Q1196.443,229.219,1193.921,232.061Zm-3.122-11.169a14.173,14.173,0,0,0-.193-2.423,5.194,5.194,0,0,0-.705-1.913,3.61,3.61,0,0,0-1.408-1.276,4.879,4.879,0,0,0-2.265-.467q-.769,0-1.988.087t-2.116.214v14.834a14.166,14.166,0,0,0,1.774.212q1.175.087,2.33.087a4.878,4.878,0,0,0,2.265-.467,3.6,3.6,0,0,0,1.411-1.275,5.2,5.2,0,0,0,.7-1.913,14.148,14.148,0,0,0,.193-2.423Z" transform="translate(-1091.11 -202.03)" fill="#fff"/>
          <path id="Path_548" data-name="Path 548" d="M1444.707,314.041a9.445,9.445,0,0,1-1.944,3.356,9.018,9.018,0,0,1-3.185,2.224,12.456,12.456,0,0,1-8.846,0,9.011,9.011,0,0,1-3.185-2.224,9.443,9.443,0,0,1-1.944-3.356,13.069,13.069,0,0,1-.663-4.25v-3.467a13.084,13.084,0,0,1,.663-4.25,9.45,9.45,0,0,1,1.944-3.359,9.009,9.009,0,0,1,3.186-2.223,12.443,12.443,0,0,1,8.846,0,9.02,9.02,0,0,1,3.185,2.223,9.453,9.453,0,0,1,1.945,3.356,13.127,13.127,0,0,1,.662,4.25v3.463A13.123,13.123,0,0,1,1444.707,314.041Zm-4.98-7.719a6.929,6.929,0,0,0-1.154-4.211,4.526,4.526,0,0,0-6.839,0,6.928,6.928,0,0,0-1.151,4.213v3.463a6.926,6.926,0,0,0,1.154,4.211,4.526,4.526,0,0,0,6.839,0,6.923,6.923,0,0,0,1.154-4.211Z" transform="translate(-1318.021 -287.558)" fill="#fff"/>
          <path id="Path_549" data-name="Path 549" d="M1680.916,270.167q-.77.129-1.474.213a11.831,11.831,0,0,1-1.432.087,15.859,15.859,0,0,1-3.084-.26,4.261,4.261,0,0,1-2.1-1,4.417,4.417,0,0,1-1.188-2.074,12.861,12.861,0,0,1-.381-3.462v-13.42l-4.018-.6a1.473,1.473,0,0,1-.6-.3.69.69,0,0,1-.26-.556V246.87a.878.878,0,0,1,.855-.855h4.018v-3.506a.693.693,0,0,1,.255-.556,1.467,1.467,0,0,1,.593-.3l3.947-.684h.169q.679,0,.679.641v4.4h3.847a.878.878,0,0,1,.855.855v2.522a.878.878,0,0,1-.855.855h-3.847V263.67c0,.542.014.969.042,1.283a1.563,1.563,0,0,0,.214.727.748.748,0,0,0,.513.32,4.986,4.986,0,0,0,.9.064h2.267q.9,0,.9.642v2.689Q1681.728,270.04,1680.916,270.167Z" transform="translate(-1538.519 -237.593)" fill="#fff"/>
        </g>
      </g>
      <ellipse id="Ellipse_8" data-name="Ellipse 8" cx="3.297" cy="3.252" rx="3.297" ry="3.252" transform="translate(0)" fill="#1893c4"/>
      <path id="Path_550" data-name="Path 550" d="M211.278,213.352a1.672,1.672,0,0,0-.308-.577,1.364,1.364,0,0,0-.5-.376,1.7,1.7,0,0,0-.694-.133,1.8,1.8,0,0,0-.689.126,1.339,1.339,0,0,0-.511.362,1.6,1.6,0,0,0-.315.573,2.192,2.192,0,0,0-.087.417h.887a.811.811,0,0,1,.189-.434.678.678,0,0,1,.526-.225.652.652,0,0,1,.52.229.968.968,0,0,1,.2.652v.029h-2.337v.617a2.082,2.082,0,0,0,.159.882,1.576,1.576,0,0,0,.4.552,1.406,1.406,0,0,0,.528.286,1.934,1.934,0,0,0,.538.082c.153,0,.287,0,.4-.007s.22-.012.317-.022.193-.023.288-.039l.3-.054c.063-.01.1-.029.119-.057a.28.28,0,0,0,.023-.129v-.473a.1.1,0,0,0-.034-.087.146.146,0,0,0-.087-.025h-.021q-.216.023-.544.047t-.7.025a.852.852,0,0,1-.4-.087.673.673,0,0,1-.247-.215.845.845,0,0,1-.128-.294,1.389,1.389,0,0,1-.037-.318v-.022h2.211c.087,0,.136-.06.136-.179v-.4A2.449,2.449,0,0,0,211.278,213.352Z" transform="translate(-206.47 -211.088)" fill="#fff"/>
    </g>
  </g>
</svg>
