<svg xmlns="http://www.w3.org/2000/svg" width="73.031" height="90" viewBox="0 0 73.031 90"><g transform="translate(-1470 -57)"><g transform="translate(1470 57)"><path d="M52.953,0H3.969a4,4,0,0,0-4,4V86a4,4,0,0,0,4,4h65a4,4,0,0,0,4-4L73,20.028C71.5,18.483,54.843,2,52.953,0Z" transform="translate(0.031)" fill="#5a6cee"/><path d="M0,0V14a6,6,0,0,0,6,6H20Z" transform="translate(53.031)" fill="#2d3a93"/></g><path d="M3.357-9.51l.079,1.063A3.342,3.342,0,0,1,6.17-9.686a2.536,2.536,0,0,1,2.522,1.45,3.265,3.265,0,0,1,2.856-1.45,2.836,2.836,0,0,1,2.3.9,4.141,4.141,0,0,1,.756,2.711V0H12.059V-6.064a1.811,1.811,0,0,0-.316-1.182,1.4,1.4,0,0,0-1.116-.374A1.585,1.585,0,0,0,9.044-6.53L9.053,0H6.513V-6.056a1.789,1.789,0,0,0-.325-1.2A1.416,1.416,0,0,0,5.08-7.62a1.646,1.646,0,0,0-1.564.9V0H.976V-9.51ZM16.163-4.843a5.64,5.64,0,0,1,.545-2.522,3.989,3.989,0,0,1,1.569-1.714,4.577,4.577,0,0,1,2.377-.606A4.33,4.33,0,0,1,23.8-8.508a4.727,4.727,0,0,1,1.358,3.2l.018.65A4.97,4.97,0,0,1,23.95-1.147,4.247,4.247,0,0,1,20.672.176a4.268,4.268,0,0,1-3.283-1.318,5.058,5.058,0,0,1-1.226-3.586Zm2.54.18a3.555,3.555,0,0,0,.51,2.073,1.682,1.682,0,0,0,1.459.717,1.686,1.686,0,0,0,1.441-.709,3.89,3.89,0,0,0,.519-2.267,3.519,3.519,0,0,0-.519-2.06,1.686,1.686,0,0,0-1.459-.731,1.658,1.658,0,0,0-1.441.726A3.955,3.955,0,0,0,18.7-4.662ZM30.164-3.1,31.931-9.51h2.654L31.377,0H28.951L25.743-9.51H28.4Z" transform="translate(1489.024 131.824)" fill="#2d3a93"/><path d="M5.134,29.553A4.341,4.341,0,0,1,.792,25.212V14.422a1.154,1.154,0,0,1,1.153-1.153h28.77a1.154,1.154,0,0,1,1.153,1.153v10.79a4.341,4.341,0,0,1-4.342,4.342ZM.941,11.832.01,7.843a.375.375,0,0,1,.3-.454l1.1-.2a.375.375,0,0,1,.332.1l3.516,3.465a.375.375,0,0,1-.19.635l-3.682.726a.375.375,0,0,1-.438-.283ZM9.215,10.4,5.856,6.962a.375.375,0,0,1,.2-.631l4.593-.843a.373.373,0,0,1,.331.1l3.411,3.36a.376.376,0,0,1-.191.636L9.555,10.5a.372.372,0,0,1-.34-.105Zm9.137-1.8-3.257-3.33a.374.374,0,0,1,.2-.631l4.256-.783a.373.373,0,0,1,.331.1L23.2,7.214a.376.376,0,0,1-.19.636L18.692,8.7a.375.375,0,0,1-.34-.106Zm8.8-1.735L23.992,3.627a.375.375,0,0,1,.2-.631l5.383-.99a.377.377,0,0,1,.439.317L30.529,6a.374.374,0,0,1-.3.419l-2.739.541a.372.372,0,0,1-.34-.105Z" transform="translate(1491 83.447)" fill="#2d3a93" stroke="rgba(0,0,0,0)" stroke-miterlimit="10" stroke-width="1"/></g></svg>