<svg xmlns="http://www.w3.org/2000/svg" width="73.031" height="90" viewBox="0 0 73.031 90"><g transform="translate(-1294 -57)"><g transform="translate(1294 57)"><path d="M52.953,0H3.969a4,4,0,0,0-4,4V86a4,4,0,0,0,4,4h65a4,4,0,0,0,4-4L73,20.028C71.5,18.483,54.843,2,52.953,0Z" transform="translate(0.031)" fill="#69d5ee"/><path d="M0,0V14a6,6,0,0,0,6,6H20Z" transform="translate(53.031)" fill="#1098b6"/></g><path d="M26.968,1.666A1.681,1.681,0,0,0,24.777.078L7.922,5a1.667,1.667,0,0,0-1.18,1.587V19.2A7.371,7.371,0,0,0,5.057,19C2.264,19,1,20.486,1,22.326S2.34,26.1,5.057,26.644s5.057-1.491,5.057-3.331V11.153L23.6,7.248v8.62a7.371,7.371,0,0,0-1.686-.2,4.156,4.156,0,0,0-4.057,4.319c0,1.84,2.264,3.331,5.057,3.331s4.057-1.491,4.057-3.331V1.666Z" transform="translate(1317 86.267)" fill="#0590af"/><path d="M3.357-9.51l.079,1.063A3.342,3.342,0,0,1,6.17-9.686a2.536,2.536,0,0,1,2.522,1.45,3.265,3.265,0,0,1,2.856-1.45,2.836,2.836,0,0,1,2.3.9,4.141,4.141,0,0,1,.756,2.711V0H12.059V-6.064a1.811,1.811,0,0,0-.316-1.182,1.4,1.4,0,0,0-1.116-.374A1.585,1.585,0,0,0,9.044-6.53L9.053,0H6.513V-6.056a1.789,1.789,0,0,0-.325-1.2A1.416,1.416,0,0,0,5.08-7.62a1.646,1.646,0,0,0-1.564.9V0H.976V-9.51ZM25.119-4.667a5.7,5.7,0,0,1-1,3.52A3.2,3.2,0,0,1,21.428.176a2.963,2.963,0,0,1-2.329-1V3.656h-2.54V-9.51h2.355L19-8.578A2.985,2.985,0,0,1,21.41-9.686a3.22,3.22,0,0,1,2.733,1.3A5.858,5.858,0,0,1,25.119-4.8Zm-2.54-.185a3.743,3.743,0,0,0-.47-2.048,1.532,1.532,0,0,0-1.367-.721,1.663,1.663,0,0,0-1.644.914v3.894a1.692,1.692,0,0,0,1.661.94Q22.579-1.872,22.579-4.852Zm6.592-2.672h1.354a1.907,1.907,0,0,0,1.433-.483,1.771,1.771,0,0,0,.466-1.283,1.566,1.566,0,0,0-.461-1.2,1.788,1.788,0,0,0-1.27-.431,1.874,1.874,0,0,0-1.222.4,1.279,1.279,0,0,0-.492,1.042h-2.54a3.124,3.124,0,0,1,.541-1.8,3.6,3.6,0,0,1,1.512-1.244,5.045,5.045,0,0,1,2.14-.448A4.785,4.785,0,0,1,33.812-12a3.314,3.314,0,0,1,1.151,2.676,2.693,2.693,0,0,1-.536,1.617,3.483,3.483,0,0,1-1.406,1.134,3.18,3.18,0,0,1,1.613,1.16,3.147,3.147,0,0,1,.532,1.828A3.369,3.369,0,0,1,33.921-.853,5,5,0,0,1,30.63.176,4.741,4.741,0,0,1,27.5-.835a3.3,3.3,0,0,1-1.217-2.672h2.54a1.472,1.472,0,0,0,.541,1.178,1.992,1.992,0,0,0,1.332.457,2,2,0,0,0,1.419-.479,1.654,1.654,0,0,0,.514-1.27q0-1.916-2.109-1.916H29.171Z" transform="translate(1312.024 131.773)" fill="#0590af"/></g></svg>