<svg xmlns="http://www.w3.org/2000/svg" width="73.031" height="90" viewBox="0 0 73.031 90"><g transform="translate(-942 -57)"><g transform="translate(942 57)"><path d="M52.953,0H3.969a4,4,0,0,0-4,4V86a4,4,0,0,0,4,4h65a4,4,0,0,0,4-4L73,20.028C71.5,18.483,54.843,2,52.953,0Z" transform="translate(0.031)" fill="#4f81ff"/><path d="M0,0V14a6,6,0,0,0,6,6H20Z" transform="translate(53.031)" fill="#143da7"/></g><path d="M3.357-9.51l.079,1.063A3.342,3.342,0,0,1,6.17-9.686a2.536,2.536,0,0,1,2.522,1.45,3.265,3.265,0,0,1,2.856-1.45,2.836,2.836,0,0,1,2.3.9,4.141,4.141,0,0,1,.756,2.711V0H12.059V-6.064a1.811,1.811,0,0,0-.316-1.182,1.4,1.4,0,0,0-1.116-.374A1.585,1.585,0,0,0,9.044-6.53L9.053,0H6.513V-6.056a1.789,1.789,0,0,0-.325-1.2A1.416,1.416,0,0,0,5.08-7.62a1.646,1.646,0,0,0-1.564.9V0H.976V-9.51ZM25.119-4.667a5.7,5.7,0,0,1-1,3.52A3.2,3.2,0,0,1,21.428.176a2.963,2.963,0,0,1-2.329-1V3.656h-2.54V-9.51h2.355L19-8.578A2.985,2.985,0,0,1,21.41-9.686a3.22,3.22,0,0,1,2.733,1.3A5.858,5.858,0,0,1,25.119-4.8Zm-2.54-.185a3.743,3.743,0,0,0-.47-2.048,1.532,1.532,0,0,0-1.367-.721,1.663,1.663,0,0,0-1.644.914v3.894a1.692,1.692,0,0,0,1.661.94Q22.579-1.872,22.579-4.852ZM34.1-4.816h1.45v2.048H34.1V0h-2.54V-2.769H26.314l-.114-1.6L31.535-12.8H34.1Zm-5.37,0h2.83V-9.334l-.167.29Z" transform="translate(960.024 131.824)" fill="#143da7"/><path d="M14.063.563a13.5,13.5,0,1,0,13.5,13.5A13.5,13.5,0,0,0,14.063.563ZM21.2,15.369l-9.581,5.5a1.309,1.309,0,0,1-1.943-1.143V8.4a1.31,1.31,0,0,1,1.943-1.143L21.2,13.083A1.311,1.311,0,0,1,21.2,15.369Z" transform="translate(964.438 85.438)" fill="#143da7"/></g></svg>