<svg xmlns="http://www.w3.org/2000/svg" width="73.031" height="90" viewBox="0 0 73.031 90"><g transform="translate(-759 -57)"><g transform="translate(759 57)"><path d="M52.953,0H3.969a4,4,0,0,0-4,4V86a4,4,0,0,0,4,4h65a4,4,0,0,0,4-4L73,20.028C71.5,18.483,54.843,2,52.953,0Z" transform="translate(0.031)" fill="#8585fc"/><path d="M0,0V14a6,6,0,0,0,6,6H20Z" transform="translate(53)" fill="#52529a"/></g><path d="M3.357-9.51l.079,1.063A3.342,3.342,0,0,1,6.17-9.686a2.536,2.536,0,0,1,2.522,1.45,3.265,3.265,0,0,1,2.856-1.45,2.836,2.836,0,0,1,2.3.9,4.141,4.141,0,0,1,.756,2.711V0H12.059V-6.064a1.811,1.811,0,0,0-.316-1.182,1.4,1.4,0,0,0-1.116-.374A1.585,1.585,0,0,0,9.044-6.53L9.053,0H6.513V-6.056a1.789,1.789,0,0,0-.325-1.2A1.416,1.416,0,0,0,5.08-7.62a1.646,1.646,0,0,0-1.564.9V0H.976V-9.51ZM25.119-4.667a5.7,5.7,0,0,1-1,3.52A3.2,3.2,0,0,1,21.428.176a2.963,2.963,0,0,1-2.329-1V3.656h-2.54V-9.51h2.355L19-8.578A2.985,2.985,0,0,1,21.41-9.686a3.22,3.22,0,0,1,2.733,1.3A5.858,5.858,0,0,1,25.119-4.8Zm-2.54-.185a3.743,3.743,0,0,0-.47-2.048,1.532,1.532,0,0,0-1.367-.721,1.663,1.663,0,0,0-1.644.914v3.894a1.692,1.692,0,0,0,1.661.94Q22.579-1.872,22.579-4.852ZM31.069.176a4.668,4.668,0,0,1-3.406-1.283A4.561,4.561,0,0,1,26.35-4.526v-.246A5.745,5.745,0,0,1,26.9-7.334a4.064,4.064,0,0,1,1.569-1.74,4.4,4.4,0,0,1,2.316-.611,3.947,3.947,0,0,1,3.072,1.23A5,5,0,0,1,34.98-4.966v1.037H28.925a2.36,2.36,0,0,0,.743,1.494,2.245,2.245,0,0,0,1.569.563A2.742,2.742,0,0,0,33.53-2.936l1.248,1.4A3.813,3.813,0,0,1,33.231-.277,5.075,5.075,0,0,1,31.069.176Zm-.29-7.813a1.587,1.587,0,0,0-1.226.512,2.651,2.651,0,0,0-.6,1.466h3.533v-.2a1.891,1.891,0,0,0-.457-1.311A1.638,1.638,0,0,0,30.779-7.638Zm5.273,2.813A5.573,5.573,0,0,1,37.094-8.35,3.375,3.375,0,0,1,39.9-9.686a2.96,2.96,0,0,1,2.435,1.072l.105-.9h2.3V-.316a4.064,4.064,0,0,1-.567,2.171,3.641,3.641,0,0,1-1.6,1.406,5.608,5.608,0,0,1-2.408.483,5.215,5.215,0,0,1-2.039-.417,3.619,3.619,0,0,1-1.5-1.077L37.758.7a2.975,2.975,0,0,0,2.3,1.063,2.178,2.178,0,0,0,1.573-.541A2.027,2.027,0,0,0,42.2-.308v-.51a2.938,2.938,0,0,1-2.312.993,3.366,3.366,0,0,1-2.773-1.34A5.572,5.572,0,0,1,36.053-4.72Zm2.54.189a3.47,3.47,0,0,0,.519,2.029,1.65,1.65,0,0,0,1.424.735A1.764,1.764,0,0,0,42.2-2.744V-6.749a1.76,1.76,0,0,0-1.644-.871,1.66,1.66,0,0,0-1.437.748A3.911,3.911,0,0,0,38.593-4.636Z" transform="translate(773.024 131.686)" fill="#52529a"/><path d="M34.645,0H9.117A1.835,1.835,0,0,0,7.294,1.846L7.247,5.4h9.117l.047-1.708H27.351v18.46h7.294a1.835,1.835,0,0,0,1.823-1.846V1.846A1.835,1.835,0,0,0,34.645,0ZM33.277,17.94a.516.516,0,0,1-.513.519H31.055a.516.516,0,0,1-.513-.519V16.21a.516.516,0,0,1,.513-.519h1.709a.516.516,0,0,1,.513.519Zm0-6a.516.516,0,0,1-.513.519H31.055a.516.516,0,0,1-.513-.519V10.21a.516.516,0,0,1,.513-.519h1.709a.516.516,0,0,1,.513.519Zm0-6a.516.516,0,0,1-.513.519H31.055a.516.516,0,0,1-.513-.519V4.211a.516.516,0,0,1,.513-.519h1.709a.516.516,0,0,1,.513.519Zm-9.565.872H1.832A1.835,1.835,0,0,0,.008,8.66V25.273a1.835,1.835,0,0,0,1.823,1.846H23.713a1.835,1.835,0,0,0,1.823-1.846V8.66A1.835,1.835,0,0,0,23.713,6.814ZM5.478,10.505a1.846,1.846,0,1,1-1.823,1.846,1.835,1.835,0,0,1,1.823-1.846ZM21.889,23.427H3.655V21.581L7.3,17.889l1.823,1.846,7.294-7.384,5.47,5.538Z" transform="translate(776.992 85.881)" fill="#52529a"/></g></svg>