<svg xmlns="http://www.w3.org/2000/svg" width="136.907" height="107.086" viewBox="0 0 136.907 107.086">
  <g id="No_User" data-name="No User" transform="translate(-631 -275)">
    <path id="Path_977" data-name="Path 977" d="M63.591,42.793a1,1,0,0,1-1-1v-5.33a1,1,0,0,1,1-1,.985.985,0,0,1,.985,1v5.33a.985.985,0,0,1-.985,1Z" transform="translate(665.04 281.044)" fill="#6e8c97"/>
    <path id="Path_978" data-name="Path 978" d="M67.271,39.107H61.925a.993.993,0,0,1,0-1.987h5.346a.985.985,0,0,1,1,.985A1,1,0,0,1,67.271,39.107Z" transform="translate(664.026 282.064)" fill="#6e8c97"/>
    <path id="Path_979" data-name="Path 979" d="M22.788,52.4a1.264,1.264,0,0,1-1.241-1.264v-6.72a1.264,1.264,0,1,1,2.505,0v6.72A1.264,1.264,0,0,1,22.788,52.4Z" transform="translate(622.262 286.073)" fill="#6e8c97"/>
    <path id="Path_980" data-name="Path 980" d="M28,47H21.256a1.264,1.264,0,0,1,0-2.505H28A1.264,1.264,0,1,1,28,47Z" transform="translate(620.423 288.096)" fill="#6e8c97"/>
    <path id="Path_981" data-name="Path 981" d="M37.557,58.041a1.127,1.127,0,0,1-1.127-1.127V50.9a1.127,1.127,0,0,1,1.127-1.127A1.1,1.1,0,0,1,38.683,50.9v6.069a1.1,1.1,0,0,1-1.127,1.075Z" transform="translate(640.641 295.983)" fill="#d7e1e3"/>
    <path id="Path_982" data-name="Path 982" d="M42.372,53.229H36.278a1.152,1.152,0,0,1,0-2.279h6.094a1.152,1.152,0,0,1,0,2.279Z" transform="translate(638.872 297.825)" fill="#d7e1e3"/>
    <path id="Path_985" data-name="Path 985" d="M151.407,66.765c0,6.519-30.641,11.952-68.454,11.952S14.5,73.371,14.5,66.765c0-3.52,8.693-6.693,22.6-8.866l1.891-.283h1.172l.152.283a27.173,27.173,0,0,0,.391,3.279l58.011.406C98.478,61,97.8,58.42,97.6,57.789a2.727,2.727,0,0,0-.152-.565,12.713,12.713,0,0,1-.435-1.847.782.782,0,0,1,0-.217l-.836,1.589.5.892c.1.629.12.031.335.631,0,.2.543,1.348.587,1.544,2.485,7.041,11.886,11.99,19.348,12.235s14.519-5.785,17.461-12.647l.385-.5C144.27,60.969,151.407,63.918,151.407,66.765Z" transform="translate(616.5 303.369)" fill="#eef1f2"/>
    <path id="Path_986" data-name="Path 986" d="M102.035,52.279l-.782-1.021c-5.02-6.237-12.778-10.627-23.013-13.039a1.173,1.173,0,0,0-1.087.283,16.233,16.233,0,0,1-16.212,2.608A14.538,14.538,0,0,1,56.595,38.5a1.13,1.13,0,0,0-1.065-.283C43.4,41.153,34.842,46.759,30.061,54.843a32.184,32.184,0,0,0-4.346,17.515.826.826,0,0,0,0,.326,37.528,37.528,0,0,0,.478,4.89,17.906,17.906,0,0,0,.608,2.716,1.087,1.087,0,0,0,1.108.8l.608-1.565.565.891.565.913a14.716,14.716,0,0,0-.369-1.8c-.152-.782-.239-1.456-.348-2.347a45.942,45.942,0,0,1-.391-5.107v-.348a30.141,30.141,0,0,1,3.542-15.886c4.346-7.215,11.974-12.365,22.774-15.212a24.926,24.926,0,0,0,8.953,3.477,22.666,22.666,0,0,0,3.086.217h0a22.577,22.577,0,0,0,3.064-.217,25.165,25.165,0,0,0,8.975-3.477A38.812,38.812,0,0,1,98.71,51.8a8.256,8.256,0,0,1,.717.8c.3.391-.3.054,0,.488.35-.088,1.181-.1,1.54-.142l.811.142a12.364,12.364,0,0,1,1.235-.219C102.731,52.244,102.426,52.67,102.035,52.279Z" transform="translate(628.629 284.45)" fill="#d7e1e3"/>
    <path id="Path_987" data-name="Path 987" d="M101.247,52.295c-.522-.63-1.065-1.26-1.652-1.847A42.593,42.593,0,0,0,78.233,39.169a1.173,1.173,0,0,0-1.087.283,16.233,16.233,0,0,1-16.212,2.608,14.539,14.539,0,0,1-4.346-2.608,1.13,1.13,0,0,0-1.065-.283C43.4,42.1,34.836,47.709,30.055,55.793a30.859,30.859,0,0,0-3.933,11.083,34.248,34.248,0,0,0-.413,4.346.826.826,0,0,0,0,.326,42.813,42.813,0,0,0,.174,4.933,18.91,18.91,0,0,0,.709,3.467h1.575l.345.618.174-.238h.567l-.176-1.023a2.22,2.22,0,0,0-.13-.891c0-.717-.2-1.5-.261-2.325a46.179,46.179,0,0,1-.152-5.129v-.348A28.62,28.62,0,0,1,32.076,56.88C36.422,49.665,44.05,44.515,54.85,41.668A24.926,24.926,0,0,0,63.8,45.145a22.664,22.664,0,0,0,3.086.217h0a22.577,22.577,0,0,0,3.064-.217,25.165,25.165,0,0,0,8.975-3.477,40.485,40.485,0,0,1,18.189,9.518c.565.543,1.087,1.087,1.586,1.652l.079-.13c.456-.152,1.035-.226,1.513-.335.35-.088,1.221-.6,1.58-.639C101.837,51.654,101.309,52.358,101.247,52.295Z" transform="translate(628.634 285.565)" fill="#d7e1e3"/>
    <path id="Path_988" data-name="Path 988" d="M58.766,59.426H56.615a20.558,20.558,0,0,1,0-40.9h2.151a20.232,20.232,0,0,1,4.759.565c1.752.409,1.618,1.223,3.2,2.083-3.411-2.8-5.911-2.848-10.3-3.334l-.783-.609c-3.972.552-7.859,1.041-11,3.533h0a22.883,22.883,0,0,0,0,36.074h0c3.141,2.493,5.765,3.927,9.737,4.478l1.936-.261a21.668,21.668,0,0,0,11.72-4.507,17.524,17.524,0,0,1-4.508,2.2,20.233,20.233,0,0,1-4.759.674Z" transform="translate(640.539 258.462)" fill="#d7e1e3"/>
    <path id="Path_989" data-name="Path 989" d="M57.755,59.311H55.6a20.558,20.558,0,0,1,0-40.9h3.108a20.58,20.58,0,0,1,8.823,2.456,21.015,21.015,0,0,0-2.847-1.912c-2.471-1.421-5.194-.645-8.019-1.032l-1.188-.656c-4.356.421-8.4.887-11.829,3.6h0a22.883,22.883,0,0,0,0,36.074h0c3.433,2.714,7.6,3.579,11.952,4l1.065.65a22.1,22.1,0,0,0,8.019-2.738,21.015,21.015,0,0,0,2.847-1.912,20.58,20.58,0,0,1-8.823,2.369Z" transform="translate(639.377 258.577)" fill="#d7e1e3"/>
    <line id="Line_30" data-name="Line 30" x1="13.3" y1="13.3" transform="translate(728.252 349.377)" fill="none"/>
    <line id="Line_31" data-name="Line 31" y1="13.3" x2="13.3" transform="translate(728.252 349.377)" fill="none"/>
    <path id="Path_991" data-name="Path 991" d="M74.371,51.809,68.5,57.7l-.782.761-.3.326-.456.456-.326.3-.761.782-2.043,2.021-2.76,2.825a1.13,1.13,0,0,1-1.543,0,1.347,1.347,0,0,1-.239-.369h0a1.087,1.087,0,0,1,.239-1.152l1.478-1.478,3.325-3.3.761-.782.326-.3.456-.456.3-.326.782-.761,5.476-5.5.391-.391a1.087,1.087,0,0,1,1.543,0,1.108,1.108,0,0,1,0,1.456Z" transform="translate(665.789 298.565)" fill="#d7e1e3"/>
    <line id="Line_32" data-name="Line 32" x1="13.3" y1="13.3" transform="translate(726.078 349.377)" fill="none"/>
    <line id="Line_33" data-name="Line 33" y1="13.3" x2="13.3" transform="translate(726.078 349.377)" fill="none"/>
    <path id="Path_990" data-name="Path 990" d="M74.371,65.186a1.13,1.13,0,0,1-1.543,0L70.85,63.208l-3.89-3.89-.782-.782-.3-.3-.456-.456-5.889-5.889a1.087,1.087,0,0,1-.239-1.152.956.956,0,0,1,.239-.391,1.087,1.087,0,0,1,1.543,0l4.8,4.8.761.761.326.326.456.456,6.954,6.954h0A1.108,1.108,0,0,1,74.371,65.186Z" transform="translate(665.749 298.064)" fill="#d7e1e3"/>
    <g id="Group_17" data-name="Group 17" transform="translate(723.644 348.086)">
      <path id="Path_992" data-name="Path 992" d="M73.589,64.684a.848.848,0,0,1-.217.413,1.13,1.13,0,0,1-1.543,0l-2.282-2.173-2.5-2.5-.782-.782-.3-.3-.456-.456-6.976-6.976a1.108,1.108,0,0,1,0-1.543,1.087,1.087,0,0,1,1.543,0l.391.391,5.5,5.5.761.761.326.326.456.456,5.867,5.867a1,1,0,0,1,.217,1.021Z" transform="translate(-58.216 -49.725)" fill="#6e8c97"/>
      <path id="Path_993" data-name="Path 993" d="M73.359,51.868l-4.759,4.8-.782.761-.3.326-.456.456-.326.3-.761.782-2.934,2.912-2.564,2.564h0l-.391.369a1.13,1.13,0,0,1-1.543,0,1.108,1.108,0,0,1,0-1.543l1.652-1.652,4.346-4.216.761-.782.326-.3.456-.456.3-.326.782-.761,4.781-4.8a1.087,1.087,0,0,1,1.543,0,1.26,1.26,0,0,1,.239.391,1.087,1.087,0,0,1-.369,1.173Z" transform="translate(-58.205 -49.982)" fill="#6e8c97"/>
    </g>
    <path id="Path_994" data-name="Path 994" d="M104.158,52.361C98.986,45.1,90.619,40.017,79.406,37.149a1.217,1.217,0,0,0-1.13.3,16.538,16.538,0,0,1-16.864,2.8,14.842,14.842,0,0,1-4.542-2.8,1.217,1.217,0,0,0-1.13-.3c-12.6,3.151-21.514,9.149-26.49,17.8a37.074,37.074,0,0,0-4.064,24.122,21.276,21.276,0,0,0,.674,3.173,1.152,1.152,0,0,0,1.152.869H88.055a9.779,9.779,0,0,1-.478-1.825,1.869,1.869,0,0,1,0-.587H27.946c-.109-.478-.239-1.152-.369-2a39.812,39.812,0,0,1-.261-9.453,31.815,31.815,0,0,1,4.02-13.039c4.477-7.736,12.474-13.256,23.687-16.3a25.274,25.274,0,0,0,9.323,3.716,21.21,21.21,0,0,0,3.194.239h0a20.69,20.69,0,0,0,3.173-.239,25.208,25.208,0,0,0,9.344-3.716c9.431,2.564,16.581,6.867,21.318,12.8a24.9,24.9,0,0,1,1.5,2.173,10.651,10.651,0,0,1,1.173,0,9.455,9.455,0,0,1,1.108,0h.652a17.255,17.255,0,0,0-1.652-2.521Z" transform="translate(627.419 283.195)" fill="#6e8c97"/>
    <g id="Ellipse_27" data-name="Ellipse 27" transform="translate(672.175 275)" fill="none" stroke="#6e8c97" stroke-width="2.4">
      <circle cx="22.646" cy="22.646" r="22.646" stroke="none"/>
      <circle cx="22.646" cy="22.646" r="21.446" fill="none"/>
    </g>
    <g id="Ellipse_29" data-name="Ellipse 29" transform="translate(711.291 335.733)" fill="none" stroke="#6e8c97" stroke-width="2.3">
      <circle cx="20.588" cy="20.588" r="20.588" stroke="none"/>
      <circle cx="20.588" cy="20.588" r="19.438" fill="none"/>
    </g>
  </g>
</svg>
