<svg xmlns="http://www.w3.org/2000/svg" width="129.872" height="155.571" viewBox="0 0 129.872 155.571">
  <g id="Group_6502" data-name="Group 6502" transform="translate(-687.999 -1641.218)">
    <ellipse id="Ellipse_281" data-name="Ellipse 281" cx="42.818" cy="7.124" rx="42.818" ry="7.124" transform="translate(710.118 1782.54)" fill="#ebeff0"/>
    <g id="Group_6501" data-name="Group 6501" transform="translate(-25.852)">
      <g id="Group_6500" data-name="Group 6500" transform="translate(699.852 1641.218)">
        <g id="Group_6499" data-name="Group 6499">
          <path id="Union_262" data-name="Union 262" d="M19.477-24.029v-3.428H16.042A2.04,2.04,0,0,1,14-29.495a2.04,2.04,0,0,1,2.042-2.038h3.435v-3.428A2.04,2.04,0,0,1,21.519-37a2.04,2.04,0,0,1,2.043,2.038v3.428H26.81a2.04,2.04,0,0,1,2.042,2.038,2.04,2.04,0,0,1-2.042,2.038H23.562v3.428a2.04,2.04,0,0,1-2.043,2.038A2.04,2.04,0,0,1,19.477-24.029Z" transform="translate(0 37.492)" fill="#d7e1e3"/>
          <path id="Union_267" data-name="Union 267" d="M3.223,7.885V5.853H1.209a1.219,1.219,0,0,1,0-2.437H3.223V1.384A1.224,1.224,0,0,1,3.769.191a1.206,1.206,0,0,1,1.3,0,1.226,1.226,0,0,1,.546,1.193V3.415H7.654a1.219,1.219,0,0,1,0,2.438H5.618V7.84a1.2,1.2,0,0,1-.332.875,1.183,1.183,0,0,1-.854.366A1.213,1.213,0,0,1,3.223,7.885Z" transform="translate(135.009 60.116)" fill="#6f8a95"/>
          <path id="Path_2719" data-name="Path 2719" d="M127.73,82.545V53.794a42.539,42.539,0,0,0-25.145-39.121c-.032-9.036-31.756-9.035-31.788,0A42.539,42.539,0,0,0,45.652,53.794l-.635,28.751C45.008,83.232,127.74,83.232,127.73,82.545ZM86.691,8.884c3.956,0,7.3-.387,8.347,3.359a39.89,39.89,0,0,0-16.693,0C79.391,8.5,82.736,8.884,86.691,8.884ZM48.923,82.545l.635-28.774c0-19.289,18.478-38.273,37.133-38.273s37.275,19.007,37.275,38.3l1.847,28.751C125.818,83.105,48.918,83.119,48.923,82.545Z" transform="translate(-8.289 2.919)" fill="#d5dfe1"/>
          <path id="Path_2724" data-name="Path 2724" d="M21.1,23.8A21.122,21.122,0,0,1,0,2.7a2.7,2.7,0,1,1,5.408,0A15.708,15.708,0,0,0,21.1,18.395a2.7,2.7,0,1,1,0,5.408Z" transform="translate(105.711 52.5) rotate(-173)" fill="#d5dfe1"/>
          <path id="Path_2719-2" data-name="Path 2719" d="M147.97,107.572c-14.041-6.341-14.575-33.559-14.586-34.246V55.066c0-17.575-11.955-32.687-27.216-39.121C106.169,10.25,99.992,2,90.95,2S75.731,11.467,75.731,15.944c-15.26,6.435-27.215,21.547-27.215,39.121v18.26c-.01.687-.544,27.9-14.586,34.246a3.726,3.726,0,0,0,1.534,7.122h35.6a20.942,20.942,0,0,0,5.531,10.774,19.659,19.659,0,0,0,28.715,0,20.938,20.938,0,0,0,5.531-10.774h35.6a3.726,3.726,0,0,0,1.535-7.121Zm-16.9-15.47c1.476,4.475,7.213,13.832,10.177,17.572H40.653c2.963-3.739,8.7-13.1,10.177-17.572ZM90.95,7.02a9,9,0,0,1,8.631,6.495,42.618,42.618,0,0,0-17.261,0A9,9,0,0,1,90.95,7.02Zm-38.4,66.305V55.042c0-19.289,19.106-38.273,38.4-38.273s38.543,19.007,38.543,38.3V73.379a77.763,77.763,0,0,0,1.577,13.7l-80.092-.023A77.819,77.819,0,0,0,52.555,73.326Zm38.4,52.517c-8.258,0-12.246-5.7-13.839-11.149h27.678C103.2,120.146,99.208,125.842,90.95,125.842Z" transform="translate(-13.584 -2)" fill="#6f8a95"/>
        </g>
      </g>
    </g>
  </g>
</svg>
