<svg xmlns="http://www.w3.org/2000/svg" xmlns:xlink="http://www.w3.org/1999/xlink" width="55" height="40" viewBox="0 0 55 40">
  <defs>
    <clipPath id="clip-path">
      <rect id="Rectangle_1996" data-name="Rectangle 1996" width="50" height="36"/>
    </clipPath>
    <clipPath id="clip-Offline_Icon_">
      <rect width="55" height="40"/>
    </clipPath>
  </defs>
  <g id="Offline_Icon_" data-name="Offline Icon " clip-path="url(#clip-Offline_Icon_)">
    <g id="Offline" transform="translate(2 2)" clip-path="url(#clip-path)">
      <g id="Group_7298" data-name="Group 7298" transform="translate(-675.098 -417.09)">
        <g id="Group_7186" data-name="Group 7186" transform="translate(677 418.384)">
          <g id="noun_wifi_68272">
            <path id="Path_2099" data-name="Path 2099" d="M43.7,51.4a7.7,7.7,0,1,1,7.7-7.7,7.7,7.7,0,0,1-7.7,7.7Zm0-12.832A5.133,5.133,0,1,0,48.832,43.7,5.133,5.133,0,0,0,43.7,38.568Z" transform="translate(-20.601 -26.995)" fill="#33475b"/>
            <path id="Path_2102" data-name="Path 2102" d="M19.676,55.377A1.289,1.289,0,0,1,18.768,55a23.092,23.092,0,0,1,0-32.663,1.285,1.285,0,1,1,1.817,1.817,20.524,20.524,0,0,0,0,29.029,1.284,1.284,0,0,1,0,1.814,1.271,1.271,0,0,1-.909.38Z" transform="translate(-12 -21.965)" fill="#33475b"/>
            <path id="Path_2103" data-name="Path 2103" d="M71.323,55.377a1.282,1.282,0,0,1-.909-2.189,20.521,20.521,0,0,0,0-29.032,1.286,1.286,0,1,1,1.82-1.817,23.1,23.1,0,0,1,0,32.66,1.278,1.278,0,0,1-.911.377Z" transform="translate(-32.801 -21.965)" fill="#33475b"/>
            <path id="Path_2104" data-name="Path 2104" d="M29.418,52.973a1.278,1.278,0,0,1-.909-.375,15.4,15.4,0,0,1,0-21.776,1.283,1.283,0,1,1,1.814,1.814,12.835,12.835,0,0,0,0,18.147,1.284,1.284,0,0,1,0,1.814,1.27,1.27,0,0,1-.905.376Z" transform="translate(-16.301 -25.005)" fill="#33475b"/>
            <path id="Path_2105" data-name="Path 2105" d="M62.844,52.973a1.265,1.265,0,0,1-.909-.375,1.284,1.284,0,0,1,0-1.814,12.835,12.835,0,0,0-.005-18.147,1.283,1.283,0,1,1,1.814-1.814,15.394,15.394,0,0,1,0,21.776A1.267,1.267,0,0,1,62.844,52.973Z" transform="translate(-29.76 -25.005)" fill="#33475b"/>
          </g>
          <g id="Ellipse_284" data-name="Ellipse 284" transform="translate(16.822 9.84)" fill="#33475b" stroke="#33475b" stroke-width="1.5">
            <circle cx="7.009" cy="7.009" r="7.009" stroke="none"/>
            <circle cx="7.009" cy="7.009" r="6.259" fill="none"/>
          </g>
        </g>
      </g>
      <path id="Path_2106" data-name="Path 2106" d="M0,0,46.8,33.162" transform="translate(3.2)" fill="none" stroke="#fff" stroke-linecap="round" stroke-width="1.1"/>
      <line id="Line_251" data-name="Line 251" x2="44.897" y2="31.56" transform="translate(2.603 1.94)" fill="none" stroke="#33475b" stroke-linecap="round" stroke-width="3"/>
    </g>
  </g>
</svg>
