<svg xmlns="http://www.w3.org/2000/svg" width="73.031" height="90" viewBox="0 0 73.031 90"><g transform="translate(-1382 -57)"><g transform="translate(2577 289)"><path d="M52.953,0H3.969a4,4,0,0,0-4,4V86a4,4,0,0,0,4,4h65a4,4,0,0,0,4-4L73,20.028C71.5,18.483,54.843,2,52.953,0Z" transform="translate(-1194.969 -232)" fill="#ff9852"/><path d="M0,0V14a6,6,0,0,0,6,6H20Z" transform="translate(-1141.969 -232)" fill="#c26527"/></g><path d="M14.977,17.886c4.611,0,5.957-1.653,6.216-2.054l-1.669-5.319c-.442.417-1.629,1.15-4.516,1.15-2.813,0-3.912-.7-4.32-1.117L8.982,15.973c.28.443,1.54,1.914,5.995,1.914Zm.032-10.214a7.539,7.539,0,0,0,2.916-.622L16.871,3.695a.958.958,0,0,0-.5-.536S16.232,3,15.15,3s-1.295.167-1.295.167a.9.9,0,0,0-.5.528L12.267,7.149a8.308,8.308,0,0,0,2.742.523Zm13.1,21.491a.485.485,0,0,0-.02-.2L25.223,19.6a.794.794,0,0,0-.715-.529H22.466l.245.785c-.295.6-1.826,2.921-7.735,2.921-5.645,0-7.152-2.123-7.5-2.832l.274-.874H5.714A.794.794,0,0,0,5,19.6L2.134,28.968a.488.488,0,0,0-.021.184l0,.025a2.262,2.262,0,0,0,.029.277A.648.648,0,0,0,2.766,30h24.69a.648.648,0,0,0,.626-.546,2.261,2.261,0,0,0,.028-.277Z" transform="translate(1403.89 83)" fill="#c26527"/><path d="M.58-4.843a5.64,5.64,0,0,1,.545-2.522A3.989,3.989,0,0,1,2.694-9.079a4.577,4.577,0,0,1,2.377-.606A4.33,4.33,0,0,1,8.213-8.508a4.727,4.727,0,0,1,1.358,3.2l.018.65A4.97,4.97,0,0,1,8.367-1.147,4.247,4.247,0,0,1,5.089.176,4.268,4.268,0,0,1,1.806-1.143,5.058,5.058,0,0,1,.58-4.729Zm2.54.18a3.555,3.555,0,0,0,.51,2.073,1.682,1.682,0,0,0,1.459.717A1.686,1.686,0,0,0,6.53-2.581a3.89,3.89,0,0,0,.519-2.267,3.519,3.519,0,0,0-.519-2.06,1.686,1.686,0,0,0-1.459-.731,1.658,1.658,0,0,0-1.441.726A3.955,3.955,0,0,0,3.12-4.662Zm7.664-.163A5.573,5.573,0,0,1,11.826-8.35a3.375,3.375,0,0,1,2.808-1.336,2.96,2.96,0,0,1,2.435,1.072l.105-.9h2.3V-.316a4.064,4.064,0,0,1-.567,2.171,3.641,3.641,0,0,1-1.6,1.406,5.608,5.608,0,0,1-2.408.483,5.215,5.215,0,0,1-2.039-.417,3.619,3.619,0,0,1-1.5-1.077L12.489.7a2.975,2.975,0,0,0,2.3,1.063,2.178,2.178,0,0,0,1.573-.541,2.027,2.027,0,0,0,.563-1.534v-.51a2.938,2.938,0,0,1-2.312.993,3.366,3.366,0,0,1-2.773-1.34A5.572,5.572,0,0,1,10.784-4.72Zm2.54.189a3.47,3.47,0,0,0,.519,2.029,1.65,1.65,0,0,0,1.424.735,1.764,1.764,0,0,0,1.661-.871V-6.749a1.76,1.76,0,0,0-1.644-.871,1.66,1.66,0,0,0-1.437.748A3.911,3.911,0,0,0,13.324-4.636Zm7.734-.189A5.573,5.573,0,0,1,22.1-8.35a3.375,3.375,0,0,1,2.808-1.336,2.96,2.96,0,0,1,2.435,1.072l.105-.9h2.3V-.316a4.064,4.064,0,0,1-.567,2.171,3.641,3.641,0,0,1-1.6,1.406,5.608,5.608,0,0,1-2.408.483,5.215,5.215,0,0,1-2.039-.417,3.619,3.619,0,0,1-1.5-1.077L22.764.7a2.975,2.975,0,0,0,2.3,1.063,2.178,2.178,0,0,0,1.573-.541A2.027,2.027,0,0,0,27.2-.308v-.51a2.938,2.938,0,0,1-2.312.993,3.366,3.366,0,0,1-2.773-1.34A5.572,5.572,0,0,1,21.059-4.72Zm2.54.189a3.47,3.47,0,0,0,.519,2.029,1.65,1.65,0,0,0,1.424.735A1.764,1.764,0,0,0,27.2-2.744V-6.749a1.76,1.76,0,0,0-1.644-.871,1.66,1.66,0,0,0-1.437.748A3.911,3.911,0,0,0,23.6-4.636Z" transform="translate(1403.42 131.686)" fill="#c26527"/></g></svg>