<svg xmlns="http://www.w3.org/2000/svg" width="73.031" height="90" viewBox="0 0 73.031 90"><g transform="translate(-242 -57)"><path d="M52.953,0H3.969a4,4,0,0,0-4,4V86a4,4,0,0,0,4,4h65a4,4,0,0,0,4-4L73,20.028C71.5,18.483,54.843,2,52.953,0Z" transform="translate(242.031 57)" fill="#e03333"/><path d="M0,0V14a6,6,0,0,0,6,6H20Z" transform="translate(295 57)" fill="#901010"/><path d="M2.738,29A3.264,3.264,0,0,1,.472,27.945a1.944,1.944,0,0,1-.426-1.693,6.115,6.115,0,0,1,2.412-3.1,23.6,23.6,0,0,1,3.758-2.382.013.013,0,0,0,.01-.005.014.014,0,0,1,.011-.006c1.3-2.282,3.142-6.292,4.3-9.051-.9-3.471-1.384-6.181-.854-8.123A2.4,2.4,0,0,1,12.1,2a2.56,2.56,0,0,1,2.626,2.3c.555,1.809-.15,4.7-.616,6.621l-.037.152a10.535,10.535,0,0,0,4.5,5.675,28.1,28.1,0,0,1,3.6-.264c2.067,0,3.467.345,4.161,1.024a2.952,2.952,0,0,1,.469,3.031,2.527,2.527,0,0,1-2.546,1.547,16.087,16.087,0,0,1-6.746-2.057,45.184,45.184,0,0,0-6.756,1.919l-.01,0c-.516.175-1.049.355-1.561.524C6.495,27.111,4.629,29,2.738,29ZM5.7,21.916c-.1.1-.246.225-.409.371-.961.86-2.748,2.459-3.269,3.87a.006.006,0,0,0,0,0,.014.014,0,0,0,.01,0c.134,0,1.514-.792,3.667-4.248h0Zm6.24-8.925a47.19,47.19,0,0,1-2.993,6.615c.472-.181.953-.379,1.462-.589A27.413,27.413,0,0,1,15.582,17.3a13.677,13.677,0,0,1-3.637-4.3ZM21.885,18c-.464,0-.975.02-1.519.059a10.8,10.8,0,0,0,3.858,1.1c.52,0,.653-.152.654-.153a.215.215,0,0,0,.1-.251C24.874,18.4,24,18,21.885,18ZM12.235,3.819a.066.066,0,0,0-.051.033,11.378,11.378,0,0,0,.261,4.915,7.56,7.56,0,0,0,.127-4.7A.407.407,0,0,0,12.235,3.819Z" transform="translate(265 84)" fill="#901010"/><path d="M9.536-4.667a5.7,5.7,0,0,1-1,3.52A3.2,3.2,0,0,1,5.845.176a2.963,2.963,0,0,1-2.329-1V3.656H.976V-9.51H3.331l.088.932A2.985,2.985,0,0,1,5.827-9.686a3.22,3.22,0,0,1,2.733,1.3A5.858,5.858,0,0,1,9.536-4.8ZM7-4.852A3.743,3.743,0,0,0,6.526-6.9,1.532,1.532,0,0,0,5.159-7.62a1.663,1.663,0,0,0-1.644.914v3.894a1.692,1.692,0,0,0,1.661.94Q7-1.872,7-4.852Zm3.718.026a5.731,5.731,0,0,1,1-3.542A3.237,3.237,0,0,1,14.44-9.686a2.913,2.913,0,0,1,2.294,1.037V-13.5h2.549V0H16.989l-.123-1.011A2.989,2.989,0,0,1,14.423.176a3.228,3.228,0,0,1-2.694-1.323A5.916,5.916,0,0,1,10.714-4.825Zm2.54.189a3.754,3.754,0,0,0,.466,2.051,1.517,1.517,0,0,0,1.354.713,1.7,1.7,0,0,0,1.661-.995V-6.625a1.675,1.675,0,0,0-1.644-.995Q13.254-7.62,13.254-4.636ZM21.946,0V-7.646H20.531V-9.51h1.415v-.809a3.283,3.283,0,0,1,.918-2.483,3.557,3.557,0,0,1,2.571-.883,5.938,5.938,0,0,1,1.292.176L26.7-11.54a3.238,3.238,0,0,0-.773-.079q-1.433,0-1.433,1.345v.765h1.89v1.863H24.5V0Z" transform="translate(265.024 131.685)" fill="#901010"/></g></svg>