<svg xmlns="http://www.w3.org/2000/svg" xmlns:xlink="http://www.w3.org/1999/xlink" width="180" height="128" viewBox="0 0 180 128">
  <defs>
    <clipPath id="clip-Pending_Svd">
      <rect width="180" height="128"/>
    </clipPath>
  </defs>
  <g id="Pending_Svd" data-name="Pending Svd" clip-path="url(#clip-Pending_Svd)">
    <g id="Group_5391" data-name="Group 5391" transform="translate(-34 -43)">
      <ellipse id="Ellipse_62" data-name="Ellipse 62" cx="83.5" cy="15.5" rx="83.5" ry="15.5" transform="translate(41 132)" fill="#eaeeef"/>
      <g id="Group_5375" data-name="Group 5375" transform="translate(-4282 -1268)">
        <g id="Rectangle_1596" data-name="Rectangle 1596" transform="translate(4380 1328)" fill="#fff" stroke="#6e8b96" stroke-width="3">
          <path d="M0,0H47a0,0,0,0,1,0,0V18A23,23,0,0,1,24,41H23A23,23,0,0,1,0,18V0A0,0,0,0,1,0,0Z" stroke="none"/>
          <path d="M3,1.5H44A1.5,1.5,0,0,1,45.5,3V18A21.5,21.5,0,0,1,24,39.5H23A21.5,21.5,0,0,1,1.5,18V3A1.5,1.5,0,0,1,3,1.5Z" fill="none"/>
        </g>
        <g id="Rectangle_1595" data-name="Rectangle 1595" transform="translate(4372 1319)" fill="#fff" stroke="#6e8b96" stroke-width="3">
          <rect width="63" height="12" rx="6" stroke="none"/>
          <rect x="1.5" y="1.5" width="60" height="9" rx="4.5" fill="none"/>
        </g>
        <g id="Path_1294" data-name="Path 1294" transform="translate(4381 1368)" fill="#fff">
          <path d="M 45.5 38.5 L 1.5 38.5 L 1.5 23 C 1.5 20.09686088562012 2.068249940872192 17.28134918212891 3.188960075378418 14.63169002532959 C 4.271759986877441 12.07166004180908 5.822199821472168 9.772210121154785 7.797200202941895 7.797200202941895 C 9.772210121154785 5.822199821472168 12.07166004180908 4.271759986877441 14.63169002532959 3.188960075378418 C 17.28134918212891 2.068249940872192 20.09686088562012 1.5 23 1.5 L 24 1.5 C 26.90313911437988 1.5 29.71865081787109 2.068249940872192 32.36830902099609 3.188960075378418 C 34.92834091186523 4.271759986877441 37.22779083251953 5.822199821472168 39.20280075073242 7.797200202941895 C 41.17779922485352 9.772210121154785 42.72824096679688 12.07166004180908 43.81103897094727 14.63169002532959 C 44.9317512512207 17.28134918212891 45.5 20.09686088562012 45.5 23 L 45.5 38.5 Z" stroke="none"/>
          <path d="M 23 3 C 17.65781021118164 3 12.63536834716797 5.080360412597656 8.857860565185547 8.857860565185547 C 5.080360412597656 12.6353702545166 3 17.65781021118164 3 23 L 3 37 L 44 37 L 44 23 C 44 17.65781021118164 41.91963958740234 12.6353702545166 38.14213943481445 8.857860565185547 C 34.36463165283203 5.080360412597656 29.34218978881836 3 24 3 L 23 3 M 23 0 L 24 0 C 36.70254898071289 0 47 10.29744911193848 47 23 L 47 40 L 0 40 L 0 23 C 0 10.29744911193848 10.29745101928711 0 23 0 Z" stroke="none" fill="#6e8b96"/>
        </g>
        <g id="Rectangle_1595-2" data-name="Rectangle 1595" transform="translate(4372 1405)" fill="#fff" stroke="#6e8b96" stroke-width="3">
          <rect width="63" height="12" rx="6" stroke="none"/>
          <rect x="1.5" y="1.5" width="60" height="9" rx="4.5" fill="none"/>
        </g>
        <line id="Line_38" data-name="Line 38" y1="10" x2="42" transform="translate(4384.5 1344.5)" fill="none" stroke="#6e8b96" stroke-width="3"/>
        <g id="Group_5374" data-name="Group 5374" transform="translate(-0.5)">
          <line id="Line_39" data-name="Line 39" y2="7" transform="translate(4405.5 1368)" fill="none" stroke="#6e8b96" stroke-linecap="round" stroke-width="3"/>
          <line id="Line_40" data-name="Line 40" y2="7" transform="translate(4405.5 1380)" fill="none" stroke="#6e8b96" stroke-linecap="round" stroke-width="3"/>
        </g>
        <g id="Path_1293" data-name="Path 1293" transform="translate(4393.855 1391.01)" fill="#fff">
          <path d="M 17.44508934020996 15.47915554046631 C 17.31175804138184 15.47915554046631 17.17860984802246 15.47879600524902 17.04638862609863 15.4784460067749 C 16.91336822509766 15.4780855178833 16.78127861022949 15.47772598266602 16.65082931518555 15.47772598266602 L 5.34916877746582 15.47772598266602 C 5.218439102172852 15.47772598266602 5.086298942565918 15.4780855178833 4.953548908233643 15.4784460067749 C 4.822309017181396 15.47879600524902 4.69045877456665 15.47915554046631 4.55880880355835 15.47915554046631 C 3.951533317565918 15.47915554046631 3.458693504333496 15.46547508239746 3.082498788833618 15.43828392028809 L 9.701200485229492 4.90502405166626 C 9.9736328125 4.496624946594238 10.45821380615234 4.253195762634277 10.99999904632568 4.253195762634277 C 11.5432596206665 4.253195762634277 12.02901172637939 4.49798059463501 12.30104827880859 4.908379554748535 L 19.02210807800293 15.43270874023438 C 18.6257495880127 15.46359920501709 18.09915924072266 15.47915554046631 17.44508934020996 15.47915554046631 Z" stroke="none"/>
          <path d="M 10.99999904632568 5.753186225891113 C 10.97146892547607 5.753186225891113 10.94894886016846 5.757506370544434 10.93448162078857 5.761637687683105 L 5.771806716918945 13.97772598266602 L 16.31313514709473 13.97772598266602 L 11.06632137298584 5.761873245239258 C 11.0518913269043 5.757670402526855 11.02906227111816 5.753186225891113 10.99999904632568 5.753186225891113 M 11 2.753189086914062 C 11.98747634887695 2.753189086914062 12.97495365142822 3.199651718139648 13.55984878540039 4.09257698059082 L 20.67187881469727 15.2291259765625 C 21.89351844787598 17.09414672851562 18.99361991882324 16.97772789001465 16.65082931518555 16.97772598266602 L 5.34916877746582 16.97772598266602 C 3.006376266479492 16.97772598266602 0.2207393646240234 17.09414672851562 1.442378997802734 15.2291259765625 L 8.440158843994141 4.09257698059082 C 9.025049209594727 3.199651718139648 10.01252365112305 2.753189086914062 11 2.753189086914062 Z" stroke="none" fill="#6e8b96"/>
        </g>
      </g>
      <g id="Group_5376" data-name="Group 5376" transform="translate(141.299 -12.123)">
        <path id="Path_1134" data-name="Path 1134" d="M23.934,57.8a1.308,1.308,0,0,1-1.385-1.184V50.321a1.124,1.124,0,0,1,.638-1.158,1.644,1.644,0,0,1,1.521,0,1.124,1.124,0,0,1,.638,1.158v6.292A1.313,1.313,0,0,1,23.934,57.8Z" transform="translate(-4.834 81.854)" fill="#6e8b96"/>
        <path id="Path_1135" data-name="Path 1135" d="M28.613,53.342H22.2a1.493,1.493,0,0,1,0-2.844h6.411a1.141,1.141,0,0,1,1.176.649,1.673,1.673,0,0,1,0,1.547A1.141,1.141,0,0,1,28.613,53.342Z" transform="translate(-6.462 83.345)" fill="#6e8b96"/>
      </g>
      <g id="Group_5380" data-name="Group 5380" transform="translate(-43.551 -2.866)">
        <path id="Path_1132" data-name="Path 1132" d="M62.83,49.175A1.349,1.349,0,0,1,61.42,47.9V41.039a1.417,1.417,0,0,1,2.82,0V47.9a1.349,1.349,0,0,1-1.41,1.279Z" transform="translate(68.527 64.813)" fill="#d6e0e2"/>
        <path id="Path_1133" data-name="Path 1133" d="M68.256,43.76H61.518a1.417,1.417,0,0,1,0-2.82h6.738a1.417,1.417,0,0,1,0,2.82Z" transform="translate(66.361 66.98)" fill="#d6e0e2"/>
      </g>
      <g id="Group_5379" data-name="Group 5379" transform="translate(-69.78 2.444)">
        <path id="Path_1136" data-name="Path 1136" d="M69.011,53.068a1.316,1.316,0,0,1-1.421-1.176V45.636a1.316,1.316,0,0,1,1.421-1.176,1.557,1.557,0,0,1,1,.346,1.061,1.061,0,0,1,.4.83v6.257a1.061,1.061,0,0,1-.4.83,1.557,1.557,0,0,1-1,.345Z" transform="translate(79.315 74.096)" fill="#6e8b96"/>
        <path id="Path_1137" data-name="Path 1137" d="M73.6,48.94H67.133a1.113,1.113,0,0,1-.85-.418,1.535,1.535,0,0,1-.342-1,1.308,1.308,0,0,1,1.193-1.4H73.6a1.107,1.107,0,0,1,.856.4,1.528,1.528,0,0,1,.356,1A1.329,1.329,0,0,1,73.6,48.94Z" transform="translate(77.964 75.436)" fill="#6e8b96"/>
      </g>
    </g>
  </g>
</svg>
