<svg xmlns="http://www.w3.org/2000/svg" width="73.031" height="90" viewBox="0 0 73.031 90"><g transform="translate(-1206 -57)"><g transform="translate(1206 57)"><path d="M52.953,0H3.969a4,4,0,0,0-4,4V86a4,4,0,0,0,4,4h65a4,4,0,0,0,4-4L73,20.028C71.5,18.483,54.843,2,52.953,0Z" transform="translate(0.031)" fill="#c5c5c5"/><path d="M0,0V14a6,6,0,0,0,6,6H20Z" transform="translate(53.031)" fill="#868686"/></g><path d="M9.536-4.667a5.7,5.7,0,0,1-1,3.52A3.2,3.2,0,0,1,5.845.176a2.963,2.963,0,0,1-2.329-1V3.656H.976V-9.51H3.331l.088.932A2.985,2.985,0,0,1,5.827-9.686a3.22,3.22,0,0,1,2.733,1.3A5.858,5.858,0,0,1,9.536-4.8ZM7-4.852A3.743,3.743,0,0,0,6.526-6.9,1.532,1.532,0,0,0,5.159-7.62a1.663,1.663,0,0,0-1.644.914v3.894a1.692,1.692,0,0,0,1.661.94Q7-1.872,7-4.852ZM13.447-9.51l.079,1.1A3.32,3.32,0,0,1,16.26-9.686a2.759,2.759,0,0,1,2.25.888,4.142,4.142,0,0,1,.756,2.654V0h-2.54V-6.082a1.648,1.648,0,0,0-.352-1.173,1.574,1.574,0,0,0-1.169-.365,1.747,1.747,0,0,0-1.608.914V0h-2.54V-9.51Zm7.374,4.685A5.573,5.573,0,0,1,21.863-8.35a3.375,3.375,0,0,1,2.808-1.336,2.96,2.96,0,0,1,2.435,1.072l.105-.9h2.3V-.316a4.064,4.064,0,0,1-.567,2.171,3.641,3.641,0,0,1-1.6,1.406,5.608,5.608,0,0,1-2.408.483A5.215,5.215,0,0,1,22.9,3.327,3.619,3.619,0,0,1,21.4,2.25L22.526.7a2.975,2.975,0,0,0,2.3,1.063A2.178,2.178,0,0,0,26.4,1.226a2.027,2.027,0,0,0,.563-1.534v-.51a2.938,2.938,0,0,1-2.312.993,3.366,3.366,0,0,1-2.773-1.34A5.572,5.572,0,0,1,20.821-4.72Zm2.54.189a3.47,3.47,0,0,0,.519,2.029,1.65,1.65,0,0,0,1.424.735,1.764,1.764,0,0,0,1.661-.871V-6.749a1.76,1.76,0,0,0-1.644-.871,1.66,1.66,0,0,0-1.437.748A3.911,3.911,0,0,0,23.361-4.636Z" transform="translate(1227.024 131.686)" fill="#868686"/><g transform="translate(631.6 3222.5)"><rect width="8.694" height="8.694" transform="translate(606.709 -3119.034)" fill="#868686"/><rect width="8.694" height="8.694" transform="translate(589.4 -3119.034)" fill="#868686"/><g transform="translate(589.4 -3136.5)"><rect width="8.694" height="8.694" transform="translate(0 0)" fill="#868686"/><rect width="8.537" height="8.694" transform="translate(17.231 0)" fill="#868686"/><rect width="8.694" height="8.694" transform="translate(8.694 8.694)" fill="#868686"/><rect width="8.694" height="8.694" transform="translate(34.697 0)" fill="#868686"/><rect width="8.694" height="8.694" transform="translate(26.003 8.694)" fill="#868686"/><rect width="8.694" height="8.694" transform="translate(34.775 17.466)" fill="#868686"/></g></g></g></svg>