<svg xmlns="http://www.w3.org/2000/svg" xmlns:xlink="http://www.w3.org/1999/xlink" width="688.715" height="163.749" viewBox="0 0 688.715 163.749">
  <defs>
    <filter id="Union_3" x="189.808" y="13.641" width="307.897" height="150.109" filterUnits="userSpaceOnUse">
      <feOffset dy="3" input="SourceAlpha"/>
      <feGaussianBlur stdDeviation="3" result="blur"/>
      <feFlood flood-color="#e2f7ff" flood-opacity="0.11"/>
      <feComposite operator="in" in2="blur"/>
      <feComposite in="SourceGraphic"/>
    </filter>
    <filter id="_1" x="327.673" y="48.266" width="35.5" height="76.5" filterUnits="userSpaceOnUse">
      <feOffset dx="2" dy="2" input="SourceAlpha"/>
      <feGaussianBlur stdDeviation="0.5" result="blur-2"/>
      <feFlood flood-color="#c6deec"/>
      <feComposite operator="in" in2="blur-2"/>
      <feComposite in="SourceGraphic"/>
    </filter>
    <filter id="_2" x="97.808" y="72" width="31.5" height="66.5" filterUnits="userSpaceOnUse">
      <feOffset dx="2" dy="2" input="SourceAlpha"/>
      <feGaussianBlur stdDeviation="0.5" result="blur-3"/>
      <feFlood flood-color="#c6deec"/>
      <feComposite operator="in" in2="blur-3"/>
      <feComposite in="SourceGraphic"/>
    </filter>
    <filter id="_3" x="562.808" y="72" width="31.5" height="66.5" filterUnits="userSpaceOnUse">
      <feOffset dx="2" dy="2" input="SourceAlpha"/>
      <feGaussianBlur stdDeviation="0.5" result="blur-4"/>
      <feFlood flood-color="#c6deec"/>
      <feComposite operator="in" in2="blur-4"/>
      <feComposite in="SourceGraphic"/>
    </filter>
  </defs>
  <g id="Group_1252" data-name="Group 1252" transform="translate(-1825.192 -974)">
    <rect id="Rectangle_337" data-name="Rectangle 337" width="202.938" height="9.59" transform="translate(1843.398 1009.515)" fill="#00c6ff"/>
    <rect id="Rectangle_339" data-name="Rectangle 339" width="202.938" height="9.59" transform="translate(2292.15 1009.515)" fill="#00c6ff"/>
    <rect id="Rectangle_338" data-name="Rectangle 338" width="202.938" height="11.162" transform="translate(1843.398 1018.886)" fill="#d4ebf9"/>
    <rect id="Rectangle_340" data-name="Rectangle 340" width="202.938" height="11.162" transform="translate(2292.15 1018.886)" fill="#d4ebf9"/>
    <path id="Path_335" data-name="Path 335" d="M330.284,1043.625l19.751-93.859,202.026-.03.321,94.148Z" transform="translate(1495.216 80.765)" fill="#e6f7fc" stroke="#c6deec" stroke-width="0.5"/>
    <path id="Path_336" data-name="Path 336" d="M552.383,1043.625l-19.751-93.859-202.026-.03-.321,94.148Z" transform="translate(1961.216 80.765)" fill="#e6f7fc" stroke="#c6deec" stroke-width="0.5"/>
    <rect id="Rectangle_11" data-name="Rectangle 11" width="245.099" height="10.154" transform="translate(2047 974)" fill="#32adff"/>
    <rect id="Rectangle_12" data-name="Rectangle 12" width="245.099" height="9.732" transform="translate(2047 984.154)" fill="#c6deec"/>
    <g transform="matrix(1, 0, 0, 1, 1825.19, 974)" filter="url(#Union_3)">
      <path id="Union_3-2" data-name="Union 3" d="M144.948,132.109V0H266.463L289.9,132.109ZM0,132.109,23.434,0H144.948V132.109Z" transform="translate(198.81 19.64)" fill="#eef5f9"/>
    </g>
    <path id="Union_4" data-name="Union 4" d="M283.277,116.485,273.922,0,298.4,116.485ZM0,116.485,24.477,0,15.122,116.485Z" transform="translate(2020 1009.515)" fill="#c6deec"/>
    <g transform="matrix(1, 0, 0, 1, 1825.19, 974)" filter="url(#_1)">
      <text id="_1-2" data-name="1" transform="translate(327.67 102.27)" fill="#33475b" font-size="53" font-family="Nunito-Bold, Nunito" font-weight="700"><tspan x="0" y="0">1</tspan></text>
    </g>
    <path id="Path_10" data-name="Path 10" d="M1.191-.148l271.044.072.555,1.083L.815,1Z" transform="translate(2032.185 1124.993)" fill="#afd3e9"/>
    <g transform="matrix(1, 0, 0, 1, 1825.19, 974)" filter="url(#_2)">
      <text id="_2-2" data-name="2" transform="translate(97.81 119)" fill="#33475b" font-size="46" font-family="Nunito-Bold, Nunito" font-weight="700"><tspan x="0" y="0">2</tspan></text>
    </g>
    <g transform="matrix(1, 0, 0, 1, 1825.19, 974)" filter="url(#_3)">
      <text id="_3-2" data-name="3" transform="translate(562.81 119)" fill="#33475b" font-size="46" font-family="Nunito-Bold, Nunito" font-weight="700"><tspan x="0" y="0">3</tspan></text>
    </g>
  </g>
</svg>
