<svg xmlns="http://www.w3.org/2000/svg" width="73.031" height="90" viewBox="0 0 73.031 90"><g transform="translate(-674 -57)"><g transform="translate(674 57)"><path d="M52.953,0H3.969a4,4,0,0,0-4,4V86a4,4,0,0,0,4,4h65a4,4,0,0,0,4-4L73,20.028C71.5,18.483,54.843,2,52.953,0Z" transform="translate(0.031)" fill="#ee5a39"/><path d="M0,0V14a6,6,0,0,0,6,6H20Z" transform="translate(53.031)" fill="#a31e00"/></g><path d="M9.536-4.667a5.7,5.7,0,0,1-1,3.52A3.2,3.2,0,0,1,5.845.176a2.963,2.963,0,0,1-2.329-1V3.656H.976V-9.51H3.331l.088.932A2.985,2.985,0,0,1,5.827-9.686a3.22,3.22,0,0,1,2.733,1.3A5.858,5.858,0,0,1,9.536-4.8ZM7-4.852A3.743,3.743,0,0,0,6.526-6.9,1.532,1.532,0,0,0,5.159-7.62a1.663,1.663,0,0,0-1.644.914v3.894a1.692,1.692,0,0,0,1.661.94Q7-1.872,7-4.852Zm12.674.185a5.7,5.7,0,0,1-1,3.52A3.2,3.2,0,0,1,15.979.176a2.963,2.963,0,0,1-2.329-1V3.656h-2.54V-9.51h2.355l.088.932a2.985,2.985,0,0,1,2.408-1.107,3.22,3.22,0,0,1,2.733,1.3A5.858,5.858,0,0,1,19.67-4.8Zm-2.54-.185A3.743,3.743,0,0,0,16.66-6.9a1.532,1.532,0,0,0-1.367-.721,1.663,1.663,0,0,0-1.644.914v3.894a1.692,1.692,0,0,0,1.661.94Q17.13-1.872,17.13-4.852Zm7.154-7V-9.51H25.91v1.863H24.284V-2.9a1.133,1.133,0,0,0,.2.756,1.015,1.015,0,0,0,.773.229,4.051,4.051,0,0,0,.747-.062V-.053a5.229,5.229,0,0,1-1.538.229,2.425,2.425,0,0,1-2.725-2.7V-7.646H20.355V-9.51h1.389v-2.338Z" transform="translate(697.024 131.773)" fill="#a31e00"/><path d="M0,27.119V23.86H22.561v3.258ZM.431,11.737A10.2,10.2,0,0,1,4.194,3.8a9.976,9.976,0,0,1,5.524-2.21V12.519H20.523A10.2,10.2,0,0,1,18.337,18.1a10,10,0,0,1-7.846,3.8A10.115,10.115,0,0,1,.431,11.737Zm20.093-.783H11.266V.029c.242-.02.512-.029.774-.029A10.115,10.115,0,0,1,22.1,10.172c0,.264-.009.538-.029.782Z" transform="translate(699 85.881)" fill="#a31e00"/></g></svg>