<svg xmlns="http://www.w3.org/2000/svg" width="73.031" height="90" viewBox="0 0 73.031 90"><g transform="translate(-591 -57)"><g transform="translate(591 57)"><path d="M52.953,0H3.969a4,4,0,0,0-4,4V86a4,4,0,0,0,4,4h65a4,4,0,0,0,4-4L73,20.028C71.5,18.483,54.843,2,52.953,0Z" transform="translate(0.031)" fill="#37c6d0"/><path d="M0,0V14a6,6,0,0,0,6,6H20Z" transform="translate(53.031)" fill="#03787c"/></g><path d="M9.536-4.667a5.7,5.7,0,0,1-1,3.52A3.2,3.2,0,0,1,5.845.176a2.963,2.963,0,0,1-2.329-1V3.656H.976V-9.51H3.331l.088.932A2.985,2.985,0,0,1,5.827-9.686a3.22,3.22,0,0,1,2.733,1.3A5.858,5.858,0,0,1,9.536-4.8ZM7-4.852A3.743,3.743,0,0,0,6.526-6.9,1.532,1.532,0,0,0,5.159-7.62a1.663,1.663,0,0,0-1.644.914v3.894a1.692,1.692,0,0,0,1.661.94Q7-1.872,7-4.852ZM16.8-.967A3.185,3.185,0,0,1,14.2.176,3,3,0,0,1,11.87-.7a3.752,3.752,0,0,1-.822-2.575V-9.51h2.54v6.151q0,1.487,1.354,1.487a1.834,1.834,0,0,0,1.775-.9V-9.51h2.549V0H16.875Zm12.946-3.7A5.758,5.758,0,0,1,28.775-1.1,3.231,3.231,0,0,1,26.051.176a2.969,2.969,0,0,1-2.47-1.187L23.467,0H21.182V-13.5h2.54v4.843a2.893,2.893,0,0,1,2.312-1.028,3.258,3.258,0,0,1,2.729,1.279,5.767,5.767,0,0,1,.989,3.6Zm-2.54-.185a3.783,3.783,0,0,0-.457-2.1,1.545,1.545,0,0,0-1.362-.664,1.676,1.676,0,0,0-1.67.993v3.753a1.7,1.7,0,0,0,1.688,1,1.568,1.568,0,0,0,1.617-1.213A6.257,6.257,0,0,0,27.211-4.852Z" transform="translate(612.024 131.344)" fill="#03787c"/><path d="M7.16-7.91V2.324H2.222V-24.883h9.35a10.041,10.041,0,0,1,4.749,1.08,7.543,7.543,0,0,1,3.152,3.069,9.176,9.176,0,0,1,1.1,4.527,7.854,7.854,0,0,1-2.412,6.075A9.475,9.475,0,0,1,11.49-7.91Zm0-4.374h4.412a4.1,4.1,0,0,0,2.988-1.008,3.85,3.85,0,0,0,1.029-2.88,4.564,4.564,0,0,0-1.037-3.114,3.707,3.707,0,0,0-2.864-1.224H7.16Z" transform="translate(615.778 110.676)" fill="#03787c"/></g></svg>