<svg xmlns="http://www.w3.org/2000/svg" width="73.031" height="90" viewBox="0 0 73.031 90"><g transform="translate(-2004 -57)"><g transform="translate(3111 181)"><path d="M52.953,0H3.969a4,4,0,0,0-4,4V86a4,4,0,0,0,4,4h65a4,4,0,0,0,4-4L73,20.028C71.5,18.483,54.843,2,52.953,0Z" transform="translate(-1106.969 -124)" fill="#fea0ff"/><path d="M0,0V14a6,6,0,0,0,6,6H20Z" transform="translate(-1054 -124)" fill="#bf54c2"/></g><g transform="translate(0 3)"><path d="M6.319-7.128a6.9,6.9,0,0,0-.914-.07,1.86,1.86,0,0,0-1.89.976V0H.976V-9.51h2.4l.07,1.134a2.354,2.354,0,0,1,2.118-1.31,2.662,2.662,0,0,1,.791.114ZM12.788,0a2.821,2.821,0,0,1-.255-.853,3.073,3.073,0,0,1-2.4,1.028A3.376,3.376,0,0,1,7.818-.633,2.6,2.6,0,0,1,6.9-2.672,2.687,2.687,0,0,1,8.02-4.992a5.529,5.529,0,0,1,3.239-.817h1.169v-.545a1.567,1.567,0,0,0-.338-1.055,1.331,1.331,0,0,0-1.068-.4,1.513,1.513,0,0,0-1.006.308,1.045,1.045,0,0,0-.365.844H7.11a2.551,2.551,0,0,1,.51-1.529,3.37,3.37,0,0,1,1.441-1.1,5.253,5.253,0,0,1,2.092-.4,4.15,4.15,0,0,1,2.791.883,3.09,3.09,0,0,1,1.033,2.483V-2.2a4.546,4.546,0,0,0,.378,2.048V0Zm-2.1-1.767a2.188,2.188,0,0,0,1.037-.25,1.645,1.645,0,0,0,.7-.672V-4.324h-.949q-1.907,0-2.03,1.318l-.009.149a1.017,1.017,0,0,0,.334.782A1.3,1.3,0,0,0,10.688-1.767ZM22.271-7.128a6.9,6.9,0,0,0-.914-.07,1.86,1.86,0,0,0-1.89.976V0h-2.54V-9.51h2.4l.07,1.134a2.354,2.354,0,0,1,2.118-1.31,2.662,2.662,0,0,1,.791.114Z" transform="translate(2029.024 128.686)" fill="#bf54c2"/><path d="M15.941,0V4.858H0V7.252H16.642V4.86h7.586l.061,8.679-.061,8.678H15.941v4.86H34.059v-4.86H27.6V19.708h3.721V17.56H27.6V14.647h3.721V12.429H27.6V9.515h3.721V7.368H27.6V4.86h6.459V0ZM0,8.487v10.1H16.642V8.487ZM0,19.794v2.395H16.642V19.794Z" transform="translate(2057.059 110) rotate(180)" fill="#bf54c2"/></g></g></svg>