<svg xmlns="http://www.w3.org/2000/svg" width="46.89" height="42.257" viewBox="0 0 46.89 42.257">
  <g id="RCA" transform="translate(-2266.5 -2203.5)">
    <path id="Subtraction_68" data-name="Subtraction 68" d="M-2092.622,2633.73h-12.606a2.74,2.74,0,0,1-2.394-1.379,2.741,2.741,0,0,1-.009-2.762l6.3-11.03a2.739,2.739,0,0,1,2.4-1.395,2.739,2.739,0,0,1,2.4,1.395l6.3,11.03a2.741,2.741,0,0,1-.009,2.762A2.74,2.74,0,0,1-2092.622,2633.73Zm-7.225-5.484v1.661H-2098v-1.661Zm0-5.937v4.941H-2098v-4.941Z" transform="translate(4389 -400)" fill="#2b496d" stroke="rgba(0,0,0,0)" stroke-miterlimit="10" stroke-width="1"/>
    <path id="Path_3529" data-name="Path 3529" d="M41.924,14.074a3.936,3.936,0,0,0-2.614.988l-12.9-9.949a3.9,3.9,0,0,0,.177-1.147,3.963,3.963,0,1,0-7.61,1.539L6.574,15.069a3.961,3.961,0,1,0-2.615,6.937c.041,0,.084,0,.126-.006l4.3,11.915A3.923,3.923,0,0,0,6.475,37.3a3.965,3.965,0,0,0,7.677,1.385H31.086A3.965,3.965,0,0,0,38.763,37.3a3.939,3.939,0,0,0-1.384-3.005L41.815,22c.036,0,.075.01.109.01a3.966,3.966,0,0,0,0-7.932M22.63,1.45a2.515,2.515,0,0,1,2.509,2.516,2.469,2.469,0,0,1-.25,1.083,2.511,2.511,0,1,1-2.259-3.6M1.45,18.04a2.508,2.508,0,0,1,4.485-1.552,2.486,2.486,0,0,1,.54,1.552,2.517,2.517,0,0,1-2.032,2.47,2.821,2.821,0,0,1-.484.046A2.515,2.515,0,0,1,1.45,18.04m8.991,21.767a2.51,2.51,0,0,1-.89-4.859,2.375,2.375,0,0,1,.89-.166A2.519,2.519,0,0,1,12.957,37.3a2.583,2.583,0,0,1-.05.513,2.524,2.524,0,0,1-2.466,2m24.356,0a2.524,2.524,0,0,1-2.466-2,2.583,2.583,0,0,1-.05-.513,2.518,2.518,0,0,1,2.87-2.491,2.47,2.47,0,0,1,.98.357A2.512,2.512,0,0,1,34.8,39.807M36.1,33.553c-.028-.01-.059-.014-.088-.022a3.839,3.839,0,0,0-.413-.107c-.062-.013-.124-.03-.187-.04a4.083,4.083,0,0,0-.618-.051,3.984,3.984,0,0,0-.783.078H34a3.972,3.972,0,0,0-.722.223l-.017.007a3.959,3.959,0,0,0-.647.347L32.594,34a3.978,3.978,0,0,0-.56.455l-.025.023a4.043,4.043,0,0,0-.46.547l-.025.034a3.935,3.935,0,0,0-.347.621c-.007.015-.015.029-.022.044a4.009,4.009,0,0,0-.221.68c0,.019-.01.038-.015.057a3.964,3.964,0,0,0-.084.724c0,.015-.005.03-.005.045H14.407c0-.015,0-.03-.005-.045a3.964,3.964,0,0,0-.084-.724c0-.019-.01-.038-.015-.057a4.009,4.009,0,0,0-.221-.68c-.007-.015-.015-.029-.022-.044a3.936,3.936,0,0,0-.347-.621l-.025-.034a4.043,4.043,0,0,0-.46-.547l-.025-.023a3.978,3.978,0,0,0-.56-.455l-.023-.015a3.959,3.959,0,0,0-.647-.347l-.017-.007a3.972,3.972,0,0,0-.722-.223h-.01a3.984,3.984,0,0,0-.783-.078,3.926,3.926,0,0,0-.707.062L5.514,21.689a3.851,3.851,0,0,0,.392-.2c.035-.02.073-.035.107-.055a3.973,3.973,0,0,0,.51-.371c.043-.036.08-.078.121-.116a4.046,4.046,0,0,0,.321-.329c.049-.057.092-.117.138-.178a3.785,3.785,0,0,0,.231-.334c.042-.068.08-.137.118-.207a3.949,3.949,0,0,0,.17-.364c.03-.073.06-.145.086-.22a4.065,4.065,0,0,0,.113-.42c.015-.067.035-.133.046-.2a3.937,3.937,0,0,0,.058-.65,3.893,3.893,0,0,0-.05-.588c-.009-.056-.02-.11-.03-.165a3.931,3.931,0,0,0-.115-.445c-.015-.046-.026-.092-.043-.138a3.9,3.9,0,0,0-.215-.5l12.3-9.484c.031.033.066.061.1.092s.074.07.112.1c.081.073.165.141.252.207.035.027.068.054.1.08a3.856,3.856,0,0,0,.381.24l.033.016a4.07,4.07,0,0,0,.373.175c.045.018.091.033.136.05.1.036.2.068.3.1.051.015.1.028.155.04.1.024.206.044.311.059.047.007.094.016.142.022a4.046,4.046,0,0,0,.46.029,3.812,3.812,0,0,0,.516-.038c.054-.007.107-.018.16-.028.117-.021.233-.046.347-.076.058-.016.116-.033.173-.051.11-.036.218-.076.323-.12.052-.022.1-.042.156-.066a3.965,3.965,0,0,0,.39-.211c.017-.011.036-.019.054-.03a4.037,4.037,0,0,0,.4-.292c.046-.038.089-.08.134-.121.08-.073.158-.148.233-.228.046-.049.091-.1.134-.152.028-.033.059-.064.086-.1L38.411,16.2a3.921,3.921,0,0,0-.215.5c-.016.046-.028.092-.043.138a3.966,3.966,0,0,0-.115.447c-.011.055-.022.109-.03.165a3.94,3.94,0,0,0-.05.592,3.888,3.888,0,0,0,.058.653c.012.07.031.135.046.2a3.743,3.743,0,0,0,.114.421c.025.075.057.148.087.222a3.849,3.849,0,0,0,.17.363c.038.071.077.141.119.21.072.115.15.226.233.334.046.059.089.12.138.177a3.95,3.95,0,0,0,.328.334c.04.036.075.076.117.112a4.033,4.033,0,0,0,.516.371c.031.018.065.031.1.049a3.82,3.82,0,0,0,.4.206Zm5.82-13a2.631,2.631,0,0,1-.468-.045,2.516,2.516,0,0,1-2.048-2.471,2.468,2.468,0,0,1,.036-.42,2.513,2.513,0,0,1,.2-.615,2.457,2.457,0,0,1,.308-.524h0a2.516,2.516,0,1,1,1.974,4.076" transform="translate(2267 2204)" fill="#2b496d" stroke="rgba(0,0,0,0)" stroke-miterlimit="10" stroke-width="1"/>
  </g>
</svg>
