<svg xmlns="http://www.w3.org/2000/svg" width="26.667" height="43" viewBox="0 0 26.667 43">
  <path id="Residual_Risk" data-name="Residual Risk" d="M-2105.544,2662v-9.7c0-1.836,1.327-3.917,3.945-6.186a35.847,35.847,0,0,1,5.974-4.106c.471-.254,1.051-.666,1.134-1.187a1.336,1.336,0,0,0-.3-.953c-.586-.363-3.721-2.326-6.917-4.656a9.306,9.306,0,0,1-3.361-4.939,10.829,10.829,0,0,1-.471-2.838V2619h26.667v8.438a10.835,10.835,0,0,1-.473,2.838,9.3,9.3,0,0,1-3.361,4.939c-3.192,2.327-6.327,4.291-6.915,4.656a1.33,1.33,0,0,0-.3.961c.087.517.664.927,1.133,1.179a35.847,35.847,0,0,1,5.974,4.106c2.618,2.268,3.946,4.35,3.946,6.186v9.7Zm25.255-1.411V2652.3c0-1.389-1.2-3.159-3.458-5.119a34.21,34.21,0,0,0-5.72-3.929,3.18,3.18,0,0,1-1.858-2.208,2.771,2.771,0,0,1,.721-2.2l.064-.067.078-.049c.034-.021,3.442-2.119,6.92-4.654,3.216-2.344,3.253-6.594,3.253-6.637v-7.026h-23.844v7.026a9.591,9.591,0,0,0,.426,2.474,7.786,7.786,0,0,0,2.827,4.163c3.48,2.537,6.886,4.633,6.92,4.654l.078.049.064.067a2.775,2.775,0,0,1,.721,2.2,3.182,3.182,0,0,1-1.858,2.208,34.21,34.21,0,0,0-5.72,3.929c-2.262,1.96-3.458,3.73-3.458,5.119v8.287h5.348l-1.674-2.823a.377.377,0,0,1,.083-.535l1.766-1.357c0-.288-.041-.535-.041-.823s.041-.534.041-.823l-1.808-1.357a.5.5,0,0,1-.084-.535l1.683-2.838a.394.394,0,0,1,.5-.165l2.1.823a7.163,7.163,0,0,1,1.43-.823l.337-2.179a.449.449,0,0,1,.42-.33h3.365a.449.449,0,0,1,.42.33l.3,2.179a6.166,6.166,0,0,1,1.43.823l2.1-.823a.409.409,0,0,1,.5.165l1.683,2.838a.377.377,0,0,1-.084.535l-1.766,1.357c0,.288.042.535.042.823a5.2,5.2,0,0,1-.042.823l1.85,1.357a.5.5,0,0,1,.085.535l-1.675,2.823Zm-15-5.538a2.9,2.9,0,0,0,2.945,2.879,2.894,2.894,0,0,0,2.944-2.879,2.894,2.894,0,0,0-2.944-2.879A2.9,2.9,0,0,0-2095.285,2655.051Zm2.106-19.41-6.366-5.345h13.9s-5.494,4.9-6.186,5.345a1.183,1.183,0,0,1-.657.2A1.345,1.345,0,0,1-2093.179,2635.641Z" transform="translate(2105.544 -2619)" fill="#2b496d"/>
</svg>
