<svg xmlns="http://www.w3.org/2000/svg" width="41.192" height="41.635" viewBox="0 0 41.192 41.635">
  <path id="risk_treatment_" data-name="risk treatment " d="M-2100.817,2683.325c-.017-.941,0-1.883,0-2.824h-.009c0-1.049.021-2.1-.017-3.145a1.357,1.357,0,0,0-.354-.686c-.205-.261-.552-.439-.682-.723a1.747,1.747,0,0,0-1.13-.924c-3.041-1.14-6.007-3.29-6.832-6.437q-1.54-5.874-3.025-11.761a3.354,3.354,0,0,1,3.395-4.343,35.715,35.715,0,0,0,3.58-.445c.7-.094.833.007.842.7.005.515,0,1.03,0,1.545,0,.417-.178.653-.618.58-.925-.153-1.847-.333-2.773-.481a2.274,2.274,0,0,0-2.1.433,1.87,1.87,0,0,0-.469,1.963c1,3.866,1.956,7.746,3,11.6.66,2.426,3.276,4.04,5.615,4.948a.523.523,0,0,0,.681-.186,2.322,2.322,0,0,1,3.555-.049.627.627,0,0,0,.82.2c2.357-.939,4.917-2.617,5.57-5.059.567-2.12,1.113-4.246,1.733-6.679.354-1.386.784-3.079,1.221-4.769a1.848,1.848,0,0,0-.469-1.96,2.306,2.306,0,0,0-2.2-.407c-.922.177-1.851.322-2.781.455-.351.05-.526-.18-.533-.515-.011-.6-.009-1.208,0-1.812a.489.489,0,0,1,.621-.539c.912.135,1.818.307,2.73.437a8.684,8.684,0,0,0,1.167.054,3.352,3.352,0,0,1,3.32,4.347q-1.5,5.744-2.956,11.5c-.854,3.359-3.89,5.633-7.17,6.768a1.29,1.29,0,0,0-.739.61,8.276,8.276,0,0,1-.874.975c-.128.148-.3.337-.3.509,0,2.272-.086,4.555.082,6.816.245,3.3,4.68,6.56,8.227,6.7,4.489.753,7.026-1.129,8.491-4.281a8.156,8.156,0,0,0,.767-3.508c0-1.02-.009-1.01,0-1.449a1.99,1.99,0,0,0-1.044,1.1h0a8,8,0,0,1-2.3-.955,2,2,0,0,0-.41-2.208,1.98,1.98,0,0,0-1.4-.58,1.979,1.979,0,0,0-.805.169,7.873,7.873,0,0,1-.953-2.3,1.979,1.979,0,0,0,1.271-1.855,1.972,1.972,0,0,0-1.275-1.855,8,8,0,0,1,.949-2.3,1.957,1.957,0,0,0,.809.173,1.971,1.971,0,0,0,1.4-.58,2,2,0,0,0,.41-2.213,7.861,7.861,0,0,1,2.3-.953,2,2,0,0,0,1.855,1.275,2,2,0,0,0,1.855-1.275,7.806,7.806,0,0,1,2.293.953,1.981,1.981,0,0,0,.41,2.213,1.988,1.988,0,0,0,1.4.58,2.019,2.019,0,0,0,.808-.173,7.861,7.861,0,0,1,.954,2.3,1.977,1.977,0,0,0-1.275,1.855,1.986,1.986,0,0,0,1.271,1.859,7.933,7.933,0,0,1-.953,2.3,1.987,1.987,0,0,0-.8-.169,1.968,1.968,0,0,0-1.4.58,1.982,1.982,0,0,0-.41,2.208,7.924,7.924,0,0,1-2.3.954,1.988,1.988,0,0,0-.831-.986c.005.462,0,.523-.011,1.572-.059,4.55-3.285,9.508-8.715,9.388a11.3,11.3,0,0,1-1.284.073C-2095.06,2692.633-2100.714,2688.827-2100.817,2683.325Zm19.286-5.292a1.054,1.054,0,0,0,1.082,1.049,1.06,1.06,0,0,0,1.092-1.049,1.063,1.063,0,0,0-1.092-1.055h-.011A1.052,1.052,0,0,0-2081.531,2678.033Zm.074-1.888h2.015v-4.954h-2.015Z" transform="translate(2113.51 -2651.499)" fill="#2b496d" stroke="rgba(0,0,0,0)" stroke-miterlimit="10" stroke-width="1"/>
</svg>
