<svg xmlns="http://www.w3.org/2000/svg" width="45.53" height="46.055" viewBox="0 0 45.53 46.055">
  <path id="Risk_Assessment" data-name="Risk Assessment" d="M-2071.709,2713.422c-1.6-1.624-3.239-3.216-4.829-4.85-.562-.578-1.284-1.088-1.217-2.223-4.338,2.908-8.758,3.229-13.238.777a12.271,12.271,0,0,1-2.184-1.517l.1.093a11.585,11.585,0,0,1-3.377.387,8.876,8.876,0,0,1-1.682-.123c.117-.412.216-.831.361-1.232.03-.08.226-.139.346-.142.953-.028,1.907-.042,2.861-.057.081,0,.188-.012.238.033.255.223.507.451.776.7a10.156,10.156,0,0,1-2.746-4.42c-1.941-6.43.221-11.429,4.781-14.355a11.968,11.968,0,0,1,15.839,2.334,12.161,12.161,0,0,1,.483,14.92c1.7.33,2.49,1.806,3.632,2.831,1.117,1,2.163,2.089,3.2,3.177a2.471,2.471,0,0,1,.227,3.594,2.293,2.293,0,0,1-1.819.707A2.462,2.462,0,0,1-2071.709,2713.422Zm-23.975-17.086a10.794,10.794,0,0,0,10.757,11.123c5.458-.015,10.923-4.568,10.7-10.826a10.588,10.588,0,0,0-10.679-10.8h-.109A10.791,10.791,0,0,0-2095.684,2696.336Zm-4.451,9.424c-1.12-.375-1.094-.367-.683-1.677.256-.817.417-1.665.625-2.5.084-.334.18-.664.276-1,.11-.376.024-.506-.4-.687a15.768,15.768,0,0,1-2.792-1.554,11.107,11.107,0,0,1-3.258-3.842c-.083-.147-.134-.313-.242-.57-.449.143-.923.271-1.38.44-1.116.406-2.224.831-3.335,1.247-.26.1-.473.1-.556-.242a3.4,3.4,0,0,0-.2-.479c-.2-.484-.087-.689.408-.854,1.076-.359,2.144-.739,3.215-1.109.387-.133.775-.26,1.193-.4-.022-.322-.052-.629-.068-.938-.064-1.224-.206-2.453-.154-3.671a6.854,6.854,0,0,1,.588-2.186,16.364,16.364,0,0,1,1.237-2.481,8.805,8.805,0,0,1,2.848-2.893c.479-.3.955-.6,1.441-.887a.433.433,0,0,0,.257-.569c-.214-.9-.369-1.823-.527-2.74-.123-.718-.365-.866-1-.566a15.614,15.614,0,0,0-5.151,3.844,14.49,14.49,0,0,0-2.671,4.325,28.4,28.4,0,0,0-.921,3.58,13.037,13.037,0,0,0,0,4.552c.02.2-.018.548-.137.6a3.976,3.976,0,0,1-1.082.274c-.043.008-.166-.2-.178-.314a22.569,22.569,0,0,1-.125-5.133,16.25,16.25,0,0,1,1.586-5.37,23.822,23.822,0,0,1,2.436-3.572,11.239,11.239,0,0,1,3.388-2.931c1.277-.731,2.637-1.319,3.976-1.938a1.312,1.312,0,0,1,.554-.071c.1,0,.2,0,.293-.007.168.868.307,1.7.491,2.517.215.961.476,1.912.7,2.871a4.92,4.92,0,0,1,.169,1.121c0,.14-.222.354-.383.408a9.037,9.037,0,0,0-4.881,3.877,9.238,9.238,0,0,0-1.443,6.522,8.967,8.967,0,0,0,3.472,6.145,11.043,11.043,0,0,0,2.29,1.456,16.769,16.769,0,0,0,2.941.747c.27.058.462.091.486.4a1.52,1.52,0,0,0,.092.353c.282.836.27.855-.631.739-.29-.037-.577-.108-.98-.185-.358,1.532-.7,3-1.048,4.474a3.251,3.251,0,0,1-.213.687c-.052.105-.212.169-.335.224a.062.062,0,0,1-.026.006A.664.664,0,0,1-2100.135,2705.76Zm-3.475-1.291a15.083,15.083,0,0,1-4.991-3.709c-.859-1-1.558-2.141-2.322-3.224-.178-.253-.11-.389.217-.454a9.137,9.137,0,0,0,1.035-.327,13.75,13.75,0,0,0,3.785,4.467,36.273,36.273,0,0,0,3.141,1.958c.308.178.438.3.365.664-.134.683-.177.952-.408.952A2.707,2.707,0,0,1-2103.61,2704.469Zm17.632-1.707v-2.808h2.808v2.808Zm0-3.74V2690.6h2.808v8.425Zm-1.013-15.781c-.421-.757-.794-1.513-1.245-2.22a8.767,8.767,0,0,0-3.177-2.982,9.825,9.825,0,0,0-6.273-1.266.464.464,0,0,1-.4-.2c-.261-.892-.483-1.8-.721-2.694s-.478-1.768-.71-2.653c-.2-.751-.382-1.5-.577-2.255-.034-.132-.1-.256-.2-.513a18.039,18.039,0,0,1,10.968.864c7.488,3.286,11.21,8.175,11.621,16.241C-2080.3,2683.128-2083.423,2682.949-2086.991,2683.241Z" transform="translate(2113 -2668.001)" fill="#2b496d"/>
</svg>
