<svg xmlns="http://www.w3.org/2000/svg" width="39.401" height="40.646" viewBox="0 0 39.401 40.646">
  <path id="Risk_Context" data-name="Risk Context" d="M-2092.969,2708.643c-.85-.016-1.7-.154-2.543-.249a16.859,16.859,0,0,1-3.682-.937,8.921,8.921,0,0,1-.9-.363.913.913,0,0,1-.456-1.214.921.921,0,0,1,1.146-.486c1.012.321,2.011.69,3.037.952a14.976,14.976,0,0,0,2.384.368c.847.072,1.7.083,2.551.071a16.749,16.749,0,0,0,4.09-.643,16.793,16.793,0,0,0,3.967-1.633,22.212,22.212,0,0,0,2.583-1.762,16.379,16.379,0,0,0,1.866-1.729c.57-.6,1.067-1.273,1.592-1.918.074-.091.135-.193.25-.358-.654.163-1.251.312-1.847.459a11,11,0,0,1-1.357.317.916.916,0,0,1-1.023-.841,1.09,1.09,0,0,1,.849-1.016c.7-.153,1.392-.326,2.084-.5.976-.247,1.943-.539,2.927-.745.747-.156,1.179.2,1.266.974.091.8.22,1.6.321,2.4.077.618.143,1.237.206,1.857.031.316.06.635.064.952a.846.846,0,0,1-.739.862.952.952,0,0,1-.987-.582c-.077-.405-.142-.813-.2-1.22-.072-.513-.132-1.028-.2-1.547-.666.8-1.3,1.59-1.975,2.345a10.213,10.213,0,0,1-1.272,1.206c-.837.661-1.687,1.307-2.571,1.906a16.132,16.132,0,0,1-3.625,1.808,28.6,28.6,0,0,1-2.861.858,12.387,12.387,0,0,1-2.005.284c-.866.067-1.736.13-2.6.13C-2092.748,2708.646-2092.858,2708.646-2092.969,2708.643Zm-14.921-7.251c-.925-.479-1.832-1-2.747-1.5-.648-.356-1.3-.7-1.942-1.072a.89.89,0,0,1-.282-1.255.861.861,0,0,1,1.174-.357c.594.3,1.168.628,1.75.946.158.086.316.176.407.227-.318-1.312-.662-2.632-.949-3.963a11.873,11.873,0,0,1-.145-1.635c-.031-.45-.077-.9-.065-1.352a20.688,20.688,0,0,1,.872-5.605c.212-.68.463-1.352.738-2.01a.877.877,0,0,1,1.19-.48.984.984,0,0,1,.509,1.218c-.347,1.048-.737,2.085-1,3.154a19.042,19.042,0,0,0-.374,2.651,13.949,13.949,0,0,0-.068,1.95,15.922,15.922,0,0,0,.571,3.673,12.545,12.545,0,0,0,.569,1.631l.319-1.313c.092-.379.162-.764.275-1.136a.856.856,0,0,1,.834-.665c.465-.006.816.173.9.6a2.574,2.574,0,0,1-.081,1.022c-.364,1.584-.754,3.162-1.125,4.744a.841.841,0,0,1-.846.65A1.045,1.045,0,0,1-2107.89,2701.391Zm10.264-2.959a2.345,2.345,0,0,1-2.1-1.243,2.3,2.3,0,0,1,.037-2.253l5.4-9.307a2.352,2.352,0,0,1,2.059-1.177,2.351,2.351,0,0,1,2.053,1.168h5.16v1.2h-4.464l4.708,8.116a2.291,2.291,0,0,1,.038,2.253,2.344,2.344,0,0,1-2.1,1.243Zm4.575-2.773h1.649V2694.1h-1.649Zm0-2.486h1.649v-4.622h-1.649Zm.824-8.752v-1.2h6.412v1.2Zm0-2.4v-1.2h8.014v1.2Zm15.717-.51c-.546-.772-1.048-1.582-1.656-2.3a19.525,19.525,0,0,0-2.173-2.222,26.592,26.592,0,0,0-2.689-1.964,12.555,12.555,0,0,0-3.148-1.476c-1.043-.324-2.1-.616-3.167-.85a12.416,12.416,0,0,0-1.923-.187c-.655-.039-1.314-.042-1.969-.061l-.023.092c.379.24.758.479,1.136.721a.938.938,0,0,1,.138,1.566.922.922,0,0,1-1.082.052c-1.3-.831-2.6-1.66-3.889-2.515a.936.936,0,0,1,.067-1.6c1.236-.868,2.472-1.738,3.73-2.574a.848.848,0,0,1,1.3.294.861.861,0,0,1-.25,1.233c-.391.282-.789.556-1.185.834.006.021.014.042.02.062.3-.005.609-.031.913-.012.907.06,1.812.137,2.715.212a15.948,15.948,0,0,1,3.615.805,20.553,20.553,0,0,1,4.389,2.05,20.669,20.669,0,0,1,4.172,3.462,19.6,19.6,0,0,1,2.517,3.372.97.97,0,0,1-.29,1.306.869.869,0,0,1-.492.161A.965.965,0,0,1-2076.511,2681.515Z" transform="translate(2113 -2668)" fill="#2b496d"/>
</svg>
