<svg xmlns="http://www.w3.org/2000/svg" width="44.454" height="45.184" viewBox="0 0 44.454 45.184">
  <path id="Risk_Mapping" data-name="Risk Mapping" d="M-2088.388,2664.184l-3.991-7h-9.009l-4.613-8.091,4.613-8.093h7.635l4.368-7.564-3.616-6.343,4.613-8.092h9.229l3.99,7h9.01l4.612,8.092-4.274,7.5,4.274,7.5-4.612,8.091h-9.01l-3.99,7Zm-3.032-8.091,3.825,6.71h7.645l3.825-6.71-2.613-4.586h-10.068Zm16.825-.29h7.645l3.825-6.71-3.825-6.711h-5.725l-4.815,8.343Zm-29.825-6.71,3.825,6.71h7.645l3.254-5.708-4.454-7.714h-6.445Zm19.8-2.829a1.175,1.175,0,0,0,1.205,1.17,1.182,1.182,0,0,0,1.218-1.17,1.185,1.185,0,0,0-1.218-1.176h-.01A1.173,1.173,0,0,0-2084.623,2646.264Zm.082-2.1h2.246v-7.522h-2.246Zm17.59-3.356,3.825-6.711-3.825-6.71h-7.645l-3.149,5.525,4.558,7.9Zm-12.293-8.24,3.118-5.471-3.825-6.71h-7.645l-3.825,6.71,3.118,5.471Z" transform="translate(2106 -2619)" fill="#2b496d"/>
</svg>
