<svg xmlns="http://www.w3.org/2000/svg" width="20" height="20" viewBox="0 0 20 20">
  <path id="Subtraction_1" data-name="Subtraction 1" d="M3978,1183a10,10,0,1,1,10-10A10.011,10.011,0,0,1,3978,1183Zm-4.825-14.667a1.173,1.173,0,0,0-1.169,1.174l0,7.047a1.176,1.176,0,0,0,1.174,1.175h9.4a1.176,1.176,0,0,0,1.174-1.175v-7.047a1.175,1.175,0,0,0-1.174-1.174Zm9.4,8.221h-9.4v-5.872l4.7,2.936,4.7-2.936v5.871Zm-4.7-4.111h0l-4.7-2.936h9.4l-4.7,2.936Z" transform="translate(-3968 -1163)" fill="#515bd4"/>
</svg>
