<svg xmlns="http://www.w3.org/2000/svg" width="20" height="20" viewBox="0 0 20 20">
  <path id="Subtraction_2" data-name="Subtraction 2" d="M3978,1183a10,10,0,1,1,10-10A10.011,10.011,0,0,1,3978,1183Zm1.194-10.442c.618,0,.945.441.945,1.276V1177H3982v-3.382c0-1.592-.8-2.542-2.147-2.542a1.891,1.891,0,0,0-1.678.941v-.805h-1.863V1177h1.863v-3.3a1.211,1.211,0,0,1,.064-.456A1.023,1.023,0,0,1,3979.194,1172.558Zm-5.86-1.347V1177h1.862v-5.789Zm1-2.877a1,1,0,0,0-.023,2h.013a1,1,0,1,0,.01-2Z" transform="translate(-3968 -1163)" fill="#1b72be"/>
</svg>
