<svg xmlns="http://www.w3.org/2000/svg" width="20" height="20" viewBox="0 0 20 20">
  <g id="Group_10177" data-name="Group 10177" transform="translate(-2731 -740)">
    <rect id="Rectangle_2723" data-name="Rectangle 2723" width="20" height="20" rx="10" transform="translate(2731 740)" fill="#e2d200"/>
    <g id="Icon_feather-globe" data-name="Icon feather-globe" transform="translate(2733 742)">
      <path id="Path_3602" data-name="Path 3602" d="M13,8A5,5,0,1,1,8,3,5,5,0,0,1,13,8Z" fill="none" stroke="#fff" stroke-linecap="round" stroke-linejoin="round" stroke-width="1"/>
      <path id="Path_3603" data-name="Path 3603" d="M3,18H13" transform="translate(0 -10)" fill="none" stroke="#fff" stroke-linecap="round" stroke-linejoin="round" stroke-width="1"/>
      <path id="Path_3604" data-name="Path 3604" d="M14,3a7.65,7.65,0,0,1,2,5,7.65,7.65,0,0,1-2,5,7.65,7.65,0,0,1-2-5,7.65,7.65,0,0,1,2-5Z" transform="translate(-6)" fill="none" stroke="#fff" stroke-linecap="round" stroke-linejoin="round" stroke-width="1"/>
    </g>
  </g>
</svg>
