<svg xmlns="http://www.w3.org/2000/svg" width="20" height="20" viewBox="0 0 20 20">
  <path id="Subtraction_5" data-name="Subtraction 5" d="M3978,1183a10,10,0,1,1,10-10A10.011,10.011,0,0,1,3978,1183Zm.673-15.333a5.188,5.188,0,0,0-4.492,7.774l-.736,2.684,2.749-.722a5.183,5.183,0,1,0,2.479-9.736Zm0,9.494a4.306,4.306,0,0,1-2.195-.6l-.156-.094-1.629.427.434-1.589-.1-.164a4.316,4.316,0,1,1,8-2.29,4.251,4.251,0,0,1-1.288,3.046A4.35,4.35,0,0,1,3978.672,1177.161Zm-1.838-6.7a.482.482,0,0,0-.345.161l-.017.018-.01.011a1.428,1.428,0,0,0-.427,1.052,2.452,2.452,0,0,0,.522,1.333l.005.007.027.038a5.507,5.507,0,0,0,2.187,1.919,3.211,3.211,0,0,0,1.251.349,2.079,2.079,0,0,0,.3-.025,1.325,1.325,0,0,0,.874-.617,1.082,1.082,0,0,0,.074-.617c-.025-.048-.089-.079-.185-.125l-.06-.029c-.133-.067-.765-.377-.885-.42a.426.426,0,0,0-.139-.034.179.179,0,0,0-.153.1c-.091.136-.352.44-.411.508a.178.178,0,0,1-.14.075.319.319,0,0,1-.141-.042,3.517,3.517,0,0,1-1.762-1.54c-.074-.127-.024-.18.076-.285a1.589,1.589,0,0,0,.3-.423.243.243,0,0,0-.011-.226c-.022-.043-.138-.327-.251-.6l-.018-.042-.131-.317c-.093-.221-.186-.222-.262-.222h-.031C3977.008,1170.458,3976.92,1170.458,3976.834,1170.458Z" transform="translate(-3968 -1163)" fill="#4cb250"/>
</svg>
