<svg xmlns="http://www.w3.org/2000/svg" width="20" height="20" viewBox="0 0 20 20">
  <path id="Subtraction_6" data-name="Subtraction 6" d="M3978,1183a10,10,0,1,1,10-10A10.011,10.011,0,0,1,3978,1183Zm-4.665-6.931h0a5.727,5.727,0,0,0,8.812-4.822c0-.086,0-.174-.006-.261a4.3,4.3,0,0,0,1.009-1.04,4.055,4.055,0,0,1-1.158.311,2.005,2.005,0,0,0,.884-1.109,4.014,4.014,0,0,1-1.276.486,2.014,2.014,0,0,0-3.482,1.376,2.275,2.275,0,0,0,.05.46,5.733,5.733,0,0,1-4.149-2.1,2.014,2.014,0,0,0,.623,2.69,2.018,2.018,0,0,1-.909-.255v.025a2.021,2.021,0,0,0,1.613,1.974,2.161,2.161,0,0,1-.529.068,2.482,2.482,0,0,1-.38-.031,2.017,2.017,0,0,0,1.882,1.4,4.146,4.146,0,0,1-2.983.835Z" transform="translate(-3968 -1163)" fill="#00abf4"/>
</svg>
