<svg xmlns="http://www.w3.org/2000/svg" width="20" height="20" viewBox="0 0 20 20">
  <path id="Subtraction_3" data-name="Subtraction 3" d="M3978,1183a10,10,0,1,1,10-10A10.011,10.011,0,0,1,3978,1183Zm.887-5.679h0a2.587,2.587,0,0,0,1.2.3,2.517,2.517,0,0,0,2.531-2.5,2.432,2.432,0,0,0-.262-1.108,4.209,4.209,0,0,0,.1-.923,4.341,4.341,0,0,0-4.367-4.3,4.534,4.534,0,0,0-.746.062,2.535,2.535,0,0,0-3.875,2.112,2.457,2.457,0,0,0,.347,1.263,4.361,4.361,0,0,0,5.074,5.1Zm-.813-1.277a3.386,3.386,0,0,1-1.563-.324,2.075,2.075,0,0,1-.719-.63,1.347,1.347,0,0,1-.279-.777.549.549,0,0,1,.181-.407.647.647,0,0,1,.455-.167.58.58,0,0,1,.384.131.961.961,0,0,1,.254.369,2.145,2.145,0,0,0,.253.438.971.971,0,0,0,.364.279,1.829,1.829,0,0,0,1.511-.114.627.627,0,0,0,.324-.536.52.52,0,0,0-.169-.407,1.167,1.167,0,0,0-.468-.253c-.186-.058-.448-.122-.8-.2a6.442,6.442,0,0,1-1.144-.338,1.906,1.906,0,0,1-.751-.541,1.327,1.327,0,0,1-.281-.863,1.389,1.389,0,0,1,.3-.87,1.834,1.834,0,0,1,.849-.579,3.725,3.725,0,0,1,1.28-.2,3.548,3.548,0,0,1,1.017.131,2.268,2.268,0,0,1,.723.355,1.577,1.577,0,0,1,.424.469,1.039,1.039,0,0,1,.136.491.581.581,0,0,1-.179.414.608.608,0,0,1-.448.186.556.556,0,0,1-.376-.115,1.392,1.392,0,0,1-.26-.34,1.456,1.456,0,0,0-.391-.479,1.252,1.252,0,0,0-.729-.167,1.377,1.377,0,0,0-.756.184.49.49,0,0,0-.269.412.38.38,0,0,0,.088.25.784.784,0,0,0,.26.2,1.833,1.833,0,0,0,.35.134c.081.022.267.07.6.145s.659.153.966.247a3.209,3.209,0,0,1,.746.336,1.493,1.493,0,0,1,.494.512,1.718,1.718,0,0,1-.121,1.723,1.986,1.986,0,0,1-.887.663A3.614,3.614,0,0,1,3978.073,1176.044Z" transform="translate(-3968 -1163)" fill="#00acf2"/>
</svg>
