<svg xmlns="http://www.w3.org/2000/svg" width="20" height="20" viewBox="0 0 20 20">
  <path id="Subtraction_7" data-name="Subtraction 7" d="M3978,1183a10,10,0,1,1,10-10A10.011,10.011,0,0,1,3978,1183Zm-.086-15.334c-.933,0-1.762.014-2.165.037a3.1,3.1,0,0,0-2.2.846,3.169,3.169,0,0,0-.848,2.2c-.049.87-.049,3.458,0,4.328a2.906,2.906,0,0,0,3.045,3.046c.4.023,1.21.037,2.165.037s1.763-.014,2.164-.037a2.9,2.9,0,0,0,3.044-3.046c.049-.869.049-3.456,0-4.326a2.9,2.9,0,0,0-3.044-3.046C3979.675,1167.68,3978.846,1167.666,3977.913,1167.666Zm.937,9.551c-.2,0-.388,0-.559,0h-.04l-.336,0-.329,0h-.058c-.161,0-.338,0-.523,0a7.519,7.519,0,0,1-2.183-.216,1.768,1.768,0,0,1-1-1,9.438,9.438,0,0,1-.214-2.719c0-.139,0-.265,0-.373s0-.209,0-.331v-.035a9.519,9.519,0,0,1,.214-2.726,1.77,1.77,0,0,1,1-1,7.409,7.409,0,0,1,2.165-.216c.2,0,.384,0,.553,0l.374,0,.328,0h.055c.161,0,.339,0,.525,0a7.521,7.521,0,0,1,2.183.216,1.771,1.771,0,0,1,1,1,9.436,9.436,0,0,1,.214,2.719c0,.138,0,.264,0,.372s0,.234,0,.373A9.433,9.433,0,0,1,3982,1176a1.771,1.771,0,0,1-1,1A7.34,7.34,0,0,1,3978.85,1177.218Zm-.936-7a2.689,2.689,0,1,0,2.689,2.689A2.693,2.693,0,0,0,3977.915,1170.222Zm2.8-.738a.628.628,0,1,0,.626.628A.628.628,0,0,0,3980.714,1169.485Zm-2.8,5.175a1.748,1.748,0,1,1,1.748-1.749A1.751,1.751,0,0,1,3977.915,1174.66Z" transform="translate(-3968 -1163)" fill="#dd2a7b"/>
</svg>
