<svg xmlns="http://www.w3.org/2000/svg" width="20" height="20" viewBox="0 0 20 20">
  <g id="Group_10176" data-name="Group 10176" transform="translate(-2541.77 -740.442)">
    <path id="Subtraction_8" data-name="Subtraction 8" d="M9.556,20.362a10,10,0,1,1,10-10A10.011,10.011,0,0,1,9.556,20.362ZM9.556,7a25.57,25.57,0,0,0-3.511.2,1.2,1.2,0,0,0-.846.851A12.661,12.661,0,0,0,5,10.368a12.675,12.675,0,0,0,.2,2.317,1.179,1.179,0,0,0,.846.837,25.457,25.457,0,0,0,3.511.2,25.475,25.475,0,0,0,3.512-.2,1.176,1.176,0,0,0,.845-.837,12.674,12.674,0,0,0,.2-2.317,12.661,12.661,0,0,0-.2-2.316,1.2,1.2,0,0,0-.845-.851A25.588,25.588,0,0,0,9.556,7ZM8.051,12.328v0l.135-.1V8.356l2.893,2.012Z" transform="translate(2542.214 740.08)" fill="#f44133"/>
  </g>
</svg>
