<svg xmlns="http://www.w3.org/2000/svg" width="73.031" height="90" viewBox="0 0 73.031 90"><g transform="translate(-161 -57)"><path d="M52.953,0H3.969a4,4,0,0,0-4,4V86a4,4,0,0,0,4,4h65a4,4,0,0,0,4-4L73,20.028C71.5,18.483,54.843,2,52.953,0Z" transform="translate(161.031 57)" fill="#be5ad4"/><path d="M0,0V14a6,6,0,0,0,6,6H20Z" transform="translate(214 57)" fill="#7a1f8d"/><path d="M22.617,2.25h-5.9A1.915,1.915,0,0,0,14.75,4.107V9.679a1.915,1.915,0,0,0,1.967,1.857h5.9a1.915,1.915,0,0,0,1.967-1.857V4.107A1.915,1.915,0,0,0,22.617,2.25ZM12.784,5.5H7.575A3.934,3.934,0,0,0,3.933,3.179,3.829,3.829,0,0,0,0,6.893a3.829,3.829,0,0,0,3.933,3.714A3.934,3.934,0,0,0,7.575,8.286h4.9c-3.4,1.887-5.891,6.068-6.732,9.821H8.779c.694-2.415,2.26-5.481,4.366-6.894a3.5,3.5,0,0,1-.361-1.534ZM8.834,19.964h-4.9a1.915,1.915,0,0,0-1.967,1.857v4.571A1.915,1.915,0,0,0,3.933,28.25h4.9A1.915,1.915,0,0,0,10.8,26.393V21.821A1.915,1.915,0,0,0,8.834,19.964ZM35.4,3.179A3.934,3.934,0,0,0,31.759,5.5H26.55V9.679a3.511,3.511,0,0,1-.361,1.534c2.106,1.413,3.672,4.479,4.366,6.894h3.036c-.841-3.754-3.329-7.934-6.732-9.821h4.9A3.934,3.934,0,0,0,35.4,10.607a3.829,3.829,0,0,0,3.933-3.714A3.829,3.829,0,0,0,35.4,3.179Zm-1,16.786H29.5a1.915,1.915,0,0,0-1.967,1.857v4.571A1.915,1.915,0,0,0,29.5,28.25h4.9a1.915,1.915,0,0,0,1.967-1.857V21.821A1.915,1.915,0,0,0,34.4,19.964Z" transform="translate(178 83.75)" fill="#7a1f8d"/><path d="M6.126-2.628a.818.818,0,0,0-.461-.734,5.241,5.241,0,0,0-1.481-.479Q.791-4.553.791-6.724a2.613,2.613,0,0,1,1.05-2.114,4.237,4.237,0,0,1,2.747-.848,4.56,4.56,0,0,1,2.9.853A2.687,2.687,0,0,1,8.569-6.618H6.029a1.229,1.229,0,0,0-.352-.9,1.488,1.488,0,0,0-1.1-.356,1.52,1.52,0,0,0-.993.29.916.916,0,0,0-.352.738.783.783,0,0,0,.4.681,4.114,4.114,0,0,0,1.349.448,11.019,11.019,0,0,1,1.6.426A2.628,2.628,0,0,1,8.6-2.733a2.481,2.481,0,0,1-1.116,2.1A4.815,4.815,0,0,1,4.6.176,5.029,5.029,0,0,1,2.474-.25,3.561,3.561,0,0,1,1.02-1.419a2.716,2.716,0,0,1-.527-1.6H2.9a1.326,1.326,0,0,0,.5,1.037,1.987,1.987,0,0,0,1.248.36,1.839,1.839,0,0,0,1.1-.277A.861.861,0,0,0,6.126-2.628ZM13.79-3.1,15.557-9.51h2.654L15,0H12.577L9.369-9.51h2.654Zm5.168-1.723A5.573,5.573,0,0,1,20-8.35a3.375,3.375,0,0,1,2.808-1.336,2.96,2.96,0,0,1,2.435,1.072l.105-.9h2.3V-.316a4.064,4.064,0,0,1-.567,2.171,3.641,3.641,0,0,1-1.6,1.406,5.608,5.608,0,0,1-2.408.483,5.215,5.215,0,0,1-2.039-.417,3.619,3.619,0,0,1-1.5-1.077L20.663.7a2.975,2.975,0,0,0,2.3,1.063,2.178,2.178,0,0,0,1.573-.541A2.027,2.027,0,0,0,25.1-.308v-.51A2.938,2.938,0,0,1,22.79.176a3.366,3.366,0,0,1-2.773-1.34A5.572,5.572,0,0,1,18.958-4.72Zm2.54.189a3.47,3.47,0,0,0,.519,2.029,1.65,1.65,0,0,0,1.424.735A1.764,1.764,0,0,0,25.1-2.744V-6.749a1.76,1.76,0,0,0-1.644-.871,1.66,1.66,0,0,0-1.437.748A3.911,3.911,0,0,0,21.5-4.636Z" transform="translate(183.508 131.686)" fill="#7a1f8d"/></g></svg>