<svg xmlns="http://www.w3.org/2000/svg" xmlns:xlink="http://www.w3.org/1999/xlink" width="241" height="196" viewBox="0 0 241 196">
  <defs>
    <clipPath id="clip-Tolerate">
      <rect width="241" height="196"/>
    </clipPath>
  </defs>
  <g id="Tolerate" clip-path="url(#clip-Tolerate)">
    <g id="Group_5381" data-name="Group 5381">
      <g id="Group_116" data-name="Group 116" transform="translate(7)">
        <ellipse id="Ellipse_50" data-name="Ellipse 50" cx="105" cy="23.5" rx="105" ry="23.5" transform="translate(7 133)" fill="#eaeeef"/>
        <path id="Path_1274" data-name="Path 1274" d="M70.858,4.318a2.861,2.861,0,0,1,4.969,0L143.948,121.3a2.947,2.947,0,0,1-2.484,4.45L7.472,124c-2.24,0-4.341-1.332-3.2-3.3Z" transform="translate(38 26.249)" fill="#fff"/>
        <path id="Path_1269" data-name="Path 1269" d="M2214.768,825.372s-2.612,4.489,3.429,4.225-2.946,1.99-2.946,1.99l-3.242-.26-.562-1.946.3-1.9Z" transform="translate(-2166.333 -682.885)" fill="#d6e0e2"/>
        <path id="Path_1267" data-name="Path 1267" d="M-5.331,1.545l4.4-3.525L3.3,136.8l-5.5-1.818Z" transform="translate(111.835 31.151) rotate(31)" fill="#d6e0e2"/>
        <path id="Path_1268" data-name="Path 1268" d="M0,2.12,3.2,0l.788,115.41-3.5-2.291Z" transform="translate(41.428 149.618) rotate(-90)" fill="#d6e0e2"/>
        <g id="Polygon_2" data-name="Polygon 2" transform="translate(35 21)" fill="none">
          <path d="M69.435,10.523a7,7,0,0,1,12.13,0L144.951,120.5a7,7,0,0,1-6.065,10.5H12.114a7,7,0,0,1-6.065-10.5Z" stroke="none"/>
          <path d="M 75.5 9.818496704101562 C 73.98027038574219 9.818496704101562 72.61993408203125 10.60457611083984 71.861083984375 11.92124176025391 L 8.474807739257812 121.9027862548828 C 7.716964721679688 123.2177276611328 7.717849731445312 124.7872848510742 8.477188110351562 126.1013717651367 C 9.236541748046875 127.4154510498047 10.59599304199219 128.1999969482422 12.11370849609375 128.1999969482422 L 138.8862915039062 128.1999969482422 C 140.4040069580078 128.1999969482422 141.7634582519531 127.4154739379883 142.5228118896484 126.1013717651367 C 143.2821655273438 124.7872848510742 143.2830657958984 123.2177276611328 142.5252075195312 121.9027633666992 L 79.13889312744141 11.92124176025391 C 78.38004302978516 10.60457611083984 77.01970672607422 9.818496704101562 75.5 9.818496704101562 M 75.5 7.01849365234375 C 77.85913848876953 7.01849365234375 80.21828460693359 8.186691284179688 81.56483459472656 10.52310180664062 L 144.9511413574219 120.5046234130859 C 147.6407012939453 125.1712875366211 144.2725219726562 131 138.8862915039062 131 L 12.11370849609375 131 C 6.72747802734375 131 3.359298706054688 125.1712875366211 6.048873901367188 120.5046234130859 L 69.43514251708984 10.52310180664062 C 70.78170776367188 8.186691284179688 73.14085388183594 7.01849365234375 75.5 7.01849365234375 Z" stroke="none" fill="#6e8b96"/>
        </g>
        <g id="Group_104" data-name="Group 104" transform="translate(135.893 102.828)">
          <g id="Group_103" data-name="Group 103" transform="translate(0 0.426)">
            <circle id="Ellipse_47" data-name="Ellipse 47" cx="33.5" cy="33.5" r="33.5" transform="translate(0.107 -0.254)" fill="#fff"/>
          </g>
          <g id="Group_102" data-name="Group 102" transform="translate(0 0)">
            <path id="Subtraction_9" data-name="Subtraction 9" d="M29.286,63.853A27.933,27.933,0,0,1,8.577,54.5,33.23,33.23,0,0,1,0,31.926,33.229,33.229,0,0,1,8.577,9.351,27.933,27.933,0,0,1,29.286,0c.779,0,1.567.034,2.343.1C16.521,1.4,4.685,15.382,4.685,31.926S16.521,62.448,31.629,63.752C30.831,63.821,30.043,63.853,29.286,63.853Z" transform="translate(3.833 0) rotate(3)" fill="#d6e0e2"/>
            <g id="Ellipse_46" data-name="Ellipse 46" transform="translate(0.107 0.172)" fill="none" stroke="#6e8b96" stroke-width="2.8">
              <circle cx="33.5" cy="33.5" r="33.5" stroke="none"/>
              <circle cx="33.5" cy="33.5" r="32.1" fill="none"/>
            </g>
          </g>
        </g>
        <g id="Group_115" data-name="Group 115" transform="translate(-104 18)">
          <path id="Path_1271" data-name="Path 1271" d="M0,.861,2.269,0l.558,46.858-2.478-.93Z" transform="matrix(1, 0.017, -0.017, 1, 211.531, 45.042)" fill="#d6e0e2"/>
          <g id="Rectangle_57" data-name="Rectangle 57" transform="translate(209 43)" fill="none" stroke="#6e8b96" stroke-width="2.5">
            <rect width="13" height="51" rx="6.5" stroke="none"/>
            <rect x="1.25" y="1.25" width="10.5" height="48.5" rx="5.25" fill="none"/>
          </g>
        </g>
        <path id="Path_1272" data-name="Path 1272" d="M3253.606,341.384s-3.308,5.477,0,9.793c-.2.046-3.74,0-3.74,0l-1.26-4.27.433-3.806,1.85-1.717,3.11-1.067Z" transform="translate(-3143 -222)" fill="#d6e0e2"/>
        <g id="Ellipse_52" data-name="Ellipse 52" transform="translate(104 117)" fill="none" stroke="#6e8b96" stroke-width="2.5">
          <circle cx="7" cy="7" r="7" stroke="none"/>
          <circle cx="7" cy="7" r="5.75" fill="none"/>
        </g>
      </g>
      <g id="Group_122" data-name="Group 122" transform="translate(28.299 -27.83)">
        <path id="Path_1134" data-name="Path 1134" d="M23.934,58.837a1.368,1.368,0,0,1-1.385-1.323V50.48a1.294,1.294,0,0,1,.638-1.295,1.491,1.491,0,0,1,1.521,0,1.294,1.294,0,0,1,.638,1.295v7.034a1.37,1.37,0,0,1-1.412,1.323Z" transform="translate(-3.776 81.354)" fill="#6e8b96"/>
        <path id="Path_1135" data-name="Path 1135" d="M29.826,53.342H22.371a1.441,1.441,0,0,1,0-2.844h7.455a1.384,1.384,0,0,1,1.367.649,1.468,1.468,0,0,1,0,1.547A1.384,1.384,0,0,1,29.826,53.342Z" transform="translate(-6.118 83.34)" fill="#6e8b96"/>
      </g>
      <g id="Group_119" data-name="Group 119" transform="translate(27 -30.553)">
        <path id="Path_1136" data-name="Path 1136" d="M69.011,53.933a1.362,1.362,0,0,1-1.421-1.294V45.754a1.362,1.362,0,0,1,1.421-1.294,1.47,1.47,0,0,1,1,.38,1.215,1.215,0,0,1,.4.913v6.886a1.215,1.215,0,0,1-.4.914,1.47,1.47,0,0,1-1,.38Z" transform="translate(78.905 73.113)" fill="#6e8b96"/>
        <path id="Path_1137" data-name="Path 1137" d="M74.431,48.94H67.261a1.286,1.286,0,0,1-.942-.418,1.443,1.443,0,0,1-.379-1,1.361,1.361,0,0,1,1.321-1.4h7.169a1.284,1.284,0,0,1,.948.4,1.44,1.44,0,0,1,.395,1A1.384,1.384,0,0,1,74.431,48.94Z" transform="translate(77.048 74.78)" fill="#6e8b96"/>
      </g>
      <g id="Group_120" data-name="Group 120" transform="translate(-49 20.358)">
        <path id="Path_1132" data-name="Path 1132" d="M62.83,49.175A1.349,1.349,0,0,1,61.42,47.9V41.039a1.417,1.417,0,0,1,2.82,0V47.9a1.349,1.349,0,0,1-1.41,1.279Z" transform="translate(68.527 64.813)" fill="#d6e0e2"/>
        <path id="Path_1133" data-name="Path 1133" d="M68.256,43.76H61.518a1.417,1.417,0,0,1,0-2.82h6.738a1.417,1.417,0,0,1,0,2.82Z" transform="translate(66.361 66.98)" fill="#d6e0e2"/>
      </g>
      <g id="Group_110" data-name="Group 110" transform="translate(-140.644 -153.703)">
        <rect id="Rectangle_51" data-name="Rectangle 51" width="2.03" height="22.735" transform="translate(300.786 286.686) rotate(-45)" fill="#6e8b96" stroke="#6e8b96" stroke-width="0.3"/>
        <rect id="Rectangle_52" data-name="Rectangle 52" width="22.735" height="2.03" transform="translate(317.765 301.003) rotate(-44.95)" fill="#6e8b96" stroke="#6e8b96" stroke-width="0.3"/>
        <rect id="Rectangle_53" data-name="Rectangle 53" width="14.412" height="2.03" transform="translate(301.41 283.949)" fill="#6e8b96" stroke="#6e8b96" stroke-width="0.3"/>
        <rect id="Rectangle_54" data-name="Rectangle 54" width="5.455" height="2.03" transform="translate(313.52 287.032) rotate(-64.72)" fill="#6e8b96"/>
        <path id="Path_1258" data-name="Path 1258" d="M64.444,45.69l1.827.888L63.962,51.5l-1.852-.863" transform="translate(256.732 236.407)" fill="#6e8b96"/>
        <rect id="Rectangle_55" data-name="Rectangle 55" width="13.321" height="2.03" transform="translate(320.948 283.949)" fill="#6e8b96" stroke="#6e8b96" stroke-width="0.3"/>
        <circle id="Ellipse_42" data-name="Ellipse 42" cx="5.1" cy="5.1" r="5.1" transform="translate(313.057 295.266)" fill="#fff" stroke="#6e8b96" stroke-width="2"/>
        <circle id="Ellipse_43" data-name="Ellipse 43" cx="5.1" cy="5.1" r="5.1" transform="translate(329.778 279.94)" fill="#fff" stroke="#6e8b96" stroke-width="2"/>
        <circle id="Ellipse_44" data-name="Ellipse 44" cx="5.1" cy="5.1" r="5.1" transform="translate(296.31 279.94)" fill="#fff" stroke="#6e8b96" stroke-width="2"/>
      </g>
    </g>
  </g>
</svg>
