<svg xmlns="http://www.w3.org/2000/svg" width="73.031" height="90" viewBox="0 0 73.031 90"><g transform="translate(-1828 -57)"><g transform="translate(3111 181)"><path d="M52.953,0H3.969a4,4,0,0,0-4,4V86a4,4,0,0,0,4,4h65a4,4,0,0,0,4-4L73,20.028C71.5,18.483,54.843,2,52.953,0Z" transform="translate(-1282.969 -124)" fill="#90b8df"/><path d="M0,0V14a6,6,0,0,0,6,6H20Z" transform="translate(-1230 -124)" fill="#4b759e"/></g><path d="M4.017-11.848V-9.51H5.643v1.863H4.017V-2.9a1.133,1.133,0,0,0,.2.756,1.015,1.015,0,0,0,.773.229,4.051,4.051,0,0,0,.747-.062V-.053A5.229,5.229,0,0,1,4.2.176a2.425,2.425,0,0,1-2.725-2.7V-7.646H.088V-9.51H1.477v-2.338Zm6.662,5.177,1.6-2.839h2.716L12.287-4.852,15.108,0H12.384l-1.7-2.988L9,0H6.267L9.088-4.852,6.39-9.51H9.114Zm8.578-5.177V-9.51h1.626v1.863H19.257V-2.9a1.133,1.133,0,0,0,.2.756,1.015,1.015,0,0,0,.773.229,4.051,4.051,0,0,0,.747-.062V-.053a5.229,5.229,0,0,1-1.538.229,2.425,2.425,0,0,1-2.725-2.7V-7.646H15.328V-9.51h1.389v-2.338Z" transform="translate(1853.912 131.824)" fill="#4b759e"/><path d="M0,0V7.809H1.688A3.385,3.385,0,0,1,5.063,4.434h5.063v17.5a1.671,1.671,0,0,1-1.687,1.688H6.75V27h13.5V23.625H18.563a1.671,1.671,0,0,1-1.687-1.687V4.434h5.063a3.385,3.385,0,0,1,3.375,3.375H27V0Z" transform="translate(1851 86)" fill="#4b759e"/></g></svg>