<svg xmlns="http://www.w3.org/2000/svg" width="145.953" height="198.576" viewBox="0 0 145.953 198.576">
  <g id="Group_9876" data-name="Group 9876" transform="translate(3548 -5907.508)">
    <g id="Group_9872" data-name="Group 9872" transform="translate(-8188 191.104)">
      <g id="Group_9871" data-name="Group 9871" transform="translate(4640 5716.404)">
        <path id="Path_2187" data-name="Path 2187" d="M138.3,134.646a35.683,35.683,0,0,0-9.351,8.189,35.683,35.683,0,0,0-9.351-8.189s-7.651-6.235-7.651-13.362V119.5c0-7.127,7.651-13.363,7.651-13.363a35.677,35.677,0,0,0,9.351-8.189,35.677,35.677,0,0,0,9.351,8.189s7.651,6.236,7.651,13.363v1.781C145.953,128.411,138.3,134.646,138.3,134.646Zm-18.534-32.6a35.677,35.677,0,0,0-9.351,8.189,35.685,35.685,0,0,0-9.351-8.189s-7.651-6.236-7.651-13.363V86.9c0-7.127,7.651-13.362,7.651-13.362a35.69,35.69,0,0,0,9.351-8.189,35.683,35.683,0,0,0,9.351,8.189s7.651,6.235,7.651,13.362v1.781C127.419,95.809,119.768,102.045,119.768,102.045Zm-18.519-32.6A35.677,35.677,0,0,0,91.9,77.631a35.685,35.685,0,0,0-9.351-8.189S74.9,63.207,74.9,56.08V54.3c0-7.127,7.651-13.362,7.651-13.362A35.685,35.685,0,0,0,91.9,32.748a35.677,35.677,0,0,0,9.351,8.189S108.9,47.172,108.9,54.3V56.08C108.9,63.207,101.249,69.443,101.249,69.443ZM82.32,36.826a35.69,35.69,0,0,0-9.351,8.189,35.682,35.682,0,0,0-9.351-8.189s-7.651-6.235-7.651-13.362V21.682c0-7.127,7.651-13.363,7.651-13.363A35.677,35.677,0,0,0,72.969.131,35.685,35.685,0,0,0,82.32,8.32s7.651,6.236,7.651,13.363v1.781C89.971,30.59,82.32,36.826,82.32,36.826ZM63.406,40.936s7.651,6.236,7.651,13.362V56.08c0,7.127-7.651,13.362-7.651,13.362a35.677,35.677,0,0,0-9.351,8.189A35.677,35.677,0,0,0,44.7,69.443s-7.651-6.236-7.651-13.362V54.3c0-7.127,7.651-13.362,7.651-13.362a35.677,35.677,0,0,0,9.351-8.189A35.677,35.677,0,0,0,63.406,40.936Zm-18.519,32.6s7.651,6.235,7.651,13.362v1.781c0,7.127-7.651,13.363-7.651,13.363a35.677,35.677,0,0,0-9.351,8.189,35.685,35.685,0,0,0-9.351-8.189s-7.651-6.236-7.651-13.363V86.9c0-7.127,7.651-13.362,7.651-13.362a35.69,35.69,0,0,0,9.351-8.189A35.682,35.682,0,0,0,44.888,73.538Zm-18.534,32.6S34,112.376,34,119.5v1.781c0,7.127-7.651,13.362-7.651,13.362A35.683,35.683,0,0,0,17,142.835a35.691,35.691,0,0,0-9.351-8.189S0,128.411,0,121.284V119.5c0-7.127,7.651-13.363,7.651-13.363A35.685,35.685,0,0,0,17,97.952,35.677,35.677,0,0,0,26.354,106.14Zm18.35,0a35.677,35.677,0,0,0,9.351-8.189,35.677,35.677,0,0,0,9.351,8.189s7.651,6.236,7.651,13.363v1.781c0,7.127-7.651,13.362-7.651,13.362a35.683,35.683,0,0,0-9.351,8.189,35.683,35.683,0,0,0-9.351-8.189s-7.651-6.235-7.651-13.362V119.5C37.053,112.376,44.7,106.14,44.7,106.14Zm37.843,0A35.685,35.685,0,0,0,91.9,97.952a35.677,35.677,0,0,0,9.351,8.189s7.651,6.236,7.651,13.363v1.781c0,7.127-7.651,13.362-7.651,13.362a35.682,35.682,0,0,0-9.351,8.189,35.691,35.691,0,0,0-9.351-8.189S74.9,128.411,74.9,121.284V119.5C74.9,112.376,82.547,106.14,82.547,106.14Z" transform="translate(0 -0.131)" fill="#006495" fill-rule="evenodd"/>
        <path id="Path_2188" data-name="Path 2188" d="M27.011,36.9A35.685,35.685,0,0,0,17.66,45.09,35.677,35.677,0,0,0,8.309,36.9S.658,30.665.658,23.538V21.757c0-7.127,7.651-13.362,7.651-13.362A35.682,35.682,0,0,0,17.66.206a35.69,35.69,0,0,0,9.351,8.189s7.651,6.235,7.651,13.362v1.781C34.663,30.665,27.011,36.9,27.011,36.9Z" transform="translate(55.316 64.588)" fill="#4b9e46" fill-rule="evenodd"/>
      </g>
      <path id="Path_2189" data-name="Path 2189" d="M18.383,8.8a15.058,15.058,0,0,0,4.009-.485,10.251,10.251,0,0,0,3.049-1.368,8.32,8.32,0,0,0,2.167-2.123,9.78,9.78,0,0,0,1.331-2.75,10.171,10.171,0,0,0,.433-2.095A20.98,20.98,0,0,0,29.5-2.253V-25.909h5.046V-2.367A26.4,26.4,0,0,1,34.389.426a17.339,17.339,0,0,1-.5,2.708,13.884,13.884,0,0,1-1.765,3.9,11.343,11.343,0,0,1-3.065,3.107A14.966,14.966,0,0,1,24.528,12.2a23.157,23.157,0,0,1-6.207.741,23.352,23.352,0,0,1-5.975-.684,15,15,0,0,1-4.412-1.9A11.114,11.114,0,0,1,4.916,7.48,13.754,13.754,0,0,1,3.09,3.846,16.287,16.287,0,0,1,2.424.8a25.731,25.731,0,0,1-.2-3.164V-25.909H7.269V-2.253A17.923,17.923,0,0,0,7.47.383,11.381,11.381,0,0,0,8.1,2.848a8.868,8.868,0,0,0,3.607,4.361A12.339,12.339,0,0,0,18.383,8.8ZM75.4-22.489a20.376,20.376,0,0,0-6.5,1.012,14.679,14.679,0,0,0-5.25,3.021,14.178,14.178,0,0,0-3.511,4.988,17.4,17.4,0,0,0-1.285,6.94A17.863,17.863,0,0,0,60.039.3a12.5,12.5,0,0,0,3.385,4.788A14.041,14.041,0,0,0,68.7,7.893a24.234,24.234,0,0,0,6.879.912q1.034,0,2.194-.1t2.335-.285q1.175-.185,2.288-.428t1.99-.527v4.1a22.213,22.213,0,0,1-4.241,1.012,33.9,33.9,0,0,1-4.953.356,29.069,29.069,0,0,1-9.164-1.325,18.314,18.314,0,0,1-6.7-3.8,15.9,15.9,0,0,1-4.1-6.056,22.2,22.2,0,0,1-1.393-8.108,22.13,22.13,0,0,1,1.471-8.18,17.944,17.944,0,0,1,4.241-6.413,19.437,19.437,0,0,1,6.718-4.175,24.87,24.87,0,0,1,8.87-1.5q1.3,0,2.57.1t2.43.285q1.161.185,2.152.442a14.243,14.243,0,0,1,1.7.542v4.1a34.367,34.367,0,0,0-4.106-.955A26.263,26.263,0,0,0,75.4-22.489ZM99.035,12.225l16.873-38.133h4.365l16.873,38.133h-5.48L126.719.739H109.4l-4.947,11.486Zm19.009-32.205q-2.772,7.119-5.294,12.939L111.2-3.45H124.93l-1.57-3.588q-2.55-5.924-5.192-12.942Z" transform="translate(4643.614 5902.043)" fill="#006495"/>
    </g>
  </g>
</svg>
