<svg xmlns="http://www.w3.org/2000/svg" width="73.031" height="90" viewBox="0 0 73.031 90"><g transform="translate(-852 -57)"><g transform="translate(852 57)"><path d="M52.953,0H3.969a4,4,0,0,0-4,4V86a4,4,0,0,0,4,4h65a4,4,0,0,0,4-4L73,20.028C71.5,18.483,54.843,2,52.953,0Z" transform="translate(0.031)" fill="#a6a6ff"/><path d="M0,0V14a6,6,0,0,0,6,6H20Z" transform="translate(53.031)" fill="#5050bb"/></g><g transform="translate(2225.792 403.682)"><path d="M238.8,259.233V246.871c.2-.716.919-1.171,2.043-1.171s1.839.455,2.043,1.171a2.008,2.008,0,0,1,0,.781v23.877c-.2.716-.919,1.171-2.043,1.171s-1.839-.455-2.043-1.171a2.008,2.008,0,0,1,0-.781Z" transform="translate(-1582.66 -563.382)" fill="#5050bb"/><path d="M234.791,261.594v5.954c0,.972-.817,1.58-2.145,1.58s-2.145-.608-2.145-1.58V255.579c0-.972.817-1.58,2.145-1.58s2.145.608,2.145,1.58Z" transform="translate(-1582.838 -565.745)" fill="#5050bb"/><path d="M251.391,261.594v5.954c0,.972-.817,1.58-2.145,1.58s-2.145-.547-2.145-1.58V255.579c0-.972.817-1.58,2.145-1.58s2.145.547,2.145,1.58Z" transform="translate(-1582.48 -565.745)" fill="#5050bb"/><path d="M267.991,261.655v5.893c0,.972-.817,1.58-2.145,1.58s-2.145-.607-2.145-1.58V255.58c0-.972.817-1.58,2.145-1.58s2.145.547,2.145,1.58Z" transform="translate(-1582.122 -565.745)" fill="#5050bb"/><path d="M259.691,264.179v4.077c0,1.073-.817,1.788-2.145,1.788s-2.145-.644-2.145-1.788v-8.368c0-1.073.817-1.788,2.145-1.788s2.145.644,2.145,1.788Z" transform="translate(-1582.301 -568.254)" fill="#5050bb"/><path d="M226.49,265.332a8.1,8.1,0,0,1,0,1.573c-.1.787-1.022,1.359-2.145,1.359s-2.043-.572-2.043-1.359a16.193,16.193,0,0,1,0-3.147c.1-.787,1.022-1.359,2.145-1.359s1.941.572,2.043,1.359Z" transform="translate(-1583.017 -569.482)" fill="#5050bb"/></g><path d="M9.246-3.454,10.494-9.51h2.452L10.521,0H8.394l-1.8-5.985L4.79,0H2.672L.246-9.51H2.7L3.938-3.463,5.678-9.51H7.515ZM19.714,0a2.821,2.821,0,0,1-.255-.853A3.073,3.073,0,0,1,17.06.176a3.376,3.376,0,0,1-2.316-.809,2.6,2.6,0,0,1-.918-2.039,2.687,2.687,0,0,1,1.121-2.32,5.529,5.529,0,0,1,3.239-.817h1.169v-.545a1.567,1.567,0,0,0-.338-1.055,1.331,1.331,0,0,0-1.068-.4,1.513,1.513,0,0,0-1.006.308,1.045,1.045,0,0,0-.365.844h-2.54a2.551,2.551,0,0,1,.51-1.529,3.37,3.37,0,0,1,1.441-1.1,5.253,5.253,0,0,1,2.092-.4A4.15,4.15,0,0,1,20.87-8.8,3.09,3.09,0,0,1,21.9-6.319V-2.2A4.546,4.546,0,0,0,22.28-.149V0Zm-2.1-1.767a2.188,2.188,0,0,0,1.037-.25,1.645,1.645,0,0,0,.7-.672V-4.324H18.4q-1.907,0-2.03,1.318l-.009.149a1.017,1.017,0,0,0,.334.782A1.3,1.3,0,0,0,17.613-1.767ZM27.281-3.1,29.048-9.51H31.7L28.494,0H26.068L22.86-9.51h2.654Z" transform="translate(872.754 131.824)" fill="#5050bb"/></g></svg>