<svg xmlns="http://www.w3.org/2000/svg" width="73.031" height="90" viewBox="0 0 73.031 90"><g transform="translate(-1650 -57)"><g transform="translate(3111 181)"><path d="M52.953,0H3.969a4,4,0,0,0-4,4V86a4,4,0,0,0,4,4h65a4,4,0,0,0,4-4L73,20.028C71.5,18.483,54.843,2,52.953,0Z" transform="translate(-1460.969 -124)" fill="#acd147"/><path d="M0,0V14a6,6,0,0,0,6,6H20Z" transform="translate(-1408 -124)" fill="#749221"/></g><path d="M9.246-3.454,10.494-9.51h2.452L10.521,0H8.394l-1.8-5.985L4.79,0H2.672L.246-9.51H2.7L3.938-3.463,5.678-9.51H7.515ZM18.58.176a4.668,4.668,0,0,1-3.406-1.283A4.561,4.561,0,0,1,13.86-4.526v-.246a5.745,5.745,0,0,1,.554-2.562,4.064,4.064,0,0,1,1.569-1.74A4.4,4.4,0,0,1,18.3-9.686a3.947,3.947,0,0,1,3.072,1.23,5,5,0,0,1,1.121,3.489v1.037H16.436a2.36,2.36,0,0,0,.743,1.494,2.245,2.245,0,0,0,1.569.563,2.742,2.742,0,0,0,2.294-1.063l1.248,1.4A3.813,3.813,0,0,1,20.742-.277,5.075,5.075,0,0,1,18.58.176Zm-.29-7.813a1.587,1.587,0,0,0-1.226.512,2.651,2.651,0,0,0-.6,1.466H20v-.2a1.891,1.891,0,0,0-.457-1.311A1.638,1.638,0,0,0,18.29-7.638ZM32.5-4.667A5.758,5.758,0,0,1,31.526-1.1,3.231,3.231,0,0,1,28.8.176a2.969,2.969,0,0,1-2.47-1.187L26.218,0H23.933V-13.5h2.54v4.843a2.893,2.893,0,0,1,2.312-1.028,3.258,3.258,0,0,1,2.729,1.279,5.767,5.767,0,0,1,.989,3.6Zm-2.54-.185a3.783,3.783,0,0,0-.457-2.1,1.545,1.545,0,0,0-1.362-.664,1.676,1.676,0,0,0-1.67.993v3.753a1.7,1.7,0,0,0,1.688,1,1.568,1.568,0,0,0,1.617-1.213A6.257,6.257,0,0,0,29.962-4.852ZM36.448-9.51l.079,1.063a3.342,3.342,0,0,1,2.733-1.239,2.536,2.536,0,0,1,2.522,1.45,3.265,3.265,0,0,1,2.856-1.45,2.836,2.836,0,0,1,2.3.9A4.141,4.141,0,0,1,47.7-6.073V0H45.149V-6.064a1.811,1.811,0,0,0-.316-1.182,1.4,1.4,0,0,0-1.116-.374,1.585,1.585,0,0,0-1.582,1.09L42.144,0H39.6V-6.056a1.789,1.789,0,0,0-.325-1.2,1.416,1.416,0,0,0-1.107-.369,1.646,1.646,0,0,0-1.564.9V0h-2.54V-9.51Z" transform="translate(1662.754 131.824)" fill="#749221"/><path d="M15.136,11.2a5.223,5.223,0,1,1,10.44,0,5.223,5.223,0,1,1-10.44,0Zm-12.528,0a5.319,5.319,0,0,1,5.22-5.413,5.319,5.319,0,0,1,5.22,5.413,5.319,5.319,0,0,1-5.22,5.413A5.319,5.319,0,0,1,2.609,11.2ZM27.664,22.022V18.775a2.134,2.134,0,0,0-2.088-2.165H2.659A2.134,2.134,0,0,0,.571,18.775V30.619a2.134,2.134,0,0,0,2.088,2.165H25.576a2.134,2.134,0,0,0,2.088-2.165V27.371l6.314,5.413V16.61l-6.314,5.413Z" transform="translate(1669.429 80.216)" fill="#749221"/></g></svg>