<svg xmlns="http://www.w3.org/2000/svg" xmlns:xlink="http://www.w3.org/1999/xlink" width="64" height="58" viewBox="0 0 64 58">
  <defs>
    <clipPath id="clip-path">
      <rect width="64" height="58" fill="none"/>
    </clipPath>
  </defs>
  <g id="word" clip-path="url(#clip-path)">
    <g id="word-2" data-name="word" transform="translate(28 -15.995)">
      <path id="Path_217" data-name="Path 217" d="M285.385,123.469H257.959A1.966,1.966,0,0,1,256,121.493V81.98A1.968,1.968,0,0,1,257.959,80h27.426a1.968,1.968,0,0,1,1.959,1.976v39.513A1.966,1.966,0,0,1,285.385,123.469Z" transform="translate(-251.378 -56.171)" fill="#fff"/>
      <g id="Group_68" data-name="Group 68" transform="translate(6.622 31.852)">
        <path id="Path_218" data-name="Path 218" d="M277.549,147.922h-19.59a1.959,1.959,0,0,1,0-3.918h19.59a1.959,1.959,0,1,1,0,3.918Z" transform="translate(-256 -144.004)" fill="#1976d2"/>
        <path id="Path_219" data-name="Path 219" d="M277.549,211.922h-19.59a1.959,1.959,0,0,1,0-3.918h19.59a1.959,1.959,0,1,1,0,3.918Z" transform="translate(-256 -200.168)" fill="#1976d2"/>
        <path id="Path_220" data-name="Path 220" d="M277.549,275.922h-19.59a1.959,1.959,0,0,1,0-3.918h19.59a1.959,1.959,0,1,1,0,3.918Z" transform="translate(-256 -256.332)" fill="#1976d2"/>
        <path id="Path_221" data-name="Path 221" d="M277.549,339.922h-19.59a1.959,1.959,0,0,1,0-3.918h19.59a1.959,1.959,0,1,1,0,3.918Z" transform="translate(-256 -312.496)" fill="#1976d2"/>
      </g>
      <path id="Path_222" data-name="Path 222" d="M48.239,16.441a3.568,3.568,0,0,0-2.248-.41L2.232,21.78C.941,21.949,0,22.742,0,23.662V65.821c0,.92.935,1.713,2.232,1.882l43.759,5.749a3.7,3.7,0,0,0,.5.034,3.5,3.5,0,0,0,1.745-.441,1.762,1.762,0,0,0,.99-1.476V17.913A1.757,1.757,0,0,0,48.239,16.441Z" transform="translate(-28 0)" fill="#1565c0"/>
      <path id="Path_223" data-name="Path 223" d="M81.617,195.79a1.96,1.96,0,0,1-1.7,1.724,1.687,1.687,0,0,1-.243.016,1.964,1.964,0,0,1-1.834-1.269l-4.043-10.783L69.75,196.261a1.959,1.959,0,0,1-3.773-.415l-1.959-13.713a1.959,1.959,0,0,1,3.879-.552l.874,6.128,3.185-8.5a2.043,2.043,0,0,1,3.671,0l3,8,1.054-9.49a1.959,1.959,0,1,1,3.895.435Z" transform="translate(-80.563 -140.201)" fill="#fafafa"/>
    </g>
  </g>
</svg>
