<svg xmlns="http://www.w3.org/2000/svg" width="73.031" height="90" viewBox="0 0 73.031 90"><g transform="translate(-418 -57)"><g transform="translate(418 57)"><path d="M52.953,0H3.969a4,4,0,0,0-4,4V86a4,4,0,0,0,4,4h65a4,4,0,0,0,4-4L73,20.028C71.5,18.483,54.843,2,52.953,0Z" transform="translate(0.031)" fill="#2ea764"/><path d="M0,0V14a6,6,0,0,0,6,6H20Z" transform="translate(53.031)" fill="#015f2b"/></g><path d="M4.6-6.671,6.2-9.51H8.912L6.205-4.852,9.026,0H6.3l-1.7-2.988L2.918,0H.185L3.006-4.852.308-9.51H3.032ZM12.814,0H10.266V-13.5h2.549Zm7.242-2.628a.818.818,0,0,0-.461-.734,5.241,5.241,0,0,0-1.481-.479q-3.393-.712-3.393-2.883a2.613,2.613,0,0,1,1.05-2.114,4.237,4.237,0,0,1,2.747-.848,4.56,4.56,0,0,1,2.9.853A2.687,2.687,0,0,1,22.5-6.618H19.96a1.229,1.229,0,0,0-.352-.9,1.488,1.488,0,0,0-1.1-.356,1.52,1.52,0,0,0-.993.29.916.916,0,0,0-.352.738.783.783,0,0,0,.4.681,4.114,4.114,0,0,0,1.349.448,11.019,11.019,0,0,1,1.6.426,2.628,2.628,0,0,1,2.013,2.558,2.481,2.481,0,0,1-1.116,2.1,4.815,4.815,0,0,1-2.883.8A5.029,5.029,0,0,1,16.4-.25,3.561,3.561,0,0,1,14.95-1.419a2.716,2.716,0,0,1-.527-1.6h2.408a1.326,1.326,0,0,0,.5,1.037,1.987,1.987,0,0,0,1.248.36,1.839,1.839,0,0,0,1.1-.277A.861.861,0,0,0,20.057-2.628Z" transform="translate(442.815 131.824)" fill="#015f2b"/><path d="M12.091-15.028l5.733-9.854h5.47L15.051-11.356,23.482,2.395H17.955l-5.864-10-5.883,10H.7L9.15-11.356.888-24.883h5.47Z" transform="translate(442.299 110.605)" fill="#015f2b"/></g></svg>