<svg xmlns="http://www.w3.org/2000/svg" width="73.257" height="90" viewBox="0 0 73.257 90"><g transform="translate(-1031 -57)"><g transform="translate(1031.226 57)"><path d="M52.953,0H3.969a4,4,0,0,0-4,4V86a4,4,0,0,0,4,4h65a4,4,0,0,0,4-4L73,20.028C71.5,18.483,54.843,2,52.953,0Z" transform="translate(-0.195)" fill="#ffda38"/><path d="M0,0V14a6,6,0,0,0,6,6H20Z" transform="translate(53.031)" fill="#bd9f18"/></g><path d="M8.088,48.919a3.871,3.871,0,0,1-3.856-3.865L4,26.245H14.283V31.4h6.428a3.871,3.871,0,0,1,3.856,3.865l.232,9.791a3.871,3.871,0,0,1-3.856,3.865Zm1.286-5.153H19.657V38.613H9.374Zm4.909-17.521V19.684H4V13.123H14.283v6.561H24.566v6.561Zm0-13.122V6.562H24.566v6.561ZM4,6.562H4Zm0,0V0H14.283V6.561Z" transform="translate(1041.943 57)" fill="#bd9f18"/><path d="M3.894-2.048H8.543V0H.65V-1.547L5.124-7.462H.782V-9.51H8.4v1.5ZM12.814,0H10.266V-9.51h2.549Zm-2.7-11.971a1.251,1.251,0,0,1,.382-.94,1.436,1.436,0,0,1,1.042-.369,1.44,1.44,0,0,1,1.037.369,1.244,1.244,0,0,1,.387.94,1.247,1.247,0,0,1-.391.949,1.443,1.443,0,0,1-1.033.369,1.443,1.443,0,0,1-1.033-.369A1.247,1.247,0,0,1,10.116-11.971Zm13.351,7.3a5.7,5.7,0,0,1-1,3.52A3.2,3.2,0,0,1,19.775.176a2.963,2.963,0,0,1-2.329-1V3.656h-2.54V-9.51h2.355l.088.932a2.985,2.985,0,0,1,2.408-1.107,3.22,3.22,0,0,1,2.733,1.3A5.858,5.858,0,0,1,23.467-4.8Zm-2.54-.185a3.743,3.743,0,0,0-.47-2.048A1.532,1.532,0,0,0,19.09-7.62a1.663,1.663,0,0,0-1.644.914v3.894a1.692,1.692,0,0,0,1.661.94Q20.927-1.872,20.927-4.852Z" transform="translate(1055.35 131)" fill="#bd9f18"/></g></svg>